<?xml version="1.0" encoding="UTF-8"?>
<svg width="700px" height="240px" viewBox="0 0 700 240" version="1.1" xmlns="http://www.w3.org/2000/svg" xmlns:xlink="http://www.w3.org/1999/xlink">
    <title>Artboard</title>
    <defs>
        <path d="M42.7897106,25.1446945 L45.7152412,18.3621865 L43.6030868,18.3621865 L42.0288103,22.3503537 L40.4414148,18.3621865 L38.3292605,18.3621865 L41.254791,25.1446945 L42.7897106,25.1446945 Z M49.2126965,25.2890032 C49.6062657,25.2890032 49.9801563,25.2343408 50.3343686,25.1250161 C50.6885808,25.0156913 51.0034361,24.8626367 51.2789345,24.6658521 C51.5544329,24.4690675 51.7840149,24.237299 51.9676805,23.9705466 C52.151346,23.7037942 52.2737898,23.4086174 52.3350116,23.0850161 L52.3350116,23.0850161 L50.4065229,22.9931833 C50.336555,23.2293248 50.1944329,23.4129904 49.9801563,23.5441801 C49.7658798,23.6753698 49.4925679,23.7409646 49.1602206,23.7409646 C48.7229216,23.7409646 48.3818284,23.6163344 48.1369409,23.367074 C47.8920534,23.1178135 47.7608637,22.7832797 47.7433718,22.3634727 L47.7433718,22.3634727 L52.4006065,22.3634727 L52.4006065,21.6025723 C52.4006065,21.0778135 52.3240792,20.6055305 52.1710245,20.1857235 C52.0179698,19.7659164 51.7993203,19.4117042 51.5150759,19.1230868 C51.2308316,18.8344695 50.8897383,18.6136334 50.4917962,18.4605788 C50.0938541,18.3075241 49.6499956,18.2309968 49.1602206,18.2309968 C48.6529538,18.2309968 48.1894168,18.3118971 47.7696097,18.4736977 C47.3498026,18.6354984 46.9868444,18.8694534 46.6807351,19.1755627 C46.3746258,19.481672 46.1362978,19.8511897 45.9657512,20.2841158 C45.7952046,20.7170418 45.7099313,21.2090032 45.7099313,21.76 C45.7099313,22.3022508 45.7952046,22.7920257 45.9657512,23.2293248 C46.1362978,23.6666238 46.3746258,24.038328 46.6807351,24.3444373 C46.9868444,24.6505466 47.3563621,24.8845016 47.7892882,25.0463023 C48.2222142,25.2081029 48.6966837,25.2890032 49.2126965,25.2890032 Z M50.4721177,21.0909325 L47.7433718,21.0909325 C47.7696097,20.6536334 47.9073589,20.3169132 48.1566194,20.0807717 C48.4058798,19.8446302 48.7360406,19.7265595 49.1471017,19.7265595 C49.5844007,19.7265595 49.9101885,19.8490032 50.124465,20.0938907 C50.3387415,20.3387781 50.4546258,20.6711254 50.4721177,21.0909325 L50.4721177,21.0909325 Z M55.5176117,25.1446945 L55.5176117,21.7075241 C55.5176117,21.2352412 55.6794123,20.8569775 56.0030136,20.5727331 C56.3266149,20.2884887 56.763914,20.1463666 57.3149107,20.1463666 L57.3149107,20.1463666 L57.3149107,18.2965916 C56.7901519,18.2965916 56.3856503,18.3796785 56.1014059,18.5458521 C55.8171615,18.7120257 55.6006985,18.9088103 55.4520168,19.1362058 L55.4520168,19.1362058 L55.4520168,18.3621865 L53.6022419,18.3621865 L53.6022419,25.1446945 L55.5176117,25.1446945 Z M59.1987327,17.2864309 C59.522334,17.2864309 59.7956459,17.1749196 60.0186684,16.9518971 C60.2416909,16.7288746 60.3532021,16.4599357 60.3532021,16.1450804 C60.3532021,15.8214791 60.2416909,15.5481672 60.0186684,15.3251447 C59.7956459,15.1021222 59.522334,14.9906109 59.1987327,14.9906109 C59.041305,14.9906109 58.8948098,15.0212219 58.7592471,15.0824437 C58.6236844,15.1436656 58.5034272,15.2267524 58.3984754,15.3317042 C58.2935237,15.4366559 58.2104368,15.5590997 58.149215,15.6990354 C58.0879931,15.8389711 58.0573822,15.9876527 58.0573822,16.1450804 C58.0573822,16.4599357 58.1667069,16.7288746 58.3853565,16.9518971 C58.604006,17.1749196 58.8751314,17.2864309 59.1987327,17.2864309 Z M60.1564176,25.1446945 L60.1564176,18.3621865 L58.2410478,18.3621865 L58.2410478,25.1446945 L60.1564176,25.1446945 Z M63.9949662,25.1446945 L63.9949662,20.0151768 L65.5692427,20.0151768 L65.5692427,18.3621865 L63.9949662,18.3621865 L63.9949662,17.6144051 C63.9949662,17.2908039 64.1021044,17.0306109 64.316381,16.8338264 C64.5306575,16.6370418 64.8039694,16.5386495 65.1363167,16.5386495 C65.2325224,16.5386495 65.3156093,16.540836 65.3855771,16.545209 C65.455545,16.549582 65.5211398,16.5561415 65.5823617,16.5648875 L65.5823617,16.5648875 L65.5823617,14.9118971 C65.4861559,14.8944051 65.3877636,14.8834727 65.2871848,14.8790997 C65.186606,14.8747267 65.0619758,14.8725402 64.9132941,14.8725402 C64.4847411,14.8725402 64.0977314,14.938135 63.7522652,15.0693248 C63.406799,15.2005145 63.1116221,15.3885531 62.8667347,15.6334405 C62.6218472,15.878328 62.4316221,16.1713183 62.2960594,16.5124116 C62.1604967,16.8535048 62.0927154,17.238328 62.0927154,17.666881 L62.0927154,17.666881 L62.0927154,18.3621865 L60.8595321,18.3621865 L60.8595321,20.0151768 L62.0927154,20.0151768 L62.0927154,25.1446945 L63.9949662,25.1446945 Z M67.3612318,17.2864309 C67.6848331,17.2864309 67.958145,17.1749196 68.1811675,16.9518971 C68.40419,16.7288746 68.5157013,16.4599357 68.5157013,16.1450804 C68.5157013,15.8214791 68.40419,15.5481672 68.1811675,15.3251447 C67.958145,15.1021222 67.6848331,14.9906109 67.3612318,14.9906109 C67.2038042,14.9906109 67.057309,15.0212219 66.9217463,15.0824437 C66.7861836,15.1436656 66.6659264,15.2267524 66.5609746,15.3317042 C66.4560228,15.4366559 66.372936,15.5590997 66.3117141,15.6990354 C66.2504923,15.8389711 66.2198814,15.9876527 66.2198814,16.1450804 C66.2198814,16.4599357 66.3292061,16.7288746 66.5478556,16.9518971 C66.7665051,17.1749196 67.0376305,17.2864309 67.3612318,17.2864309 Z M68.3189167,25.1446945 L68.3189167,18.3621865 L66.4035469,18.3621865 L66.4035469,25.1446945 L68.3189167,25.1446945 Z M73.0364364,25.2890032 C73.4300055,25.2890032 73.8038962,25.2343408 74.1581084,25.1250161 C74.5123206,25.0156913 74.8271759,24.8626367 75.1026743,24.6658521 C75.3781727,24.4690675 75.6077547,24.237299 75.7914203,23.9705466 C75.9750859,23.7037942 76.0975296,23.4086174 76.1587515,23.0850161 L76.1587515,23.0850161 L74.2302628,22.9931833 C74.1602949,23.2293248 74.0181727,23.4129904 73.8038962,23.5441801 C73.5896197,23.6753698 73.3163078,23.7409646 72.9839605,23.7409646 C72.5466615,23.7409646 72.2055682,23.6163344 71.9606808,23.367074 C71.7157933,23.1178135 71.5846036,22.7832797 71.5671116,22.3634727 L71.5671116,22.3634727 L76.2243464,22.3634727 L76.2243464,21.6025723 C76.2243464,21.0778135 76.147819,20.6055305 75.9947644,20.1857235 C75.8417097,19.7659164 75.6230602,19.4117042 75.3388158,19.1230868 C75.0545714,18.8344695 74.7134782,18.6136334 74.3155361,18.4605788 C73.917594,18.3075241 73.4737354,18.2309968 72.9839605,18.2309968 C72.4766936,18.2309968 72.0131567,18.3118971 71.5933496,18.4736977 C71.1735425,18.6354984 70.8105843,18.8694534 70.504475,19.1755627 C70.1983657,19.481672 69.9600377,19.8511897 69.7894911,20.2841158 C69.6189444,20.7170418 69.5336711,21.2090032 69.5336711,21.76 C69.5336711,22.3022508 69.6189444,22.7920257 69.7894911,23.2293248 C69.9600377,23.6666238 70.1983657,24.038328 70.504475,24.3444373 C70.8105843,24.6505466 71.180102,24.8845016 71.613028,25.0463023 C72.0459541,25.2081029 72.5204235,25.2890032 73.0364364,25.2890032 Z M74.2958576,21.0909325 L71.5671116,21.0909325 C71.5933496,20.6536334 71.7310988,20.3169132 71.9803592,20.0807717 C72.2296197,19.8446302 72.5597805,19.7265595 72.9708415,19.7265595 C73.4081406,19.7265595 73.7339284,19.8490032 73.9482049,20.0938907 C74.1624814,20.3387781 74.2783657,20.6711254 74.2958576,21.0909325 L74.2958576,21.0909325 Z M80.3252744,25.2890032 C80.8063033,25.2890032 81.2195509,25.2059164 81.5650172,25.0397428 C81.9104834,24.8735691 82.1706763,24.6767846 82.3455959,24.4493891 L82.3455959,24.4493891 L82.3455959,25.1446945 L84.142895,25.1446945 L84.142895,14.951254 L82.2406442,14.951254 L82.2406442,18.9525402 C82.0657246,18.7513826 81.8142776,18.580836 81.4863033,18.4409003 C81.1583291,18.3009646 80.7713194,18.2309968 80.3252744,18.2309968 C79.8442455,18.2309968 79.4047599,18.3140836 79.0068178,18.4802572 C78.6088757,18.6464309 78.2655959,18.8847588 77.9769786,19.1952412 C77.6883612,19.5057235 77.4631522,19.8774277 77.3013516,20.3103537 C77.1395509,20.7432797 77.0586506,21.2264952 77.0586506,21.76 C77.0586506,22.2935048 77.1395509,22.7767203 77.3013516,23.2096463 C77.4631522,23.6425723 77.6883612,24.0142765 77.9769786,24.3247588 C78.2655959,24.6352412 78.6088757,24.8735691 79.0068178,25.0397428 C79.4047599,25.2059164 79.8442455,25.2890032 80.3252744,25.2890032 Z M80.6401297,23.6360129 C80.1591008,23.6360129 79.7655316,23.4742122 79.4594223,23.1506109 C79.153313,22.8270096 79.0002583,22.3634727 79.0002583,21.76 C79.0002583,21.1565273 79.153313,20.6908039 79.4594223,20.3628296 C79.7655316,20.0348553 80.1591008,19.8708682 80.6401297,19.8708682 C81.1124127,19.8708682 81.4972358,20.0217363 81.7945992,20.3234727 C82.0919625,20.625209 82.2406442,21.0515756 82.2406442,21.6025723 L82.2406442,21.6025723 L82.2406442,21.9043087 C82.2406442,22.4553055 82.0919625,22.881672 81.7945992,23.1834084 C81.4972358,23.4851447 81.1124127,23.6360129 80.6401297,23.6360129 Z" id="path-1"></path>
    </defs>
    <g id="Artboard" stroke="none" stroke-width="1" fill="none" fill-rule="evenodd">
        <g id="Group-2" transform="translate(499.000000, 130.000000)"></g>
        <g id="pf-hub" transform="translate(266.000000, 20.000000)" fill-rule="nonzero">
            <g id="Group" transform="translate(90.420000, 43.320000)">
                <path d="M38.0283577,22.1417401 L38.0283577,14.5359297 C38.0283577,13.7055625 38.258034,13.0386186 38.717386,12.5350981 C39.1767381,12.0315776 39.7950967,11.7798173 40.5724615,11.7798173 C41.3144919,11.7798173 41.9019325,12.0139102 42.3347834,12.4820959 C42.7676346,12.9502817 42.9840599,13.6260593 42.9840599,14.5094286 L42.9840599,14.5094286 L42.9840599,22.1417401 L46.8532179,22.1417401 L46.8532179,13.7673984 C46.8532179,12.884029 46.7207125,12.0934134 46.4557017,11.3955516 C46.1906907,10.6976898 45.8240925,10.1102492 45.3559068,9.63322971 C44.8877211,9.15621025 44.3267813,8.79402881 43.673088,8.5466854 C43.0193947,8.29934198 42.2950318,8.17567026 41.4999995,8.17567026 C40.5989626,8.17567026 39.870183,8.32142622 39.3136603,8.6129381 C38.7571376,8.90444999 38.3287035,9.23571351 38.0283577,9.60672863 L38.0283577,9.60672863 L38.0283577,1.5504 L34.1592,1.5504 L34.1592,22.1417401 L38.0283577,22.1417401 Z M53.9933662,22.433252 C54.9650726,22.433252 55.7336038,22.2609948 56.2989603,21.9164808 C56.8643167,21.5719667 57.2795003,21.187701 57.5445111,20.7636837 L57.5445111,20.7636837 L57.5445111,22.1417401 L61.2016603,22.1417401 L61.2016603,8.44068107 L57.3325023,8.44068107 L57.3325023,16.1789967 C57.3325023,16.9563618 57.1293274,17.5923877 56.7229776,18.0870745 C56.3166276,18.5817615 55.7424376,18.8291048 55.0004073,18.8291048 C54.2407097,18.8291048 53.684187,18.6082624 53.3308392,18.1665778 C52.9774914,17.7248931 52.8008177,17.0800336 52.8008177,16.231999 L52.8008177,16.231999 L52.8008177,8.44068107 L48.9316597,8.44068107 L48.9316597,17.0535325 C48.9316597,18.7319342 49.3777613,20.0481545 50.2699643,21.0021936 C51.1621673,21.9562324 52.4033013,22.433252 53.9933662,22.433252 Z M71.3099297,22.433252 C72.2816361,22.433252 73.1738391,22.2654116 73.9865389,21.9297313 C74.7992388,21.594051 75.4971005,21.1126146 76.0801243,20.4854224 C76.6631481,19.8582302 77.1180833,19.1073663 77.44493,18.2328305 C77.7717767,17.3582948 77.9352,16.3821716 77.9352,15.3044611 C77.9352,14.2267504 77.7717767,13.2506273 77.44493,12.3760916 C77.1180833,11.5015559 76.6631481,10.750692 76.0801243,10.1234997 C75.4971005,9.49630746 74.7992388,9.01487116 73.9865389,8.6791908 C73.1738391,8.34351043 72.2816361,8.17567026 71.3099297,8.17567026 C70.4265604,8.17567026 69.6536121,8.31700935 68.9910851,8.59968756 C68.3285582,8.88236575 67.8206207,9.22687981 67.4672729,9.63322971 L67.4672729,9.63322971 L67.4672729,1.5504 L63.5981152,1.5504 L63.5981152,22.1417401 L67.2552644,22.1417401 L67.2552644,20.7371828 C67.6086121,21.1965348 68.1342169,21.594051 68.8320786,21.9297313 C69.5299406,22.2654116 70.3558908,22.433252 71.3099297,22.433252 Z M70.7004048,19.0941156 C69.7463659,19.0941156 68.9690008,18.7893532 68.3683097,18.1798283 C67.7676187,17.5703036 67.4672729,16.7090183 67.4672729,15.5959729 L67.4672729,15.5959729 L67.4672729,14.9864481 C67.4672729,13.8734027 67.7676187,13.0121175 68.3683097,12.4025927 C68.9690008,11.7930678 69.7463659,11.4883054 70.7004048,11.4883054 C71.6721111,11.4883054 72.4671437,11.8195689 73.0855021,12.4820959 C73.7038606,13.144623 74.01304,14.0854113 74.01304,15.3044611 C74.01304,16.5235109 73.7038606,17.4598823 73.0855021,18.1135756 C72.4671437,18.7672689 71.6721111,19.0941156 70.7004048,19.0941156 Z" id="Shape" fill="#495057"></path>
                <g transform="translate(0.232800, 0.456000)" fill="#00C853" id="Oval">
                    <circle cx="4.9248" cy="15.8688" r="4.9248"></circle>
                    <circle cx="15.3216" cy="20.7936" r="3.2832"></circle>
                    <circle cx="15.8688" cy="7.1136" r="7.1136"></circle>
                </g>
            </g>
            <path d="M4.57591264,41.04 L13.7277379,41.04 L13.7277379,50.16 L4.57591264,50.16 L4.57591264,41.04 Z M4.57591264,29.64 L13.7277379,29.64 L13.7277379,38.76 L4.57591264,38.76 L4.57591264,29.64 Z M16.0156942,29.64 L25.1675194,29.64 L25.1675194,38.76 L16.0156942,38.76 L16.0156942,29.64 Z M4.57591264,18.24 L13.7277379,18.24 L13.7277379,27.36 L4.57591264,27.36 L4.57591264,18.24 Z M16.0156942,18.24 L25.1675194,18.24 L25.1675194,27.36 L16.0156942,27.36 L16.0156942,18.24 Z M27.4554759,18.24 L36.6073011,18.24 L36.6073011,27.36 L27.4554759,27.36 L27.4554759,18.24 Z M0,0 L9.15182527,0 L9.15182527,6.84 L16.0156942,6.84 L16.0156942,0 L25.1675194,0 L25.1675194,6.84 L32.0313885,6.84 L32.0313885,0 L41.1832136,0 L41.1832136,11.188305 L36.7707267,15.96 L4.41248696,15.96 L0,11.1899041 L0,0 Z M59.9459807,13.33192 C61.4560395,13.33192 62.8425274,13.598677 64.1054855,14.1322 C65.3684434,14.665723 66.452924,15.4112754 67.3589593,16.36888 C68.2649946,17.3264846 68.9719663,18.4824332 69.4798949,19.83676 C69.9878235,21.1910868 70.2417842,22.7027116 70.2417842,24.3716799 C70.2417842,26.0406484 69.9878235,27.5522731 69.4798949,28.9065999 C68.9719663,30.2609268 68.2649946,31.4237154 67.3589593,32.3949999 C66.452924,33.3662845 65.3684434,34.1118376 64.1054855,34.6316799 C62.8425274,35.1515222 61.4560395,35.4114399 59.9459807,35.4114399 C58.5732002,35.4114399 57.3720354,35.1925622 56.3424496,34.7547999 C55.3128638,34.3170376 54.5235274,33.7835231 53.9744149,33.1542399 L53.9744149,45.4251999 L47.9616657,45.4251999 L47.9616657,13.74232 L53.644949,13.74232 L53.644949,15.95848 C54.1940617,15.2197562 55.0108537,14.5973223 56.0953503,14.09116 C57.1798469,13.5849977 58.4633774,13.33192 59.9459807,13.33192 Z M58.9987668,18.46192 C57.5161635,18.46192 56.3081349,18.9338754 55.3746441,19.8778 C54.4411533,20.8217246 53.9744149,22.1555116 53.9744149,23.8791999 L53.9744149,24.8641599 C53.9744149,26.5878484 54.4411533,27.9216354 55.3746441,28.8655599 C56.3081349,29.8094845 57.5161635,30.2814399 58.9987668,30.2814399 C60.5088256,30.2814399 61.74431,29.7684454 62.7052561,28.7424399 C63.6662024,27.7164347 64.1466687,26.259529 64.1466687,24.3716799 C64.1466687,22.4838309 63.6662024,21.0269253 62.7052561,20.00092 C61.74431,18.9749147 60.5088256,18.46192 58.9987668,18.46192 Z M75.1654661,3.19503999 C76.1813242,3.19503999 77.0392987,3.54387621 77.7394172,4.24155999 C78.4395356,4.9392438 78.789589,5.79423468 78.789589,6.80655999 C78.789589,7.79152455 78.4395356,8.63283621 77.7394172,9.33051999 C77.0392987,10.0282038 76.1813242,10.37704 75.1654661,10.37704 C74.1496082,10.37704 73.2984977,10.0282038 72.6121069,9.33051999 C71.925717,8.63283621 71.5825266,7.79152455 71.5825266,6.80655999 C71.5825266,6.31407771 71.6786199,5.84896227 71.8708091,5.41119999 C72.0629983,4.97343771 72.323823,4.59040152 72.6532901,4.26207999 C72.9827574,3.93375849 73.3602663,3.67384077 73.7858285,3.48231999 C74.2113908,3.29079924 74.6712654,3.19503999 75.1654661,3.19503999 Z M72.1590916,34.9599999 L72.1590916,13.74232 L78.1718408,13.74232 L78.1718408,34.9599999 L72.1590916,34.9599999 Z M101.78355,34.9599999 L94.9059533,34.9599999 L90.8288151,28.3525599 L86.7928603,34.9599999 L79.9564468,34.9599999 L86.5869442,24.2485599 L80.0388131,13.74232 L86.8752267,13.74232 L90.8288151,20.22664 L94.7824037,13.74232 L101.618817,13.74232 L95.029503,24.2485599 L101.78355,34.9599999 Z M114.596105,2.82567999 C115.062851,2.82567999 115.454088,2.83251999 115.769827,2.84619999 C116.085566,2.85987999 116.394438,2.89407999 116.696449,2.94879999 L116.696449,8.11983999 C116.50426,8.09247999 116.298346,8.07195999 116.078701,8.05827999 C115.859057,8.04459999 115.598232,8.03775999 115.29622,8.03775999 C114.252906,8.03775999 113.394931,8.34555696 112.722269,8.96115999 C112.049607,9.57676305 111.71328,10.3907147 111.71328,11.40304 L111.71328,13.74232 L116.655266,13.74232 L116.655266,18.91336 L111.71328,18.91336 L111.71328,34.9599999 L105.741714,34.9599999 L105.741714,18.91336 L101.870492,18.91336 L101.870492,13.74232 L105.741714,13.74232 L105.741714,11.5672 C105.741714,10.2265532 105.954492,9.02272533 106.380054,7.95567999 C106.805616,6.88863468 107.402767,5.9720838 108.171524,5.20599999 C108.940281,4.43991621 109.866894,3.85168227 110.951391,3.44127999 C112.035888,3.03087771 113.25078,2.82567999 114.596105,2.82567999 Z M128.163686,13.33192 C129.783568,13.33192 131.28674,13.5918377 132.673248,14.11168 C134.059757,14.6315223 135.254058,15.3770754 136.256188,16.34836 C137.258318,17.3196446 138.047655,18.4824332 138.624223,19.83676 C139.200791,21.1910868 139.48907,22.7027116 139.48907,24.3716799 C139.48907,26.0406484 139.200791,27.5522731 138.624223,28.9065999 C138.047655,30.2609268 137.258318,31.4237154 136.256188,32.3949999 C135.254058,33.3662845 134.059757,34.1118376 132.673248,34.6316799 C131.28674,35.1515222 129.783568,35.4114399 128.163686,35.4114399 C126.543805,35.4114399 125.040633,35.1515222 123.654124,34.6316799 C122.267616,34.1118376 121.066451,33.3662845 120.050593,32.3949999 C119.034735,31.4237154 118.245399,30.2609268 117.682558,28.9065999 C117.119718,27.5522731 116.838302,26.0406484 116.838302,24.3716799 C116.838302,22.7027116 117.119718,21.1910868 117.682558,19.83676 C118.245399,18.4824332 119.034735,17.3196446 120.050593,16.34836 C121.066451,15.3770754 122.267616,14.6315223 123.654124,14.11168 C125.040633,13.5918377 126.543805,13.33192 128.163686,13.33192 Z M128.163686,18.46192 C126.598717,18.46192 125.335777,18.9749147 124.374831,20.00092 C123.413884,21.0269253 122.933418,22.4838309 122.933418,24.3716799 C122.933418,26.232169 123.413884,27.6753947 124.374831,28.7013999 C125.335777,29.7274054 126.598717,30.2403999 128.163686,30.2403999 C129.728656,30.2403999 130.991596,29.7274054 131.952542,28.7013999 C132.913488,27.6753947 133.393955,26.232169 133.393955,24.3716799 C133.393955,22.4838309 132.913488,21.0269253 131.952542,20.00092 C130.991596,18.9749147 129.728656,18.46192 128.163686,18.46192 Z M152.489238,19.32376 C150.759535,19.32376 149.386774,19.7683554 148.370917,20.65756 C147.355059,21.5467646 146.847138,22.7300724 146.847138,24.2075199 L146.847138,34.9599999 L140.834388,34.9599999 L140.834388,13.74232 L146.641221,13.74232 L146.641221,16.16368 C147.107967,15.4523162 147.787483,14.8367223 148.679791,14.31688 C149.572098,13.7970377 150.841901,13.53712 152.489238,13.53712 L152.489238,19.32376 Z M163.654465,26.7930399 C163.654465,27.9695261 163.977064,28.7971576 164.62227,29.2759599 C165.267477,29.7547622 166.015631,29.9941599 166.866755,29.9941599 C167.306045,29.9941599 167.669827,29.9736399 167.958111,29.9325999 C168.246395,29.8915599 168.500356,29.8436799 168.72,29.7889599 L168.72,35.1241599 C168.28071,35.1788799 167.820835,35.2335999 167.340362,35.2883199 C166.859889,35.3430399 166.207828,35.3703999 165.38416,35.3703999 C164.231024,35.3703999 163.173998,35.2267615 162.213052,34.9394799 C161.252106,34.6521986 160.435313,34.2212831 159.762651,33.6467199 C159.089989,33.072157 158.568339,32.3334445 158.197689,31.4305599 C157.827038,30.5276754 157.641716,29.4606461 157.641716,28.2294399 L157.682899,18.91336 L153.811677,18.91336 L153.811677,13.74232 L157.724082,13.74232 L157.765265,6.72447999 L163.778014,6.72447999 L163.736831,13.74232 L168.72,13.74232 L168.72,18.91336 L163.695648,18.91336 L163.654465,26.7930399 Z" id="Shape" fill="#495057"></path>
        </g>
        <g id="how-1" transform="translate(9.000000, 130.000000)" fill-rule="nonzero">
            <g id="envato-card" fill="#FFFFFF" stroke="#DEE2E6" stroke-width="2.18649518">
                <rect id="Rectangle" x="1.09324759" y="1.09324759" width="188.038585" height="107.138264" rx="10.9324759"></rect>
            </g>
            <path d="M29.1678457,59.0353698 L29.1678457,51.9686174 L32.7886817,58.8954341 L34.5728617,58.8954341 L38.1762058,51.9686174 L38.1762058,59.0353698 L40.8524759,59.0353698 L40.8524759,45.9513826 L38.4735691,45.9513826 L33.6807717,54.9422508 L28.8529904,45.9513826 L26.4565916,45.9513826 L26.4565916,59.0353698 L29.1678457,59.0353698 Z M45.3728987,63.4958199 L51.1627379,49.9920257 L48.3290402,49.9920257 L46.2649887,55.3795498 L44.1834453,49.9920257 L41.3672395,49.9920257 L44.9006157,58.2307395 L42.5916768,63.4958199 L45.3728987,63.4958199 Z M57.1249983,59.2277814 C57.6497572,59.2277814 58.1016328,59.1403215 58.4806253,58.9654019 C58.8596178,58.7904823 59.1773885,58.5689175 59.4339372,58.3007074 L59.4339372,58.3007074 L59.4339372,59.0353698 L61.9003038,59.0353698 L61.9003038,53.4554341 C61.9003038,52.2543194 61.5796178,51.3476527 60.9382459,50.7354341 C60.296874,50.1232154 59.3639694,49.8171061 58.1395321,49.8171061 C57.5564667,49.8171061 57.0317079,49.9103966 56.5652556,50.0969775 C56.0988033,50.2835584 55.7023188,50.5313612 55.3758022,50.8403859 C55.0492856,51.1494105 54.7985675,51.4963344 54.6236478,51.8811576 C54.4487282,52.2659807 54.3612684,52.6566345 54.3612684,53.053119 L54.3612684,53.053119 L56.9150948,53.1580707 C56.9150948,52.8548767 57.0142159,52.580836 57.2124581,52.3359486 C57.4107004,52.0910611 57.7313863,51.9686174 58.174516,51.9686174 C58.9558236,51.9686174 59.3464774,52.4350697 59.3464774,53.3679743 L59.3464774,53.3679743 L59.3464774,53.7178135 L57.737217,53.8052733 C57.2591034,53.8285959 56.801397,53.8898178 56.364098,53.9889389 C55.926799,54.08806 55.5419758,54.2425723 55.2096286,54.4524759 C54.8772813,54.6623794 54.6119865,54.9393355 54.4137443,55.2833441 C54.2155021,55.6273526 54.116381,56.050075 54.116381,56.5515113 C54.116381,57.4261093 54.3904217,58.0908039 54.9385032,58.5455949 C55.4865846,59.0003859 56.2154163,59.2277814 57.1249983,59.2277814 Z M57.719725,57.2511897 C57.416531,57.2511897 57.1658129,57.1899678 56.9675707,57.0675241 C56.7693284,56.9450804 56.6702073,56.7322615 56.6702073,56.4290675 C56.6702073,56.1025509 56.7926511,55.8693248 57.0375385,55.7293891 C57.282426,55.5894534 57.5972813,55.5078242 57.9821044,55.4845016 L57.9821044,55.4845016 L59.3464774,55.3970418 L59.3464774,55.781865 C59.3464774,56.2716399 59.1919651,56.6389711 58.8829405,56.8838585 C58.5739158,57.128746 58.1861773,57.2511897 57.719725,57.2511897 Z M67.5577041,59.2277814 C68.1174469,59.2277814 68.636375,59.1490675 69.1144887,58.9916399 C69.5926023,58.8342122 70.0211553,58.6068167 70.4001478,58.3094534 C70.7791403,58.01209 71.0910803,57.6505895 71.3359678,57.2249518 C71.5808552,56.799314 71.7499442,56.3182851 71.8432346,55.781865 L71.8432346,55.781865 L69.3593761,55.5544695 C69.2894083,56.0092605 69.0969967,56.3678457 68.7821414,56.6302251 C68.4672861,56.8926045 68.0591403,57.0237942 67.5577041,57.0237942 C66.9629774,57.0237942 66.4732025,56.80806 66.0883793,56.3765916 C65.7035562,55.9451233 65.5111446,55.327074 65.5111446,54.5224437 C65.5111446,53.7178135 65.7035562,53.0968489 66.0883793,52.6595498 C66.4732025,52.2222508 66.9629774,52.0036013 67.5577041,52.0036013 C68.047479,52.0036013 68.4527095,52.1406217 68.7733954,52.4146624 C69.0940814,52.6887031 69.2835776,53.0589496 69.3418842,53.5254019 L69.3418842,53.5254019 L71.8432346,53.3154984 C71.7616055,52.7674169 71.5954319,52.277642 71.3447137,51.8461736 C71.0939956,51.4147053 70.7791403,51.0473741 70.4001478,50.7441801 C70.0211553,50.4409861 69.5896869,50.2106752 69.1057427,50.0532476 C68.6217984,49.8958199 68.1057856,49.8171061 67.5577041,49.8171061 C66.8930096,49.8171061 66.2749603,49.9220579 65.7035562,50.1319614 C65.1321521,50.341865 64.6423772,50.6479743 64.2342314,51.0502894 C63.8260857,51.4526045 63.5053997,51.9452947 63.2721735,52.5283601 C63.0389474,53.1114255 62.9223343,53.77612 62.9223343,54.5224437 C62.9223343,55.2571061 63.0389474,55.91597 63.2721735,56.4990354 C63.5053997,57.0821008 63.829001,57.574791 64.2429774,57.9771061 C64.6569538,58.3794212 65.1467287,58.6884459 65.7123022,58.9041801 C66.2778756,59.1199143 66.8930096,59.2277814 67.5577041,59.2277814 Z M76.9758761,59.2277814 C77.5356189,59.2277814 78.0545471,59.1490675 78.5326607,58.9916399 C79.0107743,58.8342122 79.4393273,58.6068167 79.8183198,58.3094534 C80.1973123,58.01209 80.5092523,57.6505895 80.7541398,57.2249518 C80.9990272,56.799314 81.1681162,56.3182851 81.2614066,55.781865 L81.2614066,55.781865 L78.7775481,55.5544695 C78.7075803,56.0092605 78.5151687,56.3678457 78.2003134,56.6302251 C77.8854581,56.8926045 77.4773123,57.0237942 76.9758761,57.0237942 C76.3811494,57.0237942 75.8913745,56.80806 75.5065513,56.3765916 C75.1217282,55.9451233 74.9293166,55.327074 74.9293166,54.5224437 C74.9293166,53.7178135 75.1217282,53.0968489 75.5065513,52.6595498 C75.8913745,52.2222508 76.3811494,52.0036013 76.9758761,52.0036013 C77.465651,52.0036013 77.8708815,52.1406217 78.1915674,52.4146624 C78.5122534,52.6887031 78.7017496,53.0589496 78.7600562,53.5254019 L78.7600562,53.5254019 L81.2614066,53.3154984 C81.1797775,52.7674169 81.0136039,52.277642 80.7628857,51.8461736 C80.5121676,51.4147053 80.1973123,51.0473741 79.8183198,50.7441801 C79.4393273,50.4409861 79.0078589,50.2106752 78.5239147,50.0532476 C78.0399704,49.8958199 77.5239576,49.8171061 76.9758761,49.8171061 C76.3111816,49.8171061 75.6931323,49.9220579 75.1217282,50.1319614 C74.5503241,50.341865 74.0605492,50.6479743 73.6524034,51.0502894 C73.2442577,51.4526045 72.9235717,51.9452947 72.6903456,52.5283601 C72.4571194,53.1114255 72.3405063,53.77612 72.3405063,54.5224437 C72.3405063,55.2571061 72.4571194,55.91597 72.6903456,56.4990354 C72.9235717,57.0821008 73.247173,57.574791 73.6611494,57.9771061 C74.0751258,58.3794212 74.5649008,58.6884459 75.1304742,58.9041801 C75.6960476,59.1199143 76.3111816,59.2277814 76.9758761,59.2277814 Z M86.5689677,59.2277814 C87.2569849,59.2277814 87.8954415,59.1169989 88.4843375,58.8954341 C89.0732335,58.6738692 89.5805004,58.3560986 90.0061381,57.9421222 C90.4317759,57.5281458 90.7670385,57.0325402 91.0119259,56.4553055 C91.2568134,55.8780707 91.3792571,55.2337835 91.3792571,54.5224437 C91.3792571,53.811104 91.2568134,53.1668167 91.0119259,52.589582 C90.7670385,52.0123473 90.4317759,51.5167417 90.0061381,51.1027653 C89.5805004,50.6887889 89.0732335,50.3710182 88.4843375,50.1494534 C87.8954415,49.9278885 87.2569849,49.8171061 86.5689677,49.8171061 C85.8809506,49.8171061 85.242494,49.9278885 84.6535979,50.1494534 C84.0647019,50.3710182 83.5545197,50.6887889 83.1230513,51.1027653 C82.6915829,51.5167417 82.3563203,52.0123473 82.1172635,52.589582 C81.8782067,53.1668167 81.7586783,53.811104 81.7586783,54.5224437 C81.7586783,55.2337835 81.8782067,55.8780707 82.1172635,56.4553055 C82.3563203,57.0325402 82.6915829,57.5281458 83.1230513,57.9421222 C83.5545197,58.3560986 84.0647019,58.6738692 84.6535979,58.8954341 C85.242494,59.1169989 85.8809506,59.2277814 86.5689677,59.2277814 Z M86.5689677,57.0237942 C85.9042732,57.0237942 85.367853,56.8051447 84.9597073,56.3678457 C84.5515615,55.9305466 84.3474886,55.3154126 84.3474886,54.5224437 C84.3474886,53.7178135 84.5515615,53.0968489 84.9597073,52.6595498 C85.367853,52.2222508 85.9042732,52.0036013 86.5689677,52.0036013 C87.2336623,52.0036013 87.7700824,52.2222508 88.1782282,52.6595498 C88.5863739,53.0968489 88.7904468,53.7178135 88.7904468,54.5224437 C88.7904468,55.3154126 88.5863739,55.9305466 88.1782282,56.3678457 C87.7700824,56.8051447 87.2336623,57.0237942 86.5689677,57.0237942 Z M95.7247603,59.2277814 C96.3661322,59.2277814 96.8733991,59.1140836 97.2465609,58.8866881 C97.6197228,58.6592926 97.8937635,58.4056592 98.0686831,58.1257878 L98.0686831,58.1257878 L98.0686831,59.0353698 L100.482574,59.0353698 L100.482574,49.9920257 L97.9287474,49.9920257 L97.9287474,55.0996785 C97.9287474,55.612776 97.7946424,56.0325831 97.5264323,56.3590997 C97.2582223,56.6856163 96.8792298,56.8488746 96.3894548,56.8488746 C95.8880186,56.8488746 95.5206874,56.7031083 95.2874613,56.4115756 C95.0542351,56.1200429 94.937622,55.6944051 94.937622,55.1346624 L94.937622,55.1346624 L94.937622,49.9920257 L92.3837957,49.9920257 L92.3837957,55.6769132 C92.3837957,56.7847374 92.6782437,57.6535048 93.2671397,58.2832154 C93.8560358,58.912926 94.6752426,59.2277814 95.7247603,59.2277814 Z M104.618173,59.0353698 L104.618173,54.0151768 C104.618173,53.4670954 104.76977,53.026881 105.072964,52.6945338 C105.376158,52.3621865 105.784304,52.1960129 106.297402,52.1960129 C106.787177,52.1960129 107.174915,52.3505252 107.460617,52.6595498 C107.746319,52.9685745 107.88917,53.4146195 107.88917,53.9976849 L107.88917,53.9976849 L107.88917,59.0353698 L110.442997,59.0353698 L110.442997,53.50791 C110.442997,52.9248446 110.355537,52.4030011 110.180617,51.9423794 C110.005698,51.4817578 109.763725,51.0940193 109.454701,50.779164 C109.145676,50.4643087 108.77543,50.2252519 108.343961,50.0619936 C107.912493,49.8987353 107.434379,49.8171061 106.90962,49.8171061 C106.291571,49.8171061 105.781389,49.9220579 105.379074,50.1319614 C104.976759,50.341865 104.67648,50.6042444 104.478238,50.9190997 L104.478238,50.9190997 L104.478238,49.9920257 L102.064347,49.9920257 L102.064347,59.0353698 L104.618173,59.0353698 Z M115.785542,59.2102894 C116.135381,59.2102894 116.412337,59.1986281 116.61641,59.1753055 C116.820483,59.1519829 117.01581,59.1286602 117.20239,59.1053376 L117.20239,59.1053376 L117.20239,56.8313826 C117.1091,56.8547053 117.001233,56.8751125 116.878789,56.8926045 C116.756345,56.9100965 116.601833,56.9188424 116.415252,56.9188424 C116.053752,56.9188424 115.735981,56.816806 115.46194,56.6127331 C115.1879,56.4086602 115.050879,56.0559057 115.050879,55.5544695 L115.050879,55.5544695 L115.068371,52.1960129 L117.20239,52.1960129 L117.20239,49.9920257 L115.085863,49.9920257 L115.103355,47.0009003 L112.549529,47.0009003 L112.532037,49.9920257 L110.8703,49.9920257 L110.8703,52.1960129 L112.514545,52.1960129 L112.497053,56.1666881 C112.497053,56.6914469 112.575767,57.1462379 112.733194,57.5310611 C112.890622,57.9158842 113.112187,58.2307395 113.397889,58.475627 C113.683591,58.7205145 114.030515,58.9041801 114.438661,59.0266238 C114.846806,59.1490675 115.295767,59.2102894 115.785542,59.2102894 Z" id="Myaccount" fill="#ADB5BD"></path>
            <path d="M146.495177,36.0771704 C136.230675,36.0771704 127.909968,44.3978778 127.909968,54.6623794 C127.909968,64.9257878 136.230675,73.2475884 146.495177,73.2475884 C156.759678,73.2475884 165.080386,64.926881 165.080386,54.6623794 C165.080386,44.3978778 156.759678,36.0771704 146.495177,36.0771704 M146.495177,71.5585209 C142.28836,71.5585209 138.451061,70.0126688 135.493826,67.4697749 C137.771061,65.4778778 138.858842,64.9334405 141.372219,63.822701 C144.28463,62.5348553 145.275113,60.2587138 144.091125,57.5682315 C143.879035,57.0861093 143.630868,56.6389711 143.369582,56.1655949 C142.472026,54.5454019 141.426881,52.7098392 141.426881,48.5117685 C141.426881,43.5484244 143.783923,43.5090675 145.655563,43.4784566 C146.983859,43.4554984 147.633248,43.2281029 148.15254,43.0433441 C148.4991,42.9198071 148.709003,42.8465595 149.09164,42.8465595 C150.65717,42.8465595 152.382315,44.3913183 152.382315,48.7238585 C152.382315,53.0957556 151.72746,54.170418 150.729325,55.9513183 C150.468039,56.4192283 150.182701,56.9275884 149.883151,57.5376206 C149.301543,58.718328 149.183473,59.8246945 149.532219,60.8261093 C149.98045,62.109582 151.146945,63.1601929 153.200064,64.1309968 C154.883666,64.9279743 156.64926,66.4814791 157.597106,67.3812219 C154.626752,69.9744051 150.750096,71.5585209 146.495177,71.5585209 M158.813891,66.2016077 C157.804823,65.2362701 155.859936,63.5176849 153.923794,62.6015434 C152.326559,61.8482958 151.411511,61.0830225 151.126174,60.2674598 C150.929389,59.7011576 151.016849,59.0528617 151.397299,58.2843087 C151.68373,57.7037942 151.953762,57.2205788 152.203023,56.7767203 C153.256913,54.8941479 154.071383,53.5363344 154.071383,48.7227653 C154.071383,41.5204502 149.912669,41.1563987 149.090547,41.1563987 C148.416013,41.1563987 147.995113,41.3050804 147.586238,41.4493891 C147.140193,41.6090032 146.677749,41.7718971 145.626045,41.7904823 C143.722701,41.8221865 139.735627,41.8877814 139.735627,48.5117685 C139.735627,53.1482315 140.942572,55.2756913 141.890418,56.9855305 C142.133119,57.4228296 142.362701,57.8393569 142.54418,58.2515113 C143.350997,60.0816077 142.761736,61.3628939 140.688939,62.2768489 C138.070611,63.4345981 136.837428,64.0358842 134.265016,66.3 C131.381029,63.2684244 129.599035,59.1763987 129.599035,54.6634727 C129.599035,45.3326045 137.163215,37.7673312 146.494084,37.7673312 C155.824952,37.7673312 163.391318,45.3315113 163.391318,54.6623794 C163.391318,59.1293891 161.645402,63.1798714 158.813891,66.2016077" id="Shape" fill="#00C853"></path>
        </g>
        <g id="how-2" transform="translate(254.000000, 130.000000)" fill-rule="nonzero">
            <g id="envato-card">
                <rect id="Rectangle" stroke="#DEE2E6" stroke-width="2.18649518" fill="#FFFFFF" x="1.09324759" y="1.09324759" width="188.038585" height="107.138264" rx="10.9324759"></rect>
                <path d="M59.380836,36.0771704 C49.1163344,36.0771704 40.795627,44.3978778 40.795627,54.6623794 C40.795627,64.9257878 49.1163344,73.2475884 59.380836,73.2475884 C69.6453376,73.2475884 77.966045,64.926881 77.966045,54.6623794 C77.966045,44.3978778 69.6453376,36.0771704 59.380836,36.0771704 M59.380836,71.5585209 C55.1740193,71.5585209 51.3367203,70.0126688 48.3794855,67.4697749 C50.6567203,65.4778778 51.7445016,64.9334405 54.2578778,63.822701 C57.1702894,62.5348553 58.1607717,60.2587138 56.9767846,57.5682315 C56.7646945,57.0861093 56.5165273,56.6389711 56.2552412,56.1655949 C55.3576849,54.5454019 54.3125402,52.7098392 54.3125402,48.5117685 C54.3125402,43.5484244 56.669582,43.5090675 58.5412219,43.4784566 C59.8695177,43.4554984 60.5189068,43.2281029 61.0381994,43.0433441 C61.3847588,42.9198071 61.5946624,42.8465595 61.977299,42.8465595 C63.5428296,42.8465595 65.2679743,44.3913183 65.2679743,48.7238585 C65.2679743,53.0957556 64.613119,54.170418 63.6149839,55.9513183 C63.3536977,56.4192283 63.0683601,56.9275884 62.7688103,57.5376206 C62.1872026,58.718328 62.0691318,59.8246945 62.4178778,60.8261093 C62.8661093,62.109582 64.0326045,63.1601929 66.0857235,64.1309968 C67.7693248,64.9279743 69.5349196,66.4814791 70.4827653,67.3812219 C67.5124116,69.9744051 63.6357556,71.5585209 59.380836,71.5585209 M71.6995498,66.2016077 C70.6904823,65.2362701 68.7455949,63.5176849 66.8094534,62.6015434 C65.2122186,61.8482958 64.2971704,61.0830225 64.0118328,60.2674598 C63.8150482,59.7011576 63.902508,59.0528617 64.2829582,58.2843087 C64.5693891,57.7037942 64.8394212,57.2205788 65.0886817,56.7767203 C66.1425723,54.8941479 66.9570418,53.5363344 66.9570418,48.7227653 C66.9570418,41.5204502 62.798328,41.1563987 61.9762058,41.1563987 C61.301672,41.1563987 60.8807717,41.3050804 60.4718971,41.4493891 C60.0258521,41.6090032 59.5634084,41.7718971 58.5117042,41.7904823 C56.6083601,41.8221865 52.6212862,41.8877814 52.6212862,48.5117685 C52.6212862,53.1482315 53.8282315,55.2756913 54.7760772,56.9855305 C55.0187781,57.4228296 55.2483601,57.8393569 55.4298392,58.2515113 C56.2366559,60.0816077 55.6473955,61.3628939 53.5745981,62.2768489 C50.9562701,63.4345981 49.7230868,64.0358842 47.1506752,66.3 C44.2666881,63.2684244 42.4846945,59.1763987 42.4846945,54.6634727 C42.4846945,45.3326045 50.0488746,37.7673312 59.3797428,37.7673312 C68.7106109,37.7673312 76.2769775,45.3315113 76.2769775,54.6623794 C76.2769775,59.1293891 74.5310611,63.1798714 71.6995498,66.2016077" id="Shape" fill="#ADB5BD"></path>
                <path d="M149.358392,34.8308682 C148.117556,34.1399357 144.553569,34.5684887 140.271318,35.8935048 C132.778199,41.0153698 126.452669,48.5609646 126.013183,60.6752412 C125.934469,60.9638585 125.194341,60.634791 125.046752,60.5451447 C123.023151,56.6673955 122.220707,52.585209 123.911961,46.6958842 C124.22463,46.1722186 123.196977,45.5261093 123.012219,45.7108682 C122.641608,46.0814791 121.093569,47.7268167 120.069196,49.507717 C114.979035,58.3367846 118.305788,69.6508039 127.211383,74.6010289 C136.115884,79.5567203 147.355563,76.3556913 152.311254,67.4544695 C158.044244,57.1779421 152.721222,36.7101608 149.358392,34.8308682 Z" id="logo" fill="#00C853"></path>
            </g>
            <g id="sync" transform="translate(86.366559, 44.729904)" stroke="#FFC168" stroke-linecap="round" stroke-width="1.09324759">
                <path d="M21.6528617,10.4911254 C21.3784566,10.4911254 21.1554341,10.7130547 21.1554341,10.9874598 C21.1554341,16.4766559 16.7059164,20.9261736 11.2167203,20.9261736 C7.96540193,20.9261736 5.08250804,19.3628296 3.26771704,16.9500322 L7.24057878,16.9500322 C7.51498392,16.9500322 7.73800643,16.7281029 7.73800643,16.4526045 C7.73800643,16.1792926 7.51498392,15.9573633 7.24057878,15.9573633 L2.27176849,15.9573633 C1.99736334,15.9573633 1.77434084,16.1792926 1.77434084,16.4526045 L1.77434084,21.4236013 C1.77434084,21.6969132 1.99736334,21.9188424 2.27176849,21.9188424 C2.54617363,21.9188424 2.76810289,21.6969132 2.76810289,21.4236013 L2.76810289,17.9109968 C4.77202572,20.3554984 7.80797428,21.9188424 11.2167203,21.9188424 C17.2536334,21.9188424 22.1491961,17.024373 22.1491961,10.9863666 C22.1491961,10.7130547 21.9261736,10.4911254 21.6528617,10.4911254 M11.2167203,1.04983923 C14.4680386,1.04983923 17.3509325,2.61318328 19.1657235,5.02598071 L15.1928617,5.02598071 C14.9184566,5.02598071 14.6954341,5.24790997 14.6954341,5.52231511 C14.6954341,5.79672026 14.9184566,6.01864952 15.1928617,6.01864952 L20.161672,6.01864952 C20.4360772,6.01864952 20.6590997,5.79672026 20.6590997,5.52231511 L20.6590997,0.552411576 C20.6590997,0.279099678 20.4360772,0.0560771704 20.161672,0.0560771704 C19.8872669,0.0560771704 19.6653376,0.279099678 19.6653376,0.552411576 L19.6653376,4.06610932 C17.6614148,1.62160772 14.6254662,0.0560771704 11.2167203,0.0560771704 C5.17980707,0.0560771704 0.284244373,4.95163987 0.284244373,10.9885531 C0.284244373,11.2629582 0.507266881,11.4859807 0.780578778,11.4859807 C1.05498392,11.4859807 1.27800643,11.2640514 1.27800643,10.9885531 C1.27800643,5.49935691 5.72752412,1.04983923 11.2167203,1.04983923" id="sync_icon"></path>
            </g>
        </g>
        <g id="how-3" transform="translate(499.000000, 130.000000)" fill-rule="nonzero">
            <rect id="Rectangle" stroke="#DEE2E6" stroke-width="2.18649518" fill="#FFFFFF" x="1.09324759" y="1.09324759" width="188.038585" height="107.138264" rx="10.9324759"></rect>
            <g id="verified">
                <use fill="#ADB5BD" xlink:href="#path-1"></use>
                <use fill="#00C853" xlink:href="#path-1"></use>
            </g>
            <g id="pixfort-logo-new" transform="translate(54.662379, 42.636656)" fill="#ADB5BD">
                <path d="M2.1941252,19.6784566 L6.58237559,19.6784566 L6.58237559,24.0514469 L2.1941252,24.0514469 L2.1941252,19.6784566 Z M2.1941252,14.2122186 L6.58237559,14.2122186 L6.58237559,18.585209 L2.1941252,18.585209 L2.1941252,14.2122186 Z M7.67943819,14.2122186 L12.0676886,14.2122186 L12.0676886,18.585209 L7.67943819,18.585209 L7.67943819,14.2122186 Z M2.1941252,8.74598071 L6.58237559,8.74598071 L6.58237559,13.1189711 L2.1941252,13.1189711 L2.1941252,8.74598071 Z M7.67943819,8.74598071 L12.0676886,8.74598071 L12.0676886,13.1189711 L7.67943819,13.1189711 L7.67943819,8.74598071 Z M13.1647512,8.74598071 L17.5530016,8.74598071 L17.5530016,13.1189711 L13.1647512,13.1189711 L13.1647512,8.74598071 Z M0,0 L4.3882504,0 L4.3882504,3.27974277 L7.67943819,3.27974277 L7.67943819,0 L12.0676886,0 L12.0676886,3.27974277 L15.3588764,3.27974277 L15.3588764,0 L19.7471268,0 L19.7471268,5.36473136 L17.6313633,7.65273312 L2.11576348,7.65273312 L0,5.36549809 L0,0 Z M28.7437715,6.39258307 C29.4678364,6.39258307 30.1326498,6.52049158 30.7382313,6.77631297 C31.3438128,7.03213436 31.8638153,7.38962268 32.2982543,7.84878885 C32.7326933,8.30795503 33.0716823,8.86222609 33.3152313,9.51161844 C33.5587803,10.1610108 33.6805532,10.8858266 33.6805532,11.6860879 C33.6805532,12.4863491 33.5587803,13.211165 33.3152313,13.8605573 C33.0716823,14.5099497 32.7326933,15.0675005 32.2982543,15.5332262 C31.8638153,15.9989518 31.3438128,16.3564405 30.7382313,16.605702 C30.1326498,16.8549636 29.4678364,16.9795927 28.7437715,16.9795927 C28.0855306,16.9795927 27.5095786,16.874642 27.0158979,16.6647374 C26.5222171,16.4548328 26.1437346,16.1990154 25.8804381,15.8972776 L25.8804381,21.7811361 L22.9973576,21.7811361 L22.9973576,6.58936763 L25.7224611,6.58936763 L25.7224611,7.65200429 C25.9857576,7.29779025 26.3774049,6.99933657 26.8974151,6.75663451 C27.4174253,6.51393245 28.0328712,6.39258307 28.7437715,6.39258307 Z M28.2895876,8.85239014 C27.5786873,8.85239014 26.9994441,9.0786902 26.5518404,9.53129689 C26.1042367,9.98390358 25.8804381,10.6234472 25.8804381,11.4499464 L25.8804381,11.9222294 C25.8804381,12.7487286 26.1042367,13.3882722 26.5518404,13.8408789 C26.9994441,14.2934856 27.5786873,14.5197856 28.2895876,14.5197856 C29.0136525,14.5197856 29.6060605,14.2738075 30.066829,13.7818435 C30.5275974,13.2898795 30.7579784,12.5913013 30.7579784,11.6860879 C30.7579784,10.7808745 30.5275974,10.0822962 30.066829,9.59033226 C29.6060605,9.0983683 29.0136525,8.85239014 28.2895876,8.85239014 Z M36.0414319,1.53200429 C36.5285302,1.53200429 36.9399243,1.69926935 37.2756273,2.03380493 C37.6113303,2.36834051 37.779179,2.77830399 37.779179,3.26370847 C37.779179,3.73599361 37.6113303,4.13939796 37.2756273,4.47393355 C36.9399243,4.80846913 36.5285302,4.97573419 36.0414319,4.97573419 C35.5543335,4.97573419 35.1462306,4.80846913 34.81711,4.47393355 C34.4879898,4.13939796 34.3234318,3.73599361 34.3234318,3.26370847 C34.3234318,3.02756589 34.3695081,2.80454557 34.4616617,2.59464094 C34.5538154,2.38473631 34.6788794,2.20107254 34.8368571,2.04364416 C34.9948349,1.88621578 35.1758484,1.76158665 35.3799031,1.66975348 C35.5839579,1.57792032 35.8044653,1.53200429 36.0414319,1.53200429 Z M34.5998916,16.7631297 L34.5998916,6.58936763 L37.4829721,6.58936763 L37.4829721,16.7631297 L34.5998916,16.7631297 Z M48.8046581,16.7631297 L45.506888,16.7631297 L43.5519224,13.5948982 L41.616704,16.7631297 L38.338681,16.7631297 L41.5179684,11.6270525 L38.3781752,6.58936763 L41.6561983,6.58936763 L43.5519224,9.69856377 L45.4476466,6.58936763 L48.7256696,6.58936763 L45.5661294,11.6270525 L48.8046581,16.7631297 Z M54.9482087,1.35489818 C55.1720106,1.35489818 55.3596064,1.35817792 55.5110018,1.36473741 C55.6623972,1.37129689 55.8104992,1.38769561 55.9553122,1.41393355 L55.9553122,3.89341908 C55.8631585,3.88030011 55.7644236,3.87046088 55.6591053,3.86390139 C55.5537869,3.85734191 55.4287229,3.85406217 55.2839099,3.85406217 C54.7836468,3.85406217 54.3722523,4.00164913 54.0497144,4.29682744 C53.7271766,4.59200574 53.5659098,4.98229113 53.5659098,5.46769561 L53.5659098,6.58936763 L55.935565,6.58936763 L55.935565,9.06885316 L53.5659098,9.06885316 L53.5659098,16.7631297 L50.7025764,16.7631297 L50.7025764,9.06885316 L48.8463465,9.06885316 L48.8463465,6.58936763 L50.7025764,6.58936763 L50.7025764,5.54640943 C50.7025764,4.90357657 50.8046022,4.32634767 51.0086569,3.81470525 C51.2127117,3.30306283 51.4990421,2.86358167 51.8676569,2.49624866 C52.2362718,2.12891565 52.6805778,1.84686069 53.200588,1.65007503 C53.7205982,1.45328937 54.3031326,1.35489818 54.9482087,1.35489818 Z M61.4537899,6.39258307 C62.2305143,6.39258307 62.9512771,6.5172122 63.6161003,6.76647374 C64.2809235,7.01573528 64.8535843,7.37322397 65.3341003,7.83894962 C65.8146163,8.30467528 66.1930989,8.86222609 66.4695601,9.51161844 C66.7460214,10.1610108 66.8842498,10.8858266 66.8842498,11.6860879 C66.8842498,12.4863491 66.7460214,13.211165 66.4695601,13.8605573 C66.1930989,14.5099497 65.8146163,15.0675005 65.3341003,15.5332262 C64.8535843,15.9989518 64.2809235,16.3564405 63.6161003,16.605702 C62.9512771,16.8549636 62.2305143,16.9795927 61.4537899,16.9795927 C60.6770656,16.9795927 59.9563028,16.8549636 59.2914795,16.605702 C58.6266563,16.3564405 58.0507043,15.9989518 57.5636059,15.5332262 C57.0765076,15.0675005 56.698025,14.5099497 56.4281461,13.8605573 C56.1582673,13.211165 56.0233301,12.4863491 56.0233301,11.6860879 C56.0233301,10.8858266 56.1582673,10.1610108 56.4281461,9.51161844 C56.698025,8.86222609 57.0765076,8.30467528 57.5636059,7.83894962 C58.0507043,7.37322397 58.6266563,7.01573528 59.2914795,6.76647374 C59.9563028,6.5172122 60.6770656,6.39258307 61.4537899,6.39258307 Z M61.4537899,8.85239014 C60.7033954,8.85239014 60.0978227,9.0983683 59.6370543,9.59033226 C59.1762858,10.0822962 58.9459048,10.7808745 58.9459048,11.6860879 C58.9459048,12.5781823 59.1762858,13.2702011 59.6370543,13.7621651 C60.0978227,14.254129 60.7033954,14.5001072 61.4537899,14.5001072 C62.2041844,14.5001072 62.8097571,14.254129 63.2705256,13.7621651 C63.7312941,13.2702011 63.961675,12.5781823 63.961675,11.6860879 C63.961675,10.7808745 63.7312941,10.0822962 63.2705256,9.59033226 C62.8097571,9.0983683 62.2041844,8.85239014 61.4537899,8.85239014 Z M73.1177595,9.26563773 C72.2883761,9.26563773 71.6301451,9.47881882 71.1430468,9.90518757 C70.6559484,10.3315563 70.4124031,10.898946 70.4124031,11.6073741 L70.4124031,16.7631297 L67.5293226,16.7631297 L67.5293226,6.58936763 L70.3136675,6.58936763 L70.3136675,7.75039657 C70.5374693,7.4093015 70.8632936,7.11412757 71.2911502,6.86486602 C71.7190068,6.61560448 72.3278704,6.49097535 73.1177595,6.49097535 L73.1177595,9.26563773 Z M78.4714249,12.8471168 C78.4714249,13.4112355 78.6261093,13.8080804 78.9354824,14.0376635 C79.2448555,14.2672465 79.6035914,14.3820364 80.0117008,14.3820364 C80.222338,14.3820364 80.3967691,14.3721972 80.5349997,14.3525188 C80.6732303,14.3328403 80.7950032,14.3098821 80.9003215,14.2836442 L80.9003215,16.8418435 C80.6896844,16.8680815 80.469177,16.8943194 80.2387928,16.9205573 C80.0084086,16.9467953 79.6957486,16.9599143 79.3008043,16.9599143 C78.7478818,16.9599143 78.241044,16.8910404 77.7802755,16.7532905 C77.319507,16.6155405 76.9278593,16.4089189 76.6053215,16.1334191 C76.2827836,15.8579192 76.0326555,15.5037107 75.8549307,15.0707824 C75.6772058,14.6378542 75.5883444,14.1262194 75.5883444,13.5358628 L75.6080916,9.06885316 L73.7518616,9.06885316 L73.7518616,6.58936763 L75.6278387,6.58936763 L75.6475858,3.22435155 L78.5306663,3.22435155 L78.5109192,6.58936763 L80.9003215,6.58936763 L80.9003215,9.06885316 L78.4911721,9.06885316 L78.4714249,12.8471168 Z" id="Shape"></path>
            </g>
            <g id="verified_user-24px" transform="translate(15.305466, 9.839228)" fill="#00C853">
                <path d="M8.95369775,0.188585209 L1.30096463,3.58858521 C0.513826367,3.93842444 0,4.7255627 0,5.5892283 L0,10.727492 C0,16.7950161 4.19807074,22.4689711 9.8392283,23.846463 C15.4803859,22.4689711 19.6784566,16.7950161 19.6784566,10.727492 L19.6784566,5.5892283 C19.6784566,4.7255627 19.1646302,3.93842444 18.377492,3.58858521 L10.7247588,0.188585209 C10.1672026,-0.0628617363 9.51125402,-0.0628617363 8.95369775,0.188585209 Z M6.87652733,16.5107717 L4.04501608,13.6792605 C3.61864952,13.2528939 3.61864952,12.5641479 4.04501608,12.1377814 C4.47138264,11.7114148 5.16012862,11.7114148 5.58649518,12.1377814 L7.65273312,14.1930868 L14.0810289,7.764791 C14.5073955,7.33842444 15.1961415,7.33842444 15.622508,7.764791 C16.0488746,8.19115756 16.0488746,8.87990354 15.622508,9.3062701 L8.41800643,16.5107717 C8.00257235,16.9371383 7.30289389,16.9371383 6.87652733,16.5107717 Z" id="Shape"></path>
            </g>
        </g>
        <g id="keyboard_arrow_right-24px" transform="translate(220.000000, 174.000000)" fill="#00C853" fill-rule="nonzero">
            <path d="M0.585,18.925 L8.345,11.165 L0.585,3.405 C-0.195,2.625 -0.195,1.365 0.585,0.585 C1.365,-0.195 2.625,-0.195 3.405,0.585 L12.585,9.765 C13.365,10.545 13.365,11.805 12.585,12.585 L3.405,21.765 C2.625,22.545 1.365,22.545 0.585,21.765 C-0.175,20.985 -0.195,19.705 0.585,18.925 Z" id="Path"></path>
            <path d="M245.585,18.925 L253.345,11.165 L245.585,3.405 C244.805,2.625 244.805,1.365 245.585,0.585 C246.365,-0.195 247.625,-0.195 248.405,0.585 L257.585,9.765 C258.365,10.545 258.365,11.805 257.585,12.585 L248.405,21.765 C247.625,22.545 246.365,22.545 245.585,21.765 C244.825,20.985 244.805,19.705 245.585,18.925 Z" id="Path-Copy"></path>
        </g>
    </g>
</svg>