<?xml version="1.0" encoding="UTF-8"?>
<svg width="65px" height="64px" viewBox="0 0 65 64" version="1.1" xmlns="http://www.w3.org/2000/svg" xmlns:xlink="http://www.w3.org/1999/xlink">
    <title>check</title>
    <g id="Page-1" stroke="none" stroke-width="1" fill="none" fill-rule="evenodd">
        <g id="check" transform="translate(0.325550, 0.000350)" fill="#00C853" fill-rule="nonzero">
            <path d="M9.37203644,9.37203644 C-3.12399203,21.8701982 -3.12399203,42.1304351 9.37203644,54.6264636 C21.8679919,67.1245524 42.1305081,67.1245524 54.6265843,54.6263428 C67.1245323,42.1305282 67.1245323,21.8701051 54.6264636,9.37203644 C42.130415,-3.12401215 21.868085,-3.12401215 9.37203644,9.37203644 Z M51.7980364,12.2004636 C62.7339677,23.1363949 62.7339677,40.8639718 51.7981572,51.7979157 C40.8639919,62.7339476 23.1345081,62.7339476 12.2005843,51.7981572 C1.26649203,40.8640649 1.26649203,23.1363018 12.2004636,12.2004636 C23.134415,1.26651215 40.864085,1.26651215 51.7980364,12.2004636 Z" id="Stroke-7"></path>
            <path d="M44.542125,23.6276479 C45.3232225,22.8466482 46.5895525,22.8467275 47.3705521,23.627825 C48.1104466,24.3678121 48.1493172,25.5432987 47.4872157,26.3290447 L47.370375,26.4562521 L29.9891614,43.8352886 L19.5830364,33.4291636 C18.8019879,32.648115 18.8019879,31.381785 19.5830364,30.6007364 C20.3229772,29.8607957 21.4984614,29.8218514 22.2842488,30.4839037 L22.4114636,30.6007364 L29.989,38.178 L44.542125,23.6276479 Z" id="Stroke-9"></path>
        </g>
    </g>
</svg>