<?xml version="1.0" encoding="UTF-8"?>
<svg width="64px" height="64px" viewBox="0 0 64 64" version="1.1" xmlns="http://www.w3.org/2000/svg" xmlns:xlink="http://www.w3.org/1999/xlink">
    <title>error</title>
    <g id="Page-1" stroke="none" stroke-width="1" fill="none" fill-rule="evenodd">
        <g id="error" transform="translate(-0.000150, -0.000400)" fill="#FF6557" fill-rule="nonzero">
            <path d="M9.37359679,9.37272609 C-3.12454232,21.8697985 -3.12454232,42.1312681 9.37365715,54.6273343 C21.8695385,67.1242823 42.1319615,67.1242823 54.6280239,54.6271532 C67.1240021,42.131175 67.1240021,21.8698916 54.6280239,9.3728468 C42.2569222,-2.99931097 22.2740103,-3.12303255 9.75067233,9.00168206 L9.37359679,9.37272609 Z M51.7994761,12.2011532 C62.7334979,23.1361084 62.7334979,40.864825 51.7995364,51.7987864 C40.8655385,62.7337177 23.1359615,62.7337177 12.2020239,51.7988468 C1.37540214,40.974073 1.26713592,23.4900926 11.8772253,12.5312291 L12.2020239,12.2011532 C23.1359615,1.26628227 40.8655385,1.26628227 51.7994761,12.2011532 Z" id="Stroke-1"></path>
            <path d="M41.8989364,19.2723864 C42.679985,18.4913379 43.946315,18.4913379 44.7273636,19.2723864 C45.4673043,20.0123272 45.5062486,21.1878114 44.8441963,21.9735988 L44.7273636,22.1008136 L22.1003636,44.7278136 C21.319315,45.5088621 20.052985,45.5088621 19.2719364,44.7278136 C18.5319957,43.9878728 18.4930514,42.8123886 19.1551037,42.0266012 L19.2719364,41.8993864 L41.8989364,19.2723864 Z" id="Stroke-3"></path>
            <path d="M19.2719364,19.2723864 C20.0118772,18.5324457 21.1873614,18.4935014 21.9731488,19.1555537 L22.1003636,19.2723864 L44.7273636,41.8993864 C45.5084121,42.680435 45.5084121,43.946765 44.7273636,44.7278136 C43.9874228,45.4677543 42.8119386,45.5066986 42.0261512,44.8446463 L41.8989364,44.7278136 L19.2719364,22.1008136 C18.4908879,21.319765 18.4908879,20.053435 19.2719364,19.2723864 Z" id="Stroke-5"></path>
        </g>
    </g>
</svg>