<?xml version="1.0" encoding="UTF-8"?>
<svg width="64px" height="64px" viewBox="0 0 64 64" version="1.1" xmlns="http://www.w3.org/2000/svg" xmlns:xlink="http://www.w3.org/1999/xlink">
    <title>icon</title>
    <g id="Page-1" stroke="none" stroke-width="1" fill="none" fill-rule="evenodd">
        <g id="icon" fill="#FF9900" fill-rule="nonzero">
            <path d="M32.1499881,0.410726071 C14.6207281,0.410726071 0.410726071,14.6211549 0.410726071,32.1499881 C0.410726071,49.6788212 14.6207281,63.88925 32.1499881,63.88925 C49.6775258,63.88925 63.88925,49.6779525 63.88925,32.1499881 C63.88925,14.6220236 49.6775258,0.410726071 32.1499881,0.410726071 Z M32.1499881,4.29716631 C47.5311302,4.29716631 60.0028098,16.7684714 60.0028098,32.1499881 C60.0028098,47.5315047 47.5311302,60.0028098 32.1499881,60.0028098 C16.7671759,60.0028098 4.29716631,47.5324257 4.29716631,32.1499881 C4.29716631,16.7675504 16.7671759,4.29716631 32.1499881,4.29716631 Z" id="Stroke-1"></path>
            <path d="M32.1503767,14.3234049 C35.7734124,14.3234049 38.4927107,15.8395807 40.2054836,18.4006 C41.4149921,20.2091144 42.0258214,22.4492732 42.0258214,24.1962586 C42.0258214,27.1953483 40.7705228,29.8866279 37.3883652,33.3251281 L37.1828766,33.5323433 C34.5595726,36.1556473 34.1116716,37.1611833 34.0941477,39.1548004 L34.0935968,40.1034585 C34.0935968,41.1766693 33.2235875,42.0466786 32.1503767,42.0466786 C31.1129396,42.0466786 30.265383,41.2337032 30.2100319,40.2100775 L30.2071566,40.1034585 L30.2071566,39.2834196 L30.2107508,38.9360153 C30.2714465,36.0789039 31.1205633,34.141258 34.2443367,30.9758724 L34.4345046,30.7844588 C37.2868898,27.9310614 38.1393811,26.1433103 38.1393811,24.1962586 C38.1393811,23.1839022 37.7335093,21.6954056 36.9749328,20.561146 C35.9693754,19.0575889 34.4489262,18.2098451 32.1503767,18.2098451 C27.6697848,18.2098451 25.1716255,21.0588403 25.1716255,24.1962586 C25.1716255,25.2694694 24.3016162,26.1394787 23.2284054,26.1394787 C22.1551945,26.1394787 21.2851853,25.2694694 21.2851853,24.1962586 C21.2851853,19.0177375 25.4014401,14.3234049 32.1503767,14.3234049 Z" id="Stroke-3"></path>
            <path d="M32.7977281,44.8451828 C34.0185367,44.8451828 35.0081976,45.8348437 35.0081976,47.0556523 C35.0081976,48.2394667 34.0776074,49.2059301 32.9080528,49.2634166 L32.7977281,49.2661218 L32.1499881,49.2661218 C30.9291795,49.2661218 29.9395185,48.2764609 29.9395185,47.0556523 C29.9395185,45.8718379 30.8701088,44.9053745 32.0396633,44.847888 L32.1499881,44.8451828 L32.7977281,44.8451828 Z" id="Stroke-5"></path>
        </g>
    </g>
</svg>