<?xml version="1.0" encoding="UTF-8"?>
<svg width="15px" height="15px" viewBox="0 0 24 24" version="1.1" xmlns="http://www.w3.org/2000/svg" xmlns:xlink="http://www.w3.org/1999/xlink">
    <title>pixfort-logo</title>
    <g id="pixfort-logo" stroke="none" stroke-width="1" fill="none" fill-rule="evenodd">
        <path d="M5,19 L9,19 L9,23 L5,23 L5,19 Z M5,14 L9,14 L9,18 L5,18 L5,14 Z M10,14 L14,14 L14,18 L10,18 L10,14 Z M5,9 L9,9 L9,13 L5,13 L5,9 Z M10,9 L14,9 L14,13 L10,13 L10,9 Z M15,9 L19,9 L19,13 L15,13 L15,9 Z M3,1 L6.85714286,1 L6.85714286,3.80378606 L10.0714286,3.80378606 L10.0714286,1 L13.9285714,1 L13.9285714,3.80378606 L17.1428571,3.80378606 L17.1428571,1 L21,1 L21,5.90715144 L19.0714286,8 L4.92857143,8 L3,5.90785256 L3,1 Z" id="pixfort-logo-mini" fill="#fff"></path>
    </g>
</svg>
