<?xml version="1.0" standalone="no"?>
<!DOCTYPE svg PUBLIC "-//W3C//DTD SVG 1.1//EN" "http://www.w3.org/Graphics/SVG/1.1/DTD/svg11.dtd" >
<svg xmlns="http://www.w3.org/2000/svg">
<metadata>Generated by IcoMoon</metadata>
<defs>
<font id="pixicon" horiz-adv-x="1024">
<font-face units-per-em="1024" ascent="960" descent="-64" />
<missing-glyph horiz-adv-x="1024" />
<glyph unicode="&#x20;" horiz-adv-x="512" d="" />
<glyph unicode="&#xe65e;" glyph-name="heart" d="M12.8 560c57.6-217.6 321.6-436.8 480-568 6.4-4.8 12.8-8 20.8-8s14.4 3.2 20.8 8c276.8 232 433.6 416 478.4 564.8 3.2 11.2 6.4 24 9.6 36.8v4.8c1.6 12.8 3.2 25.6 3.2 36.8 0 0 0 1.6 0 1.6v0c0 0 0 1.6 0 1.6 0 150.4-121.6 272-272 272-96 0-187.2-49.6-240-123.2-54.4 75.2-145.6 124.8-241.6 124.8-147.2 0-265.6-113.6-272-260.8 0-1.6 0-3.2 0-4.8s0-1.6 0-3.2 0-1.6 0-3.2c0-27.2 4.8-56 12.8-80zM64 643.2c0 0 0 1.6 0 1.6 3.2 113.6 94.4 203.2 208 203.2 91.2 0 177.6-56 208-134.4 3.2-12.8 12.8-22.4 25.6-25.6 16-3.2 30.4 6.4 35.2 20.8 30.4 80 120 139.2 211.2 139.2 115.2 0 208-92.8 208-208 0 0 0 0 0 0 0-1.6 0-1.6 0-3.2 0-9.6-1.6-19.2-3.2-28.8v-3.2c-1.6-9.6-4.8-20.8-6.4-30.4-40-129.6-187.2-304-438.4-516.8-153.6 128-388.8 329.6-438.4 520-6.4 20.8-9.6 41.6-9.6 62.4 0 0 0 1.6 0 3.2z" />
<glyph unicode="&#xe7d5;" glyph-name="play" horiz-adv-x="896" d="M4.8-64v1024l886.4-512-886.4-512zM65.6 854.4v-812.8l704 406.4-704 406.4z" />
<glyph unicode="&#xe8e7;" glyph-name="volume-3" d="M644.8 252.8c-11.2 0-20.8 4.8-27.2 16-9.6 14.4-4.8 35.2 11.2 43.2 48 28.8 76.8 80 76.8 136s-28.8 107.2-76.8 136c-14.4 9.6-19.2 28.8-11.2 43.2 9.6 14.4 28.8 19.2 43.2 11.2 67.2-41.6 107.2-112 107.2-192 0-78.4-40-150.4-107.2-192-4.8-1.6-11.2-1.6-16-1.6zM736 160c-9.6 0-19.2 4.8-25.6 12.8-11.2 14.4-8 33.6 6.4 44.8 73.6 54.4 115.2 139.2 115.2 230.4s-41.6 176-115.2 230.4c-14.4 11.2-17.6 30.4-6.4 44.8s30.4 17.6 44.8 6.4c89.6-67.2 140.8-169.6 140.8-281.6s-51.2-214.4-140.8-281.6c-6.4-4.8-12.8-6.4-19.2-6.4zM828.8 70.4c-9.6 0-17.6 3.2-24 11.2-11.2 14.4-9.6 33.6 4.8 44.8 96 80 152 196.8 152 321.6s-56 243.2-153.6 323.2c-14.4 11.2-16 32-4.8 44.8 11.2 14.4 32 16 44.8 4.8 112-92.8 176-228.8 176-372.8s-64-278.4-174.4-369.6c-6.4-6.4-12.8-8-20.8-8zM544 0c-8 0-16 3.2-22.4 9.6l-278.4 278.4h-179.2c-35.2 0-64 28.8-64 64v192c0 35.2 28.8 64 64 64h179.2l278.4 278.4c9.6 9.6 22.4 12.8 35.2 6.4 11.2-4.8 19.2-16 19.2-28.8v-832c0-12.8-8-24-19.2-28.8-4.8-3.2-8-3.2-12.8-3.2zM64 544v-192h192c8 0 16-3.2 22.4-9.6l233.6-233.6v678.4l-233.6-233.6c-6.4-6.4-14.4-9.6-22.4-9.6h-192z" />
<glyph unicode="&#xe900;" glyph-name="facebook3" d="M1024 445.992c0 283.879-230.129 514.008-514.008 514.008s-514.008-230.129-514.008-514.008c0-256.556 187.965-469.203 433.694-507.763v359.183h-130.51v148.58h130.51v113.242c0 128.823 76.738 199.981 194.148 199.981 56.237 0 115.059-10.039 115.059-10.039v-126.494h-64.815c-63.852 0-83.765-39.622-83.765-80.271v-96.42h142.557l-22.789-148.58h-119.768v-359.183c245.729 38.561 433.694 251.207 433.694 507.763z" />
<glyph unicode="&#xe901;" glyph-name="tripadvisor" horiz-adv-x="1021" d="M0.264 399.185c0-140.889 114.196-255.072 255.072-255.072 64.307-0.089 126.256 24.208 173.357 67.992l81.766-88.974 81.766 88.924c47.097-43.749 109.025-68.022 173.306-67.929 140.889 0 255.185 114.208 255.185 255.072 0.074 71.766-30.159 140.227-83.25 188.515l83.464 90.811h-185.030c-196.224 133.526-454.131 133.526-650.354 0h-185.546l83.464-90.811c-53.077-48.299-83.292-116.764-83.2-188.527v0zM938.121 399.185c0-95.339-77.288-172.627-172.627-172.627s-172.627 77.288-172.627 172.627c0 95.339 77.288 172.627 172.627 172.627s172.627-77.288 172.627-172.627v0zM510.421 695.216c65.793 0.081 130.943-12.944 191.647-38.317-108.95-41.688-191.559-139.153-191.559-252.733 0 113.592-82.634 211.070-191.597 252.745 60.661 25.353 125.763 38.374 191.509 38.305v0zM255.336 571.812c95.339 0 172.627-77.288 172.627-172.627s-77.288-172.627-172.627-172.627c-95.339 0-172.627 77.288-172.627 172.627s77.288 172.627 172.627 172.627zM255.336 308.702c36.605-0.005 69.607 22.042 83.618 55.859s6.269 72.744-19.615 98.628c-25.883 25.883-64.81 33.625-98.628 19.615s-55.864-47.013-55.859-83.618c0.007-49.97 40.514-90.477 90.484-90.484zM855.99 399.185c0-49.98-40.516-90.496-90.496-90.496s-90.496 40.516-90.496 90.496c0 49.98 40.516 90.496 90.496 90.496s90.496-40.516 90.496-90.496z" />
<glyph unicode="&#xe902;" glyph-name="telegram" d="M949.376 876.672c-11.409-0.354-22.844-3.328-33.207-7.987-18.914-7.262-218.039-84.395-417.237-161.425-99.674-38.545-199.198-76.988-275.819-106.513-76.625-29.525-132.361-50.833-137.865-52.757-18.261-6.409-44.578-16.661-62.217-37.376-8.815-10.359-15.433-28.988-7.697-44.928 7.731-15.957 22.626-24.764 43.708-32.811l0.649-0.247 0.666-0.205c76.791-23.68 192.691-60.011 208.311-64.909 4.053-13.372 52.958-174.357 79.573-261.483 6.835-18.031 27.123-30.114 45.965-27.563 3.388-0.115 9.66-0.060 16.631 1.613 10.167 2.432 23.27 8.209 35.729 19.913l0.009 0.009c17.719 16.64 80.747 78.391 99.55 96.823l206.72-152.546s18.637-12.348 43.238-14.012c12.301-0.832 27.332 1.408 40.341 10.906 13.013 9.506 22.4 25.216 27.102 45.696 16.060 69.952 125.559 590.878 144.341 677.705 11.699 44.151 6.153 78.421-15.787 97.587-11.051 9.643-24.213 13.973-37.662 14.485-1.681 0.064-3.362 0.068-5.047 0.017zM951.701 833.92c5.35-0.085 9.643-1.557 12.314-3.883 5.342-4.663 12.279-18.714 2.449-55.228-53.065-235.716-99.311-476.629-144.512-678.374-3.115-13.517-7.475-18.445-10.688-20.791-3.217-2.355-6.882-3.174-12.305-2.807-10.611 0.725-22.869 7.339-23.415 7.637l-333.683 246.379c32.789 31.002 252.459 238.558 372.702 348.288 13.073 12.587 2.492 35.319-15.061 35.046-22.588-4.565-41.131-20.693-61.598-30.771-148.437-86.869-429.141-256.909-453.982-271.966-12.971 4.070-131.797 41.327-209.907 65.417-12.48 4.813-16.905 8.619-18.534 10.069 0.030 0.043 0.009-0.017 0.043 0.021 5.811 6.827 29.739 19.823 43.849 24.777 10.679 3.746 62.434 23.654 139.093 53.193 76.651 29.534 176.188 68.002 275.853 106.539 139.546 53.961 279.296 108.032 418.718 162.048 6.899 3.2 13.312 4.489 18.667 4.403zM427.917 284.117l83.435-61.611c-23.181-22.699-78.195-76.531-93.542-90.974l10.112 152.585z" />
<glyph unicode="&#xe904;" glyph-name="telegram2" d="M512 960c282.752 0 512-229.205 512-512 0-282.752-229.248-512-512-512-282.709 0-512 229.248-512 512 0 282.795 229.291 512 512 512zM649.557 197.504c8.021-5.675 18.347-7.083 27.563-3.627 9.173 3.499 15.957 11.392 18.005 20.949 21.632 101.632 74.112 358.912 93.781 451.328 1.493 6.997-0.981 14.251-6.443 18.901-5.504 4.651-13.099 5.973-19.84 3.499-104.363-38.656-425.771-159.232-557.141-207.829-8.32-3.115-13.739-11.093-13.483-19.925 0.299-8.789 6.229-16.427 14.763-18.987 58.923-17.621 136.235-42.155 136.235-42.155s36.139-109.141 54.955-164.608c2.389-6.997 7.851-12.459 15.019-14.336 7.211-1.877 14.848 0.085 20.224 5.163 30.251 28.544 77.013 72.704 77.013 72.704s88.917-65.152 139.349-101.077zM375.509 413.483c0 0 189.397 120.917 296.064 189.013 3.029 1.963 7.125 1.28 9.344-1.579s1.877-6.955-0.811-9.387c-92.075-82.987-253.483-228.608-253.483-228.608l-9.301-87.296-41.813 137.856z" />
<glyph unicode="&#xe906;" glyph-name="flipboard" d="M0 960v-1024h1024v1024h-1024zM819.2 550.4h-204.8v-204.8h-204.8v-204.8h-204.8v614.4h614.4v-204.8z" />
<glyph unicode="&#xe908;" glyph-name="vk" d="M561.579 149.589c25.984 0 36.608 17.323 36.309 39.040-1.323 81.792 30.464 125.824 87.851 68.437 63.488-63.488 76.629-107.477 153.728-107.477h136.533c34.475 0 48.043 11.093 48.043 28.501 0 36.821-60.629 101.803-112 149.504-71.936 66.773-75.307 68.352-13.355 148.736 76.843 99.797 177.365 227.669 88.448 227.669h-169.856c-32.939 0-35.328-18.56-47.061-46.208-42.453-100.139-123.136-229.845-153.771-210.005-32.043 20.693-17.365 102.656-14.933 224.469 0.64 32.171 0.469 54.229-48.683 65.664-26.837 6.187-52.949 8.747-77.184 8.747-96.981 0-163.883-40.661-125.867-47.744 67.029-12.501 60.587-157.525 44.971-220.16-27.221-109.056-129.536 86.357-172.16 183.68-10.283 23.381-13.44 41.557-50.133 41.557h-138.88c-20.992 0-33.579-6.827-33.579-22.016 0-25.685 126.293-286.72 246.869-416.853 117.589-126.933 233.813-115.541 314.709-115.541z" />
<glyph unicode="&#xe90a;" glyph-name="discord" horiz-adv-x="1045" d="M445.44 516.693c-24.32 0-43.52-21.333-43.52-47.36s19.627-47.36 43.52-47.36c24.32 0 43.52 21.333 43.52 47.36 0.427 26.027-19.2 47.36-43.52 47.36zM601.173 516.693c-24.32 0-43.52-21.333-43.52-47.36s19.627-47.36 43.52-47.36c24.32 0 43.52 21.333 43.52 47.36s-19.2 47.36-43.52 47.36zM808.533 874.667h-571.733c-48.213 0-87.467-39.253-87.467-87.893v-576.853c0-48.64 39.253-87.893 87.467-87.893h483.84l-22.613 78.933 54.613-50.773 51.627-47.787 91.733-81.067v765.44c0 48.64-39.253 87.893-87.467 87.893zM643.84 317.44s-15.36 18.347-28.16 34.56c55.893 15.787 77.227 50.773 77.227 50.773-17.493-11.52-34.133-19.627-49.067-25.173-21.333-8.96-41.813-14.933-61.867-18.347-40.96-7.68-78.507-5.547-110.507 0.427-24.32 4.693-45.227 11.52-62.72 18.347-9.813 3.84-20.48 8.533-31.147 14.507-1.28 0.853-2.56 1.28-3.84 2.133-0.853 0.427-1.28 0.853-1.707 1.28-7.68 4.267-11.947 7.253-11.947 7.253s20.48-34.133 74.667-50.347c-12.8-16.213-28.587-35.413-28.587-35.413-94.293 2.987-130.133 64.853-130.133 64.853 0 137.387 61.44 248.747 61.44 248.747 61.44 46.080 119.893 44.8 119.893 44.8l4.267-5.12c-76.8-22.187-112.213-55.893-112.213-55.893s9.387 5.12 25.173 12.373c45.653 20.053 81.92 25.6 96.853 26.88 2.56 0.427 4.693 0.853 7.253 0.853 26.027 3.413 55.467 4.267 86.187 0.853 40.533-4.693 84.053-16.64 128.427-40.96 0 0-33.707 32-106.24 54.187l5.973 6.827s58.453 1.28 119.893-44.8c0 0 61.44-111.36 61.44-248.747 0 0-36.267-61.867-130.56-64.853z" />
<glyph unicode="&#xe90c;" glyph-name="tik-tok" d="M929.469 735.070c-107.484 0-194.93 87.445-194.93 194.93 0 16.57-13.43 30-30 30h-160.672c-16.563 0-30-13.43-30-30v-658.734c0-63.188-51.414-114.594-114.602-114.594s-114.594 51.406-114.594 114.594c0 63.195 51.406 114.602 114.594 114.602 16.57 0 30 13.43 30 30v160.672c0 16.563-13.43 30-30 30-184.867 0-335.266-150.406-335.266-335.273s150.398-335.266 335.266-335.266c184.867 0 335.273 150.398 335.273 335.266v291.586c59.703-31.836 126.148-48.453 194.93-48.453 16.57 0 30 13.43 30 30v160.672c0 16.563-13.43 30-30 30z" />
<glyph unicode="&#xe90e;" glyph-name="twitch" horiz-adv-x="878" d="M182.857 960l-182.857-182.857v-658.286h219.429v-182.857l182.857 182.857h146.286l329.143 329.143v512h-694.857zM804.571 484.571l-146.286-146.286h-146.286l-128-128v128h-164.571v548.571h585.143v-402.286zM621.714 758.857h73.143v-219.429h-73.143v219.429zM420.571 758.857h73.143v-219.429h-73.143v219.429z" />
<glyph unicode="&#xe910;" glyph-name="youtube3" horiz-adv-x="1027" d="M1015.759 652.83c0 0-10.006 70.565-40.707 101.639-38.939 40.786-82.586 40.987-102.602 43.375-143.294 10.358-358.243 10.358-358.243 10.358h-0.445c0 0-214.944 0-358.243-10.359-20.017-2.387-63.649-2.589-102.602-43.375-30.702-31.073-40.692-101.638-40.692-101.638s-10.241-82.866-10.241-165.732v-77.687c0-82.865 10.241-165.73 10.241-165.73s9.991-70.566 40.692-101.64c38.953-40.786 90.121-39.495 112.91-43.77 81.922-7.856 348.158-10.287 348.158-10.287s215.17 0.324 358.464 10.682c20.016 2.388 63.663 2.589 102.602 43.375 30.702 31.074 40.707 101.64 40.707 101.64s10.225 82.866 10.225 165.73v77.687c0 82.867-10.225 165.732-10.225 165.732zM408.269 315.27l-0.047 287.717 276.69-144.36-276.642-143.357z" />
<glyph unicode="&#xe918;" glyph-name="map-pin-1-circle" horiz-adv-x="704" d="M352-64l24 25.6c12.8 14.4 323.2 358.4 323.2 651.2 0 192-156.8 347.2-347.2 347.2s-347.2-155.2-347.2-347.2c0-292.8 310.4-636.8 323.2-651.2l24-25.6zM352 897.6c156.8 0 283.2-128 283.2-283.2 0-224-212.8-496-283.2-582.4-72 86.4-283.2 358.4-283.2 582.4 0 155.2 126.4 283.2 283.2 283.2zM510.4 612.8c0 86.4-70.4 158.4-158.4 158.4s-158.4-70.4-158.4-158.4 70.4-158.4 158.4-158.4 158.4 72 158.4 158.4zM352 518.4c-52.8 0-94.4 43.2-94.4 94.4s43.2 94.4 94.4 94.4 94.4-43.2 94.4-94.4-41.6-94.4-94.4-94.4z" />
<glyph unicode="&#xe9b8;" glyph-name="world-map-3" d="M512 960c-281.6 0-512-230.4-512-512s230.4-512 512-512 512 230.4 512 512-230.4 512-512 512zM873.6 712c-16-11.2-30.4-28.8-44.8-46.4-8-9.6-17.6-20.8-27.2-30.4-28.8-30.4-67.2-46.4-116.8-48-9.6 0-40-1.6-54.4-24-12.8-22.4-3.2-44.8 3.2-59.2 1.6-3.2 3.2-8 4.8-12.8 1.6-3.2 1.6-4.8 1.6-8 9.6-32 24-49.6 80-65.6-9.6-16-36.8-44.8-49.6-56l-8-8c-30.4-30.4-27.2-70.4-25.6-94.4 0-3.2 0-6.4 0-9.6-1.6-1.6-3.2-1.6-4.8-3.2-20.8-9.6-57.6-28.8-60.8-84.8-1.6-27.2-11.2-33.6-28.8-33.6-16 12.8-40 72-36.8 88 4.8 17.6 17.6 73.6-28.8 100.8-12.8 6.4-16 9.6-32 49.6-24 65.6-78.4 48-105.6 38.4-11.2-3.2-24-8-33.6-8-1.6 0-9.6 6.4-17.6 22.4-11.2 27.2-12.8 73.6 19.2 118.4 41.6 57.6 86.4 65.6 147.2 25.6 36.8-24 81.6-28.8 118.4-9.6 44.8 22.4 67.2 65.6 67.2 118.4 0 59.2-46.4 72-72 80-24 6.4-24 8-24 16 0 24 16 33.6 83.2 59.2 20.8 8 43.2 17.6 68.8 28.8 70.4-32 132.8-81.6 177.6-144zM512 0c-246.4 0-448 201.6-448 448s201.6 448 448 448c30.4 0 60.8-3.2 91.2-9.6-67.2-25.6-123.2-48-123.2-118.4 0-57.6 46.4-70.4 70.4-76.8 25.6-8 25.6-9.6 25.6-19.2 0-28.8-9.6-51.2-25.6-59.2-14.4-8-35.2-6.4-52.8 6.4-89.6 59.2-172.8 44.8-235.2-41.6-51.2-72-43.2-148.8-20.8-192 16-32 43.2-49.6 70.4-49.6 0 0 1.6 0 1.6 0 19.2 0 38.4 6.4 52.8 11.2 6.4 1.6 16 4.8 22.4 6.4 0-1.6 1.6-3.2 3.2-6.4 17.6-49.6 30.4-65.6 59.2-83.2 3.2-1.6 3.2-14.4-1.6-30.4-8-35.2 16-102.4 44.8-137.6 16-19.2 33.6-30.4 51.2-30.4 56 0 91.2 33.6 96 94.4 1.6 19.2 9.6 24 25.6 32 8 3.2 16 8 22.4 12.8 20.8 16 19.2 43.2 17.6 62.4-1.6 20.8-1.6 35.2 6.4 43.2l8 6.4c35.2 35.2 80 80 68.8 121.6-3.2 14.4-14.4 32-44.8 40s-35.2 12.8-35.2 14.4c0 1.6-1.6 4.8-3.2 8s-1.6 6.4-3.2 11.2c-1.6 3.2-3.2 8-4.8 11.2 62.4 3.2 113.6 25.6 152 67.2 11.2 11.2 20.8 22.4 28.8 33.6 11.2 12.8 20.8 25.6 30.4 33.6 30.4-62.4 49.6-134.4 49.6-209.6 0-246.4-201.6-448-448-448z" />
<glyph unicode="&#xeb8f;" glyph-name="phone" d="M774.4-64c-192 0-393.6 174.4-497.6 276.8-102.4 104-276.8 307.2-276.8 497.6 0 155.2 134.4 240 188.8 248 4.8 0 11.2 1.6 16 1.6 51.2 0 78.4-38.4 91.2-59.2l1.6-4.8c11.2-16 56-84.8 84.8-129.6 11.2-17.6 20.8-32 24-36.8 20.8-33.6 32-99.2-27.2-147.2l-6.4-4.8c-24-19.2-38.4-32-38.4-51.2-1.6-24 14.4-70.4 100.8-155.2 83.2-83.2 128-100.8 152-100.8 22.4 0 35.2 14.4 54.4 38.4l4.8 6.4c30.4 36.8 64 44.8 88 44.8 30.4 0 51.2-12.8 59.2-17.6 6.4-3.2 20.8-12.8 38.4-25.6 44.8-28.8 112-73.6 128-83.2l4.8-3.2c22.4-14.4 67.2-44.8 57.6-107.2-8-52.8-92.8-187.2-248-187.2zM203.2 896c-1.6 0-4.8 0-6.4 0-22.4-3.2-132.8-62.4-132.8-185.6s94.4-288 259.2-452.8c163.2-163.2 329.6-257.6 451.2-257.6s180.8 110.4 184 132.8c3.2 19.2-6.4 28.8-30.4 44.8l-4.8 3.2c-14.4 9.6-81.6 54.4-126.4 83.2-19.2 12.8-33.6 22.4-40 25.6-4.8 3.2-14.4 6.4-24 6.4-14.4 0-27.2-6.4-38.4-20.8l-4.8-6.4c-19.2-25.6-49.6-64-104-64s-116.8 38.4-198.4 118.4c-84.8 84.8-121.6 148.8-118.4 204.8 3.2 49.6 38.4 78.4 62.4 97.6l6.4 4.8c35.2 28.8 16 59.2 14.4 62.4-3.2 4.8-12.8 19.2-24 36.8-27.2 43.2-73.6 113.6-84.8 128l-3.2 4.8c-11.2 22.4-20.8 33.6-36.8 33.6z" />
<glyph unicode="&#xebcb;" glyph-name="bag-2" horiz-adv-x="832" d="M416 960c-105.6 0-192-86.4-192-192v-64h-190.4l-35.2-768h835.2l-35.2 768h-190.4v64c0 105.6-86.4 192-192 192zM288 768c0 70.4 57.6 128 128 128s128-57.6 128-128v-64h-256v64zM737.6 640l28.8-640h-700.8l28.8 640h129.6v-96c0-17.6 14.4-32 32-32s32 14.4 32 32v96h256v-96c0-17.6 14.4-32 32-32s32 14.4 32 32v96h129.6z" />
<glyph unicode="&#xec7b;" glyph-name="cart-remove" d="M32 832h70.4l153.6-616c3.2-14.4 16-24 30.4-24h512c14.4 0 25.6 9.6 30.4 22.4l48 144c88 49.6 147.2 142.4 147.2 249.6 0 158.4-129.6 288-288 288-147.2 0-270.4-112-286.4-256h-232l-59.2 232c-3.2 14.4-16 24-30.4 24h-96c-17.6 0-32-14.4-32-32s14.4-32 32-32zM736 832c123.2 0 224-100.8 224-224s-100.8-224-224-224-224 100.8-224 224 100.8 224 224 224zM449.6 576c16-144 137.6-256 286.4-256 22.4 0 43.2 3.2 65.6 8l-24-72h-464l-80 320h216zM224 96c0-52.8 43.2-96 96-96s96 43.2 96 96-43.2 96-96 96-96-43.2-96-96zM320 128c17.6 0 32-14.4 32-32s-14.4-32-32-32-32 14.4-32 32 14.4 32 32 32zM640 96c0-52.8 43.2-96 96-96s96 43.2 96 96-43.2 96-96 96-96-43.2-96-96zM736 128c17.6 0 32-14.4 32-32s-14.4-32-32-32-32 14.4-32 32 14.4 32 32 32zM617.6 489.6c6.4-6.4 14.4-9.6 22.4-9.6s16 3.2 22.4 9.6l73.6 73.6 73.6-73.6c6.4-6.4 14.4-9.6 22.4-9.6s16 3.2 22.4 9.6c12.8 12.8 12.8 32 0 44.8l-73.6 73.6 73.6 73.6c12.8 12.8 12.8 32 0 44.8s-32 12.8-44.8 0l-73.6-73.6-73.6 73.6c-12.8 12.8-32 12.8-44.8 0s-12.8-32 0-44.8l73.6-73.6-73.6-73.6c-12.8-12.8-12.8-32 0-44.8z" />
<glyph unicode="&#xee5d;" glyph-name="link-4" d="M568 273.6c-59.2 0-118.4 22.4-163.2 67.2-11.2 11.2-20.8 22.4-28.8 35.2-9.6 14.4-6.4 35.2 9.6 44.8 14.4 9.6 35.2 6.4 44.8-9.6 6.4-9.6 12.8-17.6 20.8-25.6 65.6-65.6 171.2-65.6 235.2 0l225.6 225.6c64 65.6 64 171.2-1.6 236.8-64 64-169.6 64-235.2-1.6l-140.8-140.8c-12.8-12.8-32-12.8-44.8 0s-12.8 32 0 44.8l140.8 140.8c89.6 89.6 236.8 89.6 326.4 0s89.6-236.8 0-326.4l-225.6-224c-44.8-44.8-104-67.2-163.2-67.2zM230.4-64c-62.4 0-120 24-163.2 67.2-89.6 89.6-89.6 236.8 0 326.4l225.6 225.6c89.6 89.6 236.8 89.6 326.4 0 11.2-11.2 20.8-22.4 28.8-35.2 9.6-14.4 6.4-35.2-9.6-44.8-14.4-9.6-35.2-6.4-44.8 9.6-6.4 9.6-12.8 17.6-20.8 25.6-65.6 65.6-171.2 65.6-235.2 0l-224-225.6c-65.6-65.6-65.6-171.2 0-235.2 32-32 73.6-49.6 118.4-49.6s86.4 17.6 118.4 49.6l140.8 140.8c12.8 12.8 32 12.8 44.8 0s12.8-32 0-44.8l-140.8-140.8c-44.8-44.8-102.4-68.8-164.8-68.8z" />
<glyph unicode="&#xeeb0;" glyph-name="zoom" d="M1014.4-9.6l-332.8 332.8c57.6 67.2 91.2 155.2 91.2 249.6 0 214.4-172.8 387.2-385.6 387.2s-387.2-172.8-387.2-387.2 172.8-387.2 387.2-387.2c94.4 0 182.4 35.2 249.6 91.2l332.8-332.8c6.4-4.8 14.4-8 22.4-8s16 3.2 22.4 9.6c12.8 12.8 12.8 32 0 44.8zM64 572.8c0 177.6 144 323.2 323.2 323.2s323.2-144 323.2-323.2-144-323.2-323.2-323.2-323.2 145.6-323.2 323.2z" />
<glyph unicode="&#xf129;" glyph-name="angle-down" horiz-adv-x="448" d="M224 286.4l-216 252.8c-11.2 12.8-9.6 33.6 3.2 44.8s33.6 9.6 44.8-3.2l168-195.2 168 195.2c11.2 12.8 32 14.4 44.8 3.2s14.4-32 3.2-44.8l-216-252.8z" />
<glyph unicode="&#xf12a;" glyph-name="angle-left" horiz-adv-x="304" d="M272 224c-8 0-14.4 3.2-20.8 8l-252.8 216 252.8 216c12.8 11.2 33.6 9.6 44.8-3.2s9.6-33.6-3.2-44.8l-195.2-168 195.2-168c12.8-11.2 14.4-32 3.2-44.8-6.4-8-14.4-11.2-24-11.2z" />
<glyph unicode="&#xf12b;" glyph-name="angle-right" horiz-adv-x="304" d="M32 224c-9.6 0-17.6 3.2-24 11.2-11.2 12.8-9.6 33.6 3.2 44.8l195.2 168-195.2 168c-12.8 11.2-14.4 32-3.2 44.8s32 14.4 44.8 3.2l252.8-216-252.8-216c-6.4-4.8-12.8-8-20.8-8z" />
<glyph unicode="&#xf12c;" glyph-name="angle-up" horiz-adv-x="448" d="M416 304c-9.6 0-17.6 3.2-24 11.2l-168 195.2-168-195.2c-11.2-12.8-32-14.4-44.8-3.2s-14.4 32-3.2 44.8l216 252.8 216-252.8c11.2-12.8 9.6-33.6-3.2-44.8-6.4-4.8-12.8-8-20.8-8z" />
<glyph unicode="&#xf155;" glyph-name="close-circle" d="M512-64c-136 0-265.6 52.8-361.6 150.4-97.6 96-150.4 225.6-150.4 361.6s52.8 265.6 150.4 361.6c96 97.6 225.6 150.4 361.6 150.4s265.6-52.8 361.6-150.4c200-200 200-524.8 0-724.8-96-96-225.6-148.8-361.6-148.8zM512 896c-120 0-232-46.4-316.8-131.2s-131.2-196.8-131.2-316.8 46.4-232 131.2-316.8c84.8-84.8 196.8-131.2 316.8-131.2s232 46.4 316.8 131.2c174.4 174.4 174.4 459.2 0 633.6-84.8 84.8-196.8 131.2-316.8 131.2zM556.8 448l158.4 158.4c12.8 12.8 12.8 32 0 44.8s-32 12.8-44.8 0l-158.4-158.4-158.4 158.4c-12.8 12.8-32 12.8-44.8 0s-12.8-32 0-44.8l158.4-158.4-158.4-158.4c-12.8-12.8-12.8-32 0-44.8 6.4-6.4 14.4-9.6 22.4-9.6s16 3.2 22.4 9.6l158.4 158.4 158.4-158.4c6.4-6.4 14.4-9.6 22.4-9.6s16 3.2 22.4 9.6c12.8 12.8 12.8 32 0 44.8l-158.4 158.4z" />
<glyph unicode="&#xf18f;" glyph-name="minus-circle" d="M512-64c-281.6 0-512 230.4-512 512s230.4 512 512 512 512-230.4 512-512-230.4-512-512-512zM512 896c-246.4 0-448-201.6-448-448s201.6-448 448-448 448 201.6 448 448-201.6 448-448 448zM768 416h-512c-17.6 0-32 14.4-32 32s14.4 32 32 32h512c17.6 0 32-14.4 32-32s-14.4-32-32-32z" />
<glyph unicode="&#xf19b;" glyph-name="plus-circle" d="M512-64c-281.6 0-512 230.4-512 512s230.4 512 512 512 512-230.4 512-512-230.4-512-512-512zM512 896c-246.4 0-448-201.6-448-448s201.6-448 448-448 448 201.6 448 448-201.6 448-448 448zM768 480h-224v224c0 17.6-14.4 32-32 32s-32-14.4-32-32v-224h-224c-17.6 0-32-14.4-32-32s14.4-32 32-32h224v-224c0-17.6 14.4-32 32-32s32 14.4 32 32v224h224c17.6 0 32 14.4 32 32s-14.4 32-32 32z" />
<glyph unicode="&#xf1a0;" glyph-name="question-circle" d="M512-64c-281.6 0-512 230.4-512 512s230.4 512 512 512 512-230.4 512-512-230.4-512-512-512zM512 896c-246.4 0-448-201.6-448-448s201.6-448 448-448 448 201.6 448 448-201.6 448-448 448zM512 288c-17.6 0-32 14.4-32 32v12.8c0 38.4 4.8 73.6 68.8 137.6 52.8 52.8 59.2 81.6 59.2 105.6 0 1.6-1.6 96-96 96-91.2 0-112-68.8-112-96 0-17.6-14.4-32-32-32s-32 14.4-32 32c0 62.4 48 160 176 160 116.8 0 160-97.6 160-160 0-51.2-24-96-78.4-150.4-49.6-49.6-49.6-70.4-49.6-92.8v-12.8c0-17.6-14.4-32-32-32zM512 160c-12.8 0-25.6 4.8-33.6 14.4-9.6 8-14.4 20.8-14.4 33.6s4.8 25.6 14.4 33.6c17.6 17.6 49.6 17.6 67.2 0 9.6-9.6 14.4-20.8 14.4-33.6s-4.8-25.6-14.4-33.6c-8-9.6-20.8-14.4-33.6-14.4z" />
<glyph unicode="&#xf1a9;" glyph-name="search" horiz-adv-x="800" d="M790.4 102.4l-249.6 251.2c41.6 51.2 67.2 118.4 67.2 190.4 0 168-136 304-304 304s-304-136-304-304 136-304 304-304c72 0 139.2 25.6 190.4 67.2l249.6-249.6c8-6.4 16-9.6 24-9.6s16 3.2 22.4 9.6c12.8 12.8 12.8 32 0 44.8zM64 544c0 132.8 107.2 240 240 240s240-107.2 240-240-107.2-240-240-240-240 107.2-240 240z" />
<glyph unicode="&#xf1cb;" glyph-name="dribbble" d="M947.001 523.762c-5.852 28.683-14.648 56.932-26.028 83.917-11.18 26.497-25.052 52.001-41.164 75.843-15.985 23.643-34.318 45.86-54.512 66.035-20.175 20.212-42.41 38.563-66.035 54.512-23.842 16.166-49.382 29.983-75.843 41.2-26.985 11.361-55.216 20.175-83.917 25.991-29.387 6.033-59.659 9.103-89.896 9.103-30.272 0-60.508-3.071-89.932-9.103-28.683-5.816-56.932-14.648-83.899-25.991-26.461-11.217-52.001-25.052-75.879-41.2-23.643-15.949-45.86-34.282-66.035-54.512-20.194-20.175-38.509-42.41-54.476-66.035-16.13-23.842-29.983-49.346-41.164-75.843-11.433-26.985-20.194-55.234-26.064-83.917-6.015-29.351-9.067-59.623-9.067-89.877 0-30.308 3.053-60.581 9.067-89.95 5.87-28.683 14.648-56.932 26.046-83.899 11.18-26.461 25.052-52.037 41.164-75.879 15.967-23.643 34.282-45.824 54.476-66.035 20.175-20.175 42.41-38.491 66.035-54.476 23.878-16.13 49.418-29.983 75.879-41.164 26.949-11.433 55.216-20.139 83.899-26.028 29.423-6.069 59.659-9.103 89.932-9.103 30.236 0 60.508 3.034 89.896 9.103 28.719 5.888 56.932 14.612 83.917 26.028 26.461 11.18 52.001 25.052 75.843 41.164 23.643 15.985 45.86 34.282 66.035 54.476 20.175 20.212 38.527 42.41 54.512 66.035 16.13 23.842 29.983 49.418 41.164 75.879 11.397 26.949 20.175 55.216 26.028 83.899 6.033 29.387 9.067 59.659 9.067 89.95 0.018 30.254-3.016 60.526-9.049 89.877zM890.755 437.659c-5.509 1.192-134.545 28.972-265.568 12.499-2.673 6.52-5.401 13.095-8.218 19.688-7.929 18.658-16.473 37.154-25.359 55.306 150.603 61.448 211.743 149.862 212.448 150.91 53.482-64.916 85.832-147.893 86.699-238.403zM761.43 720.044c-0.957-1.481-55.252-84.134-199.172-138.085-65.186 119.77-136.803 214.904-142.529 222.454 28.827 6.99 58.883 10.765 89.859 10.765 96.56 0 184.65-35.98 251.841-95.134zM418.248 804.105c0-0.036-0.072-0.072-0.072-0.072s-0.415-0.108-1.12-0.253c0.379 0.108 0.813 0.181 1.192 0.325zM346.884 778.746c5.075-6.809 75.608-102.413 141.608-219.709-183.096-48.641-341.99-46.745-352.068-46.564 24.781 118.109 104.129 216.042 210.461 266.273zM128.278 433.884c0 4.064 0.181 8.038 0.325 12.047 6.719-0.144 195.144-4.425 391.462 54.331 10.928-21.386 21.386-43.114 30.941-64.825-5.039-1.409-10.061-2.926-15.028-4.552-205.783-66.505-310.164-251.679-310.164-251.679s0.144-0.108 0.144-0.181c-60.707 67.571-97.68 156.888-97.68 254.858zM509.589 52.537c-92.28 0-176.919 32.801-242.882 87.385 5.003-4.064 8.543-6.665 8.543-6.665s73.098 159.417 299.218 238.204c0.849 0.325 1.698 0.56 2.547 0.813 53.663-139.422 75.807-256.194 81.46-289.519-45.77-19.471-96.073-30.218-148.887-30.218zM722.668 117.579c-3.883 23.029-24.203 134.943-74.218 272.378 123.076 19.688 229.769-14.070 237.626-16.653-16.978-106.242-77.794-197.889-163.409-255.725z" />
<glyph unicode="&#xf1cc;" glyph-name="twitter" d="M976.84 679.142c-32.72-14.535-67.908-24.342-104.853-28.742 37.703 22.578 66.639 58.35 80.274 101-35.277-20.929-74.33-36.124-115.923-44.317-33.292 35.48-80.742 57.653-133.243 57.653-100.816 0-182.553-81.739-182.553-182.555 0-14.305 1.613-28.231 4.727-41.592-151.721 7.602-286.244 80.274-376.281 190.73-15.709-26.952-24.713-58.307-24.713-91.776 0-63.331 32.227-119.203 81.209-151.95-29.916 0.961-58.077 9.163-82.683 22.843-0.016-0.759-0.016-1.526-0.016-2.312 0-88.433 62.927-162.215 146.446-178.998-15.32-4.163-31.45-6.403-48.101-6.403-11.775 0-23.205 1.138-34.352 3.28 23.241-72.522 90.656-125.306 170.525-126.779-62.477-48.967-141.183-78.15-226.722-78.15-14.728 0-29.254 0.874-43.541 2.549 80.803-51.804 176.749-82.020 279.839-82.020 335.791 0 519.395 278.174 519.395 519.413 0 7.902-0.159 15.795-0.511 23.618 35.657 25.735 66.621 57.889 91.077 94.509z" />
<glyph unicode="&#xf1cd;" glyph-name="flickr" d="M462.392 447.991c0-107.625-87.248-194.873-194.873-194.873s-194.873 87.248-194.873 194.873c0 107.625 87.248 194.873 194.873 194.873s194.873-87.248 194.873-194.873zM951.354 447.991c0-107.625-87.248-194.873-194.873-194.873s-194.873 87.248-194.873 194.873c0 107.625 87.248 194.873 194.873 194.873s194.873-87.248 194.873-194.873z" />
<glyph unicode="&#xf1cf;" glyph-name="facebook" d="M730.255 567.346h-138.085v90.564c0 34.011 22.542 41.94 38.418 41.94 15.841 0 97.446 0 97.446 0v149.519l-134.202 0.524c-148.977 0-182.88-111.516-182.88-182.88v-99.667h-86.157v-154.071h86.157c0-197.727 0-435.967 0-435.967h181.218c0 0 0 240.588 0 435.967h122.281l15.804 154.071z" />
<glyph unicode="&#xf1d0;" glyph-name="skype" d="M930.149 331.707c6.394 29.333 9.736 59.659 9.736 90.835 0 233.689-189.436 423.143-423.161 423.143-24.655 0-48.822-2.149-72.393-6.177-37.786 23.842-82.562 37.696-130.535 37.696-135.557 0-245.429-109.89-245.429-245.465 0-45.282 12.336-87.674 33.722-124.105-5.635-27.473-8.561-55.957-8.561-85.091 0-233.743 189.436-423.197 423.179-423.197 26.497 0 52.344 2.438 77.469 7.080 34.571-18.55 74.055-29.098 116.032-29.098 135.539 0 245.393 109.872 245.393 245.411 0.018 39.159-9.158 76.114-25.45 108.969zM733.759 220.299c-19.543-27.689-48.479-49.653-85.976-65.223-37.118-15.425-81.605-23.264-132.215-23.264-60.779 0-111.769 10.711-151.524 31.808-28.448 15.335-51.875 36.106-69.684 61.845-17.954 25.883-27.057 51.604-27.057 76.439 0 15.479 5.924 28.936 17.629 39.936 11.596 10.91 26.443 16.437 44.18 16.437 14.54 0 27.093-4.335 37.28-12.933 9.736-8.291 18.062-20.519 24.799-36.287 7.514-17.213 15.66-31.717 24.312-43.078 8.327-11.018 20.248-20.248 35.492-27.473 15.353-7.243 36.052-10.946 61.448-10.946 35.005 0 63.705 7.46 85.272 22.198 21.097 14.378 31.284 31.663 31.284 52.796 0 16.708-5.328 29.803-16.292 40.152-11.578 10.783-26.732 19.11-45.192 24.908-19.218 5.979-45.336 12.481-77.613 19.254-43.963 9.392-81.244 20.555-110.92 33.144-30.381 12.933-54.837 30.85-72.718 53.211-18.153 22.776-27.382 51.242-27.382 84.802 0 31.97 9.663 60.815 28.737 85.633 18.911 24.691 46.564 43.909 82.147 57.022 35.095 12.987 76.873 19.579 124.178 19.579 37.786 0 70.984-4.407 98.746-12.987 27.906-8.67 51.405-20.41 69.883-34.842 18.586-14.558 32.458-30.074 41.164-46.257 8.742-16.292 13.185-32.548 13.185-48.244 0-15.136-5.816-28.881-17.358-40.893-11.614-12.029-26.208-18.134-43.458-18.134-15.66 0-27.942 3.847-36.45 11.325-7.911 7.062-16.13 17.972-25.251 33.668-10.548 20.013-23.318 35.835-37.967 46.98-14.251 10.855-38.021 16.292-70.695 16.292-30.308 0-54.999-6.069-73.314-18.116-17.647-11.542-26.244-24.817-26.244-40.55 0-9.663 2.782-17.683 8.507-24.619 5.997-7.387 14.504-13.781 25.197-19.182 11.108-5.617 22.614-10.043 34.083-13.185 11.74-3.287 31.464-8.11 58.522-14.359 34.246-7.369 65.764-15.588 93.562-24.51 28.213-9.031 52.525-20.103 72.429-33.054 20.248-13.185 36.305-30.11 47.702-50.375 11.433-20.32 17.213-45.39 17.213-74.543 0-34.788-9.988-66.613-29.64-94.375z" />
<glyph unicode="&#xf1d1;" glyph-name="digg" d="M206.162 702.541v-118.416h-134.491v-271.095h221.858v389.511h-87.367zM206.162 385.875h-45.571v123.22h45.553v-123.22zM475.686 583.006v-271.041h134.545v-42.41h-136.063v-76.096h223.411v389.547h-221.894zM610.231 386.923h-45.607v123.256h45.607v-123.256zM743.693 583.006v-271.041h134.437v-42.41h-136.026v-76.096h223.447v389.547h-221.858zM878.13 386.923h-45.463v123.256h45.481v-123.256zM338.594 584.65h90.492v-272.685h-90.492v272.685zM338.594 697.737h90.492v-73.965h-90.492v73.965z" />
<glyph unicode="&#xf1d2;" glyph-name="google" d="M938.884 517.819c-139.39 0.069-278.781 0.034-418.169 0.018 0.018-57.815-0.069-115.63 0.034-173.427 80.725 0.018 161.45 0.034 242.158 0-9.354-55.402-42.28-106.066-88.97-137.255-29.351-19.735-63.073-32.544-97.839-38.635-34.99-5.971-71.145-6.735-106.048 0.331-35.494 7.082-69.375 21.87-98.931 42.715-47.261 33.203-83.329 81.783-101.848 136.457-18.936 55.609-19.075 117.487 0.087 173.044 13.295 39.157 35.425 75.328 64.496 104.764 35.859 36.709 82.479 62.952 132.707 73.713 43.009 9.181 88.361 7.429 130.47-5.31 35.79-10.866 68.784-30.478 95.808-56.287 27.319 27.164 54.499 54.482 81.767 81.697 14.302 14.648 29.333 28.655 43.183 43.703-41.413 38.324-89.958 69.131-143.001 88.605-95.496 35.145-203.193 35.891-299.33 2.617-108.34-37.090-200.59-118.11-251.738-220.514-17.807-35.286-30.808-72.949-38.619-111.689-19.648-96.518-5.953-199.427 38.566-287.337 28.934-57.38 70.415-108.39 120.732-148.38 47.471-37.854 102.802-65.816 161.468-81.42 74.026-19.856 152.823-19.404 227.336-2.447 67.343 15.499 131.058 47.678 181.93 94.645 53.771 49.414 92.127 114.519 112.435 184.482 22.148 76.316 25.202 157.788 11.316 235.91z" />
<glyph unicode="&#xf1d3;" glyph-name="html52" d="M295.425 783.009h36.594v-40.080h40.026v119.698h-40.026v-39.556h-36.594v39.556h-40.008v-119.698h40.008zM424.642 742.929h40.008v79.979h35.203v39.719h-110.414v-39.719h35.203zM556.532 802.227l27.563-42.536h0.668l27.509 42.536v-59.298h39.863v119.698h-41.724l-25.648-42.121-25.648 42.121h-41.706v-119.698h39.123zM768.312 782.467h-56.264v80.16h-40.008v-119.698h96.271zM197.763 690.404l57.221-641.786 256.862-71.291 257.061 71.255 57.329 641.822h-628.474zM702.096 480.521h-301.223l7.189-80.612h286.882l-21.584-241.726-161.476-44.74-161.259 44.74-11.253 126.435h79.004l5.852-65.584 87.782-23.661 87.764 23.698 9.139 102.088h-272.811l-21.259 238.042h394.28l-7.026-78.679z" />
<glyph unicode="&#xf1d4;" glyph-name="linkedin" d="M543.148 470.496v1.391c-0.289-0.47-0.596-0.939-0.903-1.391h0.903zM889.834 875.704h-760.78c-36.413 0-65.945-28.827-65.945-64.356v-769.684c0-35.51 29.532-64.338 65.945-64.338h760.78c36.468 0 65.999 28.845 65.999 64.338v769.684c0 35.546-29.55 64.356-65.999 64.356zM333.699 123.648h-134.834v405.659h134.834v-405.659zM266.291 584.722h-0.903c-45.228 0-74.488 31.157-74.488 70.081 0 39.791 30.164 70.081 76.277 70.081 46.131 0 74.507-30.29 75.41-70.081 0-38.924-29.297-70.081-76.295-70.081zM819.915 123.648h-134.834v217.071c0 54.512-19.507 91.72-68.293 91.72-37.244 0-59.425-25.088-69.196-49.328-3.558-8.652-4.425-20.753-4.425-32.891v-226.554h-134.834c0 0 1.77 367.638 0 405.659h134.834v-57.42c17.918 27.635 49.96 66.993 121.541 66.993 88.703 0 155.227-57.998 155.227-182.609v-232.641z" />
<glyph unicode="&#xf1d5;" glyph-name="lastfm" d="M813.72 479.275c-7.767 2.547-15.281 4.895-22.505 7.189-55.216 17.358-88.505 27.834-88.505 70.804 0 34.86 26.877 60.129 63.958 60.129 28.394 0 49.563-11.777 68.546-38.346 1.77-2.475 5.112-3.36 7.875-1.897l55.704 28.43c1.517 0.741 2.637 2.113 3.107 3.739 0.488 1.626 0.325 3.36-0.524 4.841-29.839 53.031-72.881 78.805-131.583 78.805-89.318 0-147.080-54.042-147.080-137.67 0-85.506 55.848-120.114 158.857-154.016 59.696-19.905 86.084-30.453 86.084-72.917 0-47.738-43.042-82.057-101.817-80.052-61.556 2.077-80.214 34.716-103.677 88.162-39.683 90.528-84.838 196.21-85.272 197.239-45.336 104.58-135.177 164.51-246.531 164.51-147.099 0-266.779-119.698-266.779-266.851 0-147.080 119.68-266.779 266.779-266.779 80.232 0 155.443 35.564 206.306 97.608 1.481 1.806 1.842 4.227 0.921 6.394l-33.65 77.613c-0.957 2.149-3.107 3.594-5.473 3.703-2.438 0.108-4.624-1.228-5.708-3.323-31.753-60.671-93.978-98.349-162.433-98.349-100.95 0-183.060 82.129-183.060 183.133s82.129 183.133 183.078 183.133c73.495 0 140.831-43.62 167.581-108.698l83.176-189.725 9.591-21.313c37.605-87.602 92.858-126.851 179.394-127.176 102.9 0 180.477 68.185 180.477 158.568 0 90.817-50.195 124.846-136.839 153.113z" />
<glyph unicode="&#xf1d6;" glyph-name="vimeo" d="M65.060 545.039l36.305-47.612c0 0 74.886 59.009 99.848 29.514 24.962-29.514 120.222-385.754 152.029-451.501 27.762-57.655 104.345-133.895 188.316-79.419 83.917 54.439 363.014 292.698 412.956 574.035 49.924 281.301-335.848 222.4-376.669-22.686 102.088 61.321 156.617-24.926 104.363-122.534-52.182-97.518-99.83-161.133-124.774-161.133-24.908 0-44.090 65.241-72.628 179.321-29.532 117.946-29.333 330.376-152.011 306.299-115.706-22.704-267.736-204.283-267.736-204.283z" />
<glyph unicode="&#xf1d7;" glyph-name="yahoo" d="M785.76 510.793c4.967 0.993 12.355 2.637 20.699 4.443h64.627l10.061 14.865c0.217 0.108 0.596 0.144 0.813 0.144l25.016 36.124c-0.361 0-0.957 0.072-1.228 0.072l2.619 3.919h-350.298l13.474-55.108h95.603l-160.862-145.202c-32.837 45.336-109.782 139.801-163.445 217.993h120.421v41.94l1.373 9.248c-0.361 0.072-1.030 0.181-1.373 0.181v3.775h-399.409v-55.144h118.452c45.968-35.944 221.804-255.49 229.101-277.399 2.926-20.501 5.617-141.535-2.998-150.675-17.286-18.279-96.127-13.438-115.146-14.775l-6.575-37.497c34.734-1.030 147.767 2.818 182.898 2.818 69.25 0 190.538 0.325 207.643-0.993l2.113 39.339c-17.502 2.962-112.961 0.361-126.146 3.36-2.926 19.056-6.141 146.466-3.215 159.634 13.185 38.039 213.802 193.013 235.784 198.937zM843.902 209.624l53.663-4.263 62.513 241.473c-10.44 0.361-105.303 9.32-117.621 11.704l1.445-248.915zM834.618 170.917l0.325-58.937 27.147-2.366 29.351-2.186 8.616 57.709-30.941 1.517z" />
<glyph unicode="&#xf1d8;" glyph-name="tumblr" d="M551.023 866.293v-205.566h205.53v-158.731h-205.53v-227.927c0-51.568-0.632-81.316 4.805-95.928 5.437-14.54 19.056-29.64 33.867-38.346 19.724-11.813 42.121-17.701 67.444-17.701 45.011 0 89.787 14.612 134.31 43.855v-140.163c-37.931-17.882-72.357-30.489-103.153-37.642-30.832-7.153-64.103-10.837-99.902-10.837-40.64 0-64.627 5.148-95.82 15.353-31.248 10.332-57.889 25.016-79.907 43.891-22.126 19.019-37.353 39.231-45.878 60.599-8.543 21.422-12.806 52.453-12.806 93.093v311.753h-120.764v125.912c34.914 11.325 75.392 27.581 100.245 48.75 24.962 21.241 44.939 46.637 59.966 76.349 15.136 29.64 25.504 67.444 31.193 113.268h126.399z" />
<glyph unicode="&#xf1d9;" glyph-name="apple" d="M754.584 408.796c-1.12 112.564 91.792 166.551 95.946 169.279-52.218 76.349-133.57 86.825-162.524 88.017-69.178 7.026-135.051-40.748-170.146-40.748-35.023 0-89.245 39.719-146.611 38.707-75.464-1.12-145.021-43.891-183.855-111.444-78.372-135.954-20.049-337.438 56.318-447.78 37.335-53.934 81.858-114.623 140.271-112.401 56.3 2.222 77.541 36.413 145.599 36.413s87.168-36.413 146.719-35.275c60.544 1.102 98.927 54.963 135.954 109.114 42.862 62.658 60.508 123.329 61.556 126.399-1.319 0.614-118.018 45.318-119.229 179.719zM642.689 739.117c30.977 37.605 51.965 89.859 46.257 141.879-44.704-1.806-98.818-29.712-130.915-67.282-28.755-33.343-53.898-86.428-47.16-137.507 49.87-3.865 100.733 25.377 131.818 62.911z" />
<glyph unicode="&#xf1da;" glyph-name="windows" d="M437.079 442.348c-30.216 15.495-72.301 31.6-118.409 31.6-5.238 0-10.442-0.168-15.716-0.618-46.232-3.835-88.352-15.663-117.933-26.078-8.731-3.157-17.744-6.58-26.987-10.355l-81.104-281.152c61.277 24.703 110.807 34.582 152.417 34.582 68.598 0 116.172-26.495 161.061-56.383 16.651 56.444 73.218 249.562 83.962 286.338-12.156 7.541-24.362 15.107-37.291 22.066zM522.837 384.739l-80.855-280.712c-0.125 0.070 94.526-58.259 165.521-58.259 44.926 0 98.637 10.996 165.84 38.725l77.927 272.387c-59.124-21.185-110.065-29.132-153.121-29.132-93.715 0.002-150.706 37.351-175.312 56.991zM333.821 541.699c65.757-0.679 112.341-26.934 155.697-55.685 16.599 56.267 65.899 225.265 82.569 282.29v0.202c0 0-58.12 34.784-98.53 45.103-19.296 4.559-41.115 7.434-65.264 7.434-0.334 0-0.652 0-0.934 0-41.098-0.786-90.346-10.723-150.881-35.436l-79.889-280.509c62.195 25.365 112.642 36.601 155.045 36.601 0.759 0 1.465 0 2.187 0zM796.521 674.157c-88.829 0-147.406 37.8-173.318 57.952l-81.931-283.526c0.211-0.238 0.582-0.441 0.845-0.609 45.067-30.128 103.698-54.497 174.342-54.497 46.707 0 98.635 10.628 155.361 37.387 0 0.105 0 0.282 0 0.377 0.125 0 0.3 0.107 0.513 0.177l80.802 278.351c-59.672-26.053-111.936-35.613-156.614-35.613z" />
<glyph unicode="&#xf1db;" glyph-name="youtube" d="M793.129 450.465h-562.258c-89.372 0-161.819-72.52-161.819-161.873v-130.066c0-89.354 72.447-161.855 161.819-161.855h562.258c89.354 0 161.819 72.502 161.819 161.855v130.066c0 89.354-72.466 161.873-161.819 161.873zM348.998 349.209h-52.272v-259.734h-50.502v259.734h-52.236v44.18h155.010v-44.18zM496.656 89.474h-44.794v24.565c-8.327-9.085-16.906-16.021-25.865-20.699-8.959-4.877-17.611-7.153-26.028-7.153-10.404 0-18.134 3.305-23.427 10.025-5.202 6.701-7.857 16.635-7.857 30.055v187.431h44.794v-172.006c0-5.31 0.993-9.121 2.782-11.488 1.933-2.438 5.003-3.558 9.212-3.558 3.251 0 7.442 1.553 12.481 4.696 5.075 3.179 9.699 7.153 13.908 12.066v170.308h44.794v-224.242zM659.288 135.768c0-15.841-3.522-28.014-10.548-36.504-6.99-8.489-17.213-12.662-30.453-12.662-8.814 0-16.653 1.589-23.463 4.877-6.846 3.251-13.294 8.254-19.164 15.19v-17.177h-45.336v303.896h45.336v-97.879c6.069 6.773 12.481 12.029 19.182 15.552 6.846 3.594 13.727 5.328 20.699 5.328 14.179 0 24.98-4.732 32.458-14.287 7.514-9.555 11.253-23.553 11.253-41.904v-124.43zM814.677 196.186h-85.723v-42.247c0-11.777 1.445-19.977 4.371-24.547 2.998-4.588 8.038-6.828 15.208-6.828 7.442 0 12.589 1.933 15.588 5.798 2.89 3.901 4.443 12.391 4.443 25.576v10.205h46.113v-11.506c0-22.975-5.581-40.297-16.906-51.983-11.144-11.578-27.942-17.322-50.267-17.322-20.103 0-35.944 6.123-47.449 18.442-11.469 12.246-17.322 29.243-17.322 50.845v100.715c0 19.381 6.394 35.33 19.092 47.558 12.662 12.228 28.972 18.333 49.039 18.333 20.537 0 36.305-5.653 47.305-16.997 11-11.361 16.509-27.617 16.509-48.876v-57.167zM748.967 280.031c-7.153 0-12.246-2.005-15.353-6.195-3.179-3.938-4.66-10.675-4.66-20.085v-22.668h39.61v22.668c0 9.41-1.589 16.166-4.732 20.085-3.016 4.172-8.056 6.195-14.865 6.195zM594.409 280.789c-3.179 0-6.394-0.704-9.483-2.167-3.143-1.427-6.213-3.793-9.248-6.864v-139.675c3.594-3.612 7.153-6.394 10.621-7.983 3.45-1.535 7.026-2.402 10.837-2.402 5.509 0 9.519 1.589 12.102 4.805 2.547 3.179 3.847 8.254 3.847 15.425v115.797c0 7.622-1.517 13.33-4.696 17.249-3.287 3.865-7.947 5.816-13.98 5.816zM304.492 528.35h56.788v138.898l66.126 195.939h-57.727l-35.149-133.841h-3.576l-36.901 133.841h-57.203l67.643-202.188zM504.351 522.118c22.939 0 40.929 6.015 54.042 18.044 13.023 12.084 19.543 28.574 19.543 49.707v127.591c0 18.803-6.665 34.282-19.941 46.221-13.366 11.903-30.489 17.9-51.369 17.9-22.939 0-41.2-5.672-54.783-16.997-13.547-11.325-20.356-26.515-20.356-45.715v-128.025c0-21.006 6.629-37.624 19.868-50.086 13.24-12.409 30.941-18.64 52.994-18.64zM483.435 720.748c0 5.364 1.933 9.699 5.708 13.095 3.919 3.323 8.887 4.931 15.064 4.931 6.665 0 12.066-1.608 16.184-4.931 4.1-3.396 6.141-7.731 6.141-13.095v-134.581c0-6.593-2.005-11.831-6.069-15.606-4.028-3.793-9.447-5.653-16.256-5.653-6.665 0-11.813 1.806-15.425 5.599-3.558 3.703-5.364 8.905-5.364 15.678v134.563zM654.104 524.737c9.483 0 19.218 2.709 29.243 7.911 10.133 5.274 19.832 12.987 29.062 23.047v-27.364h50.448v247.001h-50.448v-187.486c-4.696-5.364-9.916-9.772-15.515-13.276-5.708-3.468-10.404-5.202-14.107-5.202-4.732 0-8.218 1.3-10.259 3.992-2.077 2.583-3.251 6.809-3.251 12.607v189.364h-50.375v-206.433c0-14.721 2.962-25.721 8.814-33.018 5.961-7.405 14.667-11.144 26.389-11.144z" />
<glyph unicode="&#xf1dc;" glyph-name="delicious" d="M938.259 867.034h-852.499c-10.277 0-18.586-8.327-18.586-18.586v-852.536c0-10.259 8.309-18.586 18.586-18.586h852.518c10.259 0 18.586 8.327 18.586 18.586v852.536c0 10.259-8.327 18.586-18.604 18.586zM512.045 14.498v407.664h-407.682v407.646h407.682v-407.646h407.628v-407.664h-407.628z" />
<glyph unicode="&#xf1dd;" glyph-name="rss" d="M61.917 398.537c111.805 0 216.909-43.674 295.895-123.112 79.13-79.438 122.696-185.246 122.696-297.882h172.295c0 327.161-265.081 593.307-590.887 593.307v-172.313zM62.188 703.986c398.47 0 722.668-325.968 722.668-726.66h172.295c0 495.717-401.505 898.955-894.964 898.955v-172.295zM300.447 97.693c0-65.891-53.446-119.337-119.337-119.337s-119.337 53.428-119.337 119.337c0 65.927 53.428 119.337 119.319 119.337s119.355-53.41 119.355-119.337z" />
<glyph unicode="&#xf1de;" glyph-name="picasa" d="M695.394 825.202c-58.070 26.353-119.734 39.899-183.44 39.899-53.031 0-105.122-10.259-155.299-29.026 11.795-10.693 323.548-293.691 338.738-307.491 0 20.446 0 290.332 0 296.617v0zM283.035 40.363c0 17.394 0 361.984 0 382.449-14.865-13.474-178.653-162.343-183.765-167.003 35.655-89.408 100.715-165.179 183.765-215.446v0zM67.227 420.229c0-38.129 5.726-77.017 16.184-115.526 11.993 10.964 386.477 351.237 394.207 358.282-7.478 6.773-163.228 148.128-168.322 152.788-149.32-76.656-242.070-227.782-242.070-395.544v0zM329.761 226.946c0-9.248 0-205.873 0-212.231 45.192-20.32 92.551-32.873 141.228-37.389h81.569c153.673 14.323 290.801 109.078 358.986 249.62-16.057 0-572.21 0-581.783 0v0zM742.284 799.698c0-17.647 0-516.434 0-525.899 9.103 0 182.248 0 189.274 0 16.545 47.449 25.215 96.669 25.215 146.43 0 154.63-82.165 298.929-214.489 379.469v0z" />
<glyph unicode="&#xf1df;" glyph-name="deviantart" d="M262.442 14.265h148.628l14.482 14.482 67.836 136.435 25.152 16.005h248.476v208.842h-134.908l-15.244 16.769 150.153 294.97v152.44h-146.342l-17.529-12.958-68.598-136.433-20.3-17.531h-251.805v-212.653h137.959l11.432-11.432-149.391-295.734z" />
<glyph unicode="&#xf1e0;" glyph-name="whatsapp2" d="M837.728 766.485c-84.011 84.107-195.731 130.445-314.763 130.494-245.258 0-444.872-199.598-444.968-444.931-0.034-78.426 20.455-154.974 59.396-222.452l-63.127-230.577 235.883 61.876c64.991-35.449 138.167-54.134 212.639-54.159h0.181c0.014 0-0.011 0 0.004 0 245.232 0 444.859 199.618 444.962 444.957 0.043 118.896-46.198 230.69-130.207 314.793zM522.967 81.883h-0.15c-66.361 0.025-131.451 17.856-188.235 51.551l-13.503 8.014-139.977-36.717 37.363 136.474-8.794 13.995c-37.020 58.883-56.573 126.941-56.544 196.822 0.079 203.911 165.992 369.805 369.99 369.805 98.782-0.031 191.642-38.552 261.468-108.458s108.258-162.827 108.218-261.647c-0.083-203.928-165.99-369.84-369.836-369.84zM725.831 358.872c-11.117 5.565-65.781 32.458-75.971 36.171-10.191 3.71-17.603 5.565-25.014-5.565-7.411-11.128-28.719-36.173-35.205-43.595-6.484-7.416-12.972-8.35-24.088-2.78-11.117 5.565-46.942 17.304-89.408 55.182-33.054 29.483-55.366 65.889-61.854 77.023-6.484 11.128-0.69 17.145 4.877 22.69 5.001 4.983 11.119 12.985 16.679 19.478 5.558 6.49 7.411 11.132 11.117 18.546 3.706 7.422 1.855 13.915-0.927 19.478-2.78 5.565-25.014 60.29-34.278 82.555-9.027 21.676-18.192 18.74-25.018 19.085-6.475 0.323-13.897 0.39-21.308 0.39s-19.458-2.783-29.647-13.912c-10.191-11.132-38.915-38.032-38.915-92.751 0-54.727 39.84-107.595 45.399-115.013 5.558-7.424 78.399-119.72 189.929-167.879 26.526-11.457 47.236-18.297 63.382-23.419 26.635-8.464 50.872-7.268 70.029-4.405 21.362 3.192 65.781 26.895 75.045 52.863 9.266 25.973 9.266 48.237 6.484 52.872-2.778 4.637-10.191 7.42-21.308 12.987z" />
<glyph unicode="&#xf1e1;" glyph-name="snapchat" d="M517.664 26.493c-2.314 0-4.586 0.067-6.86 0.173h-0.005c-1.449-0.112-2.964-0.173-4.479-0.173-53.179 0-87.313 24.127-120.318 47.464-22.791 16.104-44.296 31.305-69.637 35.527-12.365 2.046-24.673 3.087-36.567 3.087-21.427 0-38.332-3.307-50.672-5.72-7.499-1.468-13.969-2.729-18.886-2.729-5.137 0-10.704 1.111-13.122 9.376-2.102 7.162-3.623 14.096-5.086 20.806-3.77 17.267-6.446 27.886-13.682 28.997-84.345 13.028-108.485 30.792-113.868 43.398-0.762 1.803-1.196 3.609-1.299 5.397-0.273 4.842 3.157 9.118 7.942 9.9 129.658 21.351 187.8 153.868 190.213 159.496 0.065 0.155 0.137 0.305 0.208 0.461 7.937 16.081 9.49 30.041 4.635 41.483-8.897 20.97-37.916 30.186-57.127 36.28-4.7 1.487-9.156 2.894-12.671 4.281-38.332 15.154-41.521 30.709-40.015 38.637 2.568 13.509 20.622 22.923 35.221 22.923 4.004 0 7.528-0.71 10.492-2.093 17.244-8.077 32.783-12.172 46.192-12.172 18.528 0 26.615 7.787 27.604 8.807-0.471 8.775-1.055 17.941-1.651 27.397-3.862 61.299-8.646 137.468 10.747 180.945 58.124 130.326 181.382 140.45 217.774 140.45 0.932 0 15.954 0.159 15.954 0.159l2.155 0.009c36.477 0 160.004-10.144 218.161-140.54 19.399-43.501 14.6-119.734 10.731-180.987l-0.161-2.662c-0.536-8.531-1.053-16.82-1.487-24.756 0.927-0.946 8.365-8.106 25.162-8.751h0.018c12.765 0.489 27.435 4.559 43.534 12.1 4.72 2.202 9.959 2.668 13.527 2.668 5.448 0 10.973-1.055 15.559-2.969l0.278-0.114c13.023-4.615 21.554-13.744 21.736-23.28 0.17-8.981-6.687-22.484-40.32-35.77-3.486-1.369-7.942-2.785-12.66-4.281-19.229-6.101-48.239-15.31-57.131-36.274-4.861-11.437-3.304-25.388 4.629-41.478 0.070-0.155 0.15-0.305 0.211-0.471 2.413-5.623 60.505-138.102 190.218-159.477 4.79-0.789 8.209-5.061 7.946-9.909-0.108-1.817-0.551-3.647-1.326-5.426-5.35-12.515-29.472-30.256-113.844-43.293-6.893-1.058-9.564-10.041-13.677-28.874-1.496-6.855-3.011-13.588-5.095-20.669-1.797-6.145-5.626-9.020-12.067-9.020h-1.049c-4.47 0-10.826 0.8-18.88 2.381-14.284 2.794-30.299 5.368-50.675 5.368-11.899 0-24.211-1.040-36.585-3.087-25.312-4.221-46.805-19.393-69.552-35.474-33.070-23.389-67.199-47.516-120.394-47.516z" />
<glyph unicode="&#xf1e2;" glyph-name="blogger" d="M944.273 487.656l-7.333 15.172-12.282 9.591c-16.021 12.553-97.084-0.813-118.921 19.019-15.479 14.251-17.882 39.936-22.578 74.615-8.67 67.444-14.215 70.912-24.727 93.671-38.165 81.063-141.752 142.023-212.899 150.494h-192.76c-151.632 0-275.575-124.214-275.575-275.828v-321.742c0-151.343 123.943-275.304 275.575-275.304h316.703c151.632 0 274.816 123.961 275.665 275.304l1.698 222.851-2.565 12.156zM356.295 624.784h152.824c29.134 0 52.778-23.68 52.778-52.561 0-28.827-23.643-52.778-52.778-52.778h-152.824c-29.17 0-52.796 23.95-52.796 52.778 0 28.881 23.625 52.561 52.796 52.561zM666.82 204.187h-310.525c-29.17 0-52.796 23.987-52.796 52.489 0 28.936 23.625 52.489 52.796 52.489h310.525c28.99 0 52.489-23.571 52.489-52.489 0-28.502-23.499-52.489-52.489-52.489z" />
<glyph unicode="&#xf1e3;" glyph-name="wordpress" d="M64.843 429.784c0-175.962 102.286-328.19 250.667-400.186l-212.14 581.223c-24.709-55.343-38.527-116.519-38.527-181.037zM809.837 452.254c0 54.963-19.796 93.056-36.684 122.66-22.542 36.666-43.638 67.643-43.638 104.327 0 40.893 30.904 78.914 74.687 78.914 1.897 0 3.811-0.253 5.708-0.379-79.094 72.484-184.505 116.79-300.284 116.79-155.425 0-292.102-79.763-371.594-200.49 10.458-0.325 20.248-0.56 28.592-0.56 46.546 0 118.542 5.708 118.542 5.708 23.914 1.337 26.75-33.794 2.782-36.684 0 0-24.059-2.782-50.881-4.227l161.982-481.683 97.337 291.849-69.323 189.834c-23.95 1.445-46.637 4.227-46.637 4.227-23.987 1.445-21.133 38.021 2.854 36.684 0 0 73.405-5.708 117.079-5.708 46.492 0 118.596 5.708 118.596 5.708 23.878 1.337 26.732-33.794 2.745-36.684 0 0-24.023-2.782-50.863-4.227l160.754-478.016 44.379 148.164c22.542 57.817 33.867 105.682 33.867 143.793zM517.41 390.86l-133.462-387.777c39.827-11.704 81.912-18.062 125.659-18.062 51.748 0 101.455 8.959 147.677 25.251-1.192 1.897-2.294 3.883-3.179 6.069l-136.695 374.52zM899.822 643.207c1.969-14.215 3.071-29.387 3.071-45.788 0-45.101-8.471-95.82-33.867-159.29l-135.828-392.708c132.179 77.053 221.081 220.268 221.081 384.345 0.018 77.378-19.742 150.043-54.458 213.441z" />
<glyph unicode="&#xf1e4;" glyph-name="amazon" d="M823.185 142.812c-4.335 0.036-8.778-0.993-12.914-2.926-4.696-1.878-9.447-4.028-13.908-5.924l-6.629-2.745-8.616-3.414v-0.108c-93.345-37.858-191.387-60.039-282.113-61.989-3.323-0.108-6.665-0.108-9.952-0.108-142.655-0.072-259.066 66.108-376.561 131.312-4.118 2.149-8.254 3.287-12.391 3.287-5.31 0-10.711-1.969-14.648-5.672-3.956-3.703-6.304-9.103-6.268-14.576-0.018-7.135 3.829-13.655 9.158-17.882 110.252-95.712 231.070-184.65 393.539-184.722 3.179 0 6.394 0.072 9.663 0.144 103.334 2.33 220.268 37.226 310.977 94.23l0.524 0.361c11.885 7.098 23.77 15.172 34.968 24.131 6.99 5.184 11.777 13.222 11.704 21.62-0.217 14.883-12.878 24.98-26.533 24.98zM949.060 195.662v0.036c-0.361 9.103-2.294 15.985-6.069 21.729l-0.379 0.524-0.452 0.56c-3.847 4.19-7.514 5.78-11.542 7.55-11.885 4.588-29.207 7.026-50.086 7.098-14.992 0-31.573-1.409-48.154-5.039l-0.036 1.102-16.762-5.581-0.289-0.144-9.447-3.071v-0.415c-11.072-4.588-21.169-10.332-30.543-17.105-5.78-4.371-10.657-10.133-10.928-18.983-0.144-4.805 2.294-10.332 6.394-13.619 4.028-3.287 8.742-4.371 12.878-4.371 0.993 0 1.897 0.036 2.709 0.181l0.813 0.072 0.632 0.108c8.182 1.734 20.103 2.89 34.047 4.877 11.957 1.3 24.655 2.294 35.673 2.294 7.803 0.036 14.775-0.488 19.579-1.553 2.402-0.488 4.19-1.12 5.22-1.626 0.325-0.144 0.56-0.289 0.704-0.379 0.217-0.668 0.524-2.366 0.488-4.805 0.108-9.212-3.847-26.28-9.176-42.934-5.22-16.689-11.578-33.415-15.804-44.523-0.993-2.583-1.626-5.364-1.626-8.435-0.072-4.479 1.734-9.88 5.617-13.474 3.775-3.594 8.652-5.003 12.77-5.003h0.181c6.177 0.072 11.397 2.511 15.913 6.033 42.482 38.202 57.221 99.125 57.817 133.462l-0.144 5.437zM560.759 604.951c-24.98-1.878-53.771-3.775-82.58-7.586-44.126-5.816-88.306-13.438-124.756-30.76-71.021-28.791-119.030-90.221-119.030-180.423 0-113.304 72.935-170.886 165.107-170.886 30.688 0 55.704 3.883 78.661 9.591 36.504 11.542 67.209 32.638 103.713 71.093 21.097-28.827 26.877-42.302 63.326-72.989 9.591-3.811 19.182-3.811 26.84 1.897 23.065 19.218 63.398 53.807 84.495 72.953 9.627 7.694 7.694 19.218 1.897 28.755-21.061 26.913-42.229 49.96-42.229 101.817v172.765c0 72.953 5.78 140.163-47.973 190.014-44.126 40.279-113.25 55.668-167.003 55.668h-23.065c-97.861-5.672-201.556-47.937-224.585-168.918-3.847-15.389 7.694-21.097 15.389-22.993l107.47-13.438c11.578 1.897 17.286 11.542 19.218 21.061 9.591 42.266 44.126 63.398 82.508 67.246h7.731c23.029 0 47.973-9.627 61.411-28.827 15.353-23.029 13.438-53.771 13.438-80.648v-15.389zM539.662 376.555c-13.438-26.804-36.504-44.090-61.484-49.96-3.811 0-9.555-1.897-15.353-1.897-42.193 0-67.173 32.675-67.173 80.648 0 61.448 36.486 90.239 82.508 103.677 24.98 5.744 53.771 7.694 82.58 7.694v-23.065c0.018-44.144 1.915-78.679-21.079-117.097z" />
<glyph unicode="&#xf1e5;" glyph-name="appstore" d="M430.585 431.175l75.319 131.204c5.617 9.808 2.222 22.415-7.586 28.123l-53.591 30.652c-9.772 5.672-22.433 2.258-28.051-7.55l-248.12-432.12c-5.672-9.808-2.222-22.397 7.586-28.014l53.554-30.796c9.808-5.635 22.451-2.222 28.123 7.55l172.765 300.952zM935.586 470.569h-180.803c21.277-39.863 41.001-77.397 54.891-103.93 9.591-18.351 17.213-32.837 19.905-37.714 2.818-5.148 4.841-10.476 6.177-15.913h99.83c10.259 0 18.622 8.327 18.622 18.586v120.366c0 10.277-8.363 18.604-18.622 18.604zM496.096 470.569l-90.455-157.557h245.465c-17.809 35.167-41.417 85.47-73.134 157.557h-81.876zM291.65 470.569h-208.113c-10.277 0-18.604-8.327-18.604-18.586v-120.366c0-10.259 8.327-18.586 18.604-18.586h117.657l90.455 157.538zM212.213 99.102l-53.554 30.724c-9.808 5.635-18.875 1.030-20.175-10.187l-9.266-80.648c-1.282-11.217 5.31-15.244 14.667-8.887l69.178 47.16c9.356 6.322 8.959 16.184-0.849 21.837zM796.976 311.007c-0.325 0.524-0.704 1.264-1.102 2.005v0c-4.967 9.212-17.466 33.162-33.83 64.247-0.181 0.415-0.379 0.777-0.596 1.192-1.228 2.402-2.511 4.805-3.811 7.261-0.957 1.77-1.878 3.558-2.854 5.364-0.777 1.553-1.626 3.107-2.438 4.696-1.445 2.745-2.926 5.509-4.407 8.327-0.452 0.885-0.921 1.77-1.373 2.637-1.662 3.179-3.36 6.358-5.075 9.591-0.488 0.921-0.957 1.842-1.481 2.782-37.714 71.328-85.091 159.146-114.334 205.331-51.188 80.919-119.518 215.789-138.609 206.198-26.714-13.294 55.993-184.505 83.357-248.843 27.382-64.319 134.238-310.832 155.642-321.597 21.458-10.729 29.73-4.768 44.036 1.156 14.323 5.979 39.972 25.775 26.877 49.653zM858.045 183.976l-25.504 48.967c-5.78 11.072-19.363 15.588-30.2 10.061l-30.76-15.841c-10.837-5.617-14.251-18.73-7.586-29.315l32.277-50.972c6.665-10.512 20.735-13.962 31.193-7.658l21.946 13.185c10.494 6.286 14.378 20.501 8.634 31.573zM850.169 113.1c-8.038-7.694-27.129-24.42-4.028-56.86 23.029-32.53 74.507-33.975 81.316-55.559 0.018 0 16.166 165.125-77.288 112.419z" />
<glyph unicode="&#xf1e6;" glyph-name="paypal" d="M551.348 520.818c6.448 4.136 12.625 8.778 18.243 14.070 15.66 14.667 27.455 33.505 32.386 54.169 8.67 30.977-1.373 57.853-22.090 72.736-10.91 7.839-24.727 12.445-40.387 12.445h-90.907l-2.926-12.445-36.865-157.99h87.096c19.29 0.018 38.563 6.394 55.451 17.015zM497.306 612.863h42.193c2.186 0 3.486-0.361 4.136-0.596 0.144-0.921 0.253-3.034-0.777-6.629l-0.325-1.12-0.253-1.12c-4.732-19.616-27.274-38.183-46.384-38.183h-9.736l11.144 47.648zM903.146 637.319c-17.701 22.018-40.044 40.279-65.403 54.331-8.327 36.937-24.619 65.060-40.676 85.019-43.223 53.771-114.009 85.904-189.364 85.904h-365.47l-10.783-47.901-156.997-698.050h137.363l-14.468-64.446-16.87-74.868h311.753l10.584 48.154 34.86 158.225h83.249c161.332 0 287.478 99.234 321.345 252.78 21.729 98.638-9.284 163.662-39.123 200.852zM225.669 178.051h-74.47l140.199 623.164h316.305c58.522 0 123.076-26.497 154.685-82.616 10.873-19.327 17.845-42.193 19.29-68.727 1.030-18.442-0.596-38.743-5.473-60.815-11.072-50.357-34.156-92.37-65.548-125.135-47.973-50.141-115.67-78.155-191.098-79.275-1.589-0.036-3.143-0.181-4.696-0.181h-132.613l-45.444-206.415h-111.137zM882.302 449.707c-28.394-128.838-134.473-204.627-261.378-204.627h-132.613l-45.426-206.415h-185.607l17.538 77.956h111.39l10.621 48.19 34.824 158.225h83.249c161.332 0 287.442 99.234 321.308 252.744 2.854 13.023 4.768 25.414 5.924 37.298 36.251-34.752 56.679-88.595 40.17-163.373z" />
<glyph unicode="&#xf1e7;" glyph-name="myspace" d="M957.314 340.991h-890.629v214.001h99.18v-114.785h692.252v114.785h99.198z" />
<glyph unicode="&#xf1e8;" glyph-name="dropbox2" d="M63.85 346.68l263.654-172.042 184.505 153.872-265.857 164.077zM327.504 810.535l-263.654-171.97 182.302-145.979 265.857 164.095zM960.15 638.565l-263.654 171.97-184.487-153.854 265.821-164.095zM512.009 328.51l184.487-153.872 263.654 172.042-182.32 145.906zM512.551 295.42l-185.047-153.456-79.185 51.712v-57.998l264.232-158.351 264.214 158.351v57.998l-79.185-51.712z" />
<glyph unicode="&#xf1e9;" glyph-name="windows8" d="M68.004 122.601l358.282-51.893v342.784h-358.282v-290.892zM68.004 462.459h358.282v342.82l-358.282-51.893v-290.928zM475.252 63.609l480.743-69.63v419.513h-480.743v-349.883zM475.252 812.396v-349.937h480.743v419.531l-480.743-69.594z" />
<glyph unicode="&#xf1ea;" glyph-name="pinterest" d="M548.621 876.517c-245.393 0-369.137-175.926-369.137-322.663 0-88.83 33.632-167.852 105.754-197.275 11.831-4.877 22.433-0.181 25.865 12.914 2.384 9.031 8.038 31.898 10.548 41.453 3.45 12.951 2.113 17.466-7.442 28.791-20.79 24.51-34.101 56.264-34.101 101.275 0 130.517 97.662 247.362 254.298 247.362 138.7 0 214.904-84.748 214.904-197.907 0-148.941-65.909-274.636-163.734-274.636-54.042 0-94.465 44.668-81.533 99.487 15.515 65.439 45.589 136.026 45.589 183.295 0 42.266-22.704 77.523-69.648 77.523-55.234 0-99.613-57.149-99.613-133.678 0-48.75 16.473-81.731 16.473-81.731s-56.517-239.505-66.433-281.445c-19.724-83.538-2.962-185.914-1.535-196.246 0.831-6.141 8.706-7.622 12.282-2.998 5.075 6.665 70.894 87.873 93.237 169.044 6.34 22.957 36.323 141.951 36.323 141.951 17.954-34.246 70.406-64.338 126.182-64.338 166.010 0 278.664 151.343 278.664 353.929 0.018 153.222-129.741 295.895-326.944 295.895z" />
<glyph unicode="&#xf1eb;" glyph-name="soundcloud" d="M109.8 305.878c1.878 0 3.396 1.481 3.703 3.594l9.952 78.209-9.952 79.979c-0.307 2.113-1.842 3.558-3.721 3.558s-3.432-1.517-3.703-3.558c0-0.036-8.76-79.979-8.76-79.979l8.76-78.209c0.271-2.077 1.842-3.594 3.721-3.594zM80.431 339.076c0 0 0 0 0-0.036v0 0.036zM76.873 335.59c1.806 0 3.269 1.445 3.558 3.45l7.713 48.641-7.713 49.454c-0.271 2.041-1.752 3.486-3.558 3.486-1.86 0-3.323-1.481-3.576-3.522l-6.502-49.418 6.502-48.605c0.253-2.041 1.734-3.486 3.576-3.486zM149.248 482.544c-0.289 2.547-2.167 4.371-4.479 4.371-2.348 0-4.227-1.842-4.461-4.371 0-0.036-8.309-94.899-8.309-94.899l8.309-91.413c0.235-2.547 2.113-4.371 4.461-4.371 2.312 0 4.19 1.842 4.461 4.335l9.447 91.431-9.428 94.917zM180.062 288.249c2.709 0 4.949 2.186 5.202 5.112v0l8.923 94.303-8.923 97.464c-0.253 2.962-2.493 5.148-5.202 5.148-2.764 0-5.021-2.186-5.238-5.148l-7.875-97.464 7.875-94.303c0.217-2.926 2.456-5.112 5.238-5.112zM215.608 286.696c3.179 0 5.744 2.511 5.979 5.888v-0.036l8.417 95.116-8.417 90.455c-0.217 3.36-2.8 5.888-5.979 5.888-3.215 0-5.798-2.583-5.997-5.924l-7.405-90.419 7.405-95.079c0.199-3.396 2.764-5.888 5.997-5.888zM266.056 387.627l-7.893 147.117c-0.199 3.739-3.161 6.665-6.737 6.665-3.594 0-6.539-2.926-6.737-6.665l-6.954-147.117 6.954-95.116c0.199-3.703 3.143-6.629 6.737-6.629 3.576 0 6.539 2.926 6.737 6.665v-0.036l7.893 95.116zM287.55 285.702c4.010 0 7.315 3.287 7.514 7.442v-0.072l7.351 94.501-7.351 180.766c-0.199 4.19-3.486 7.442-7.514 7.442s-7.315-3.251-7.496-7.442l-6.502-180.766 6.502-94.465c0.181-4.118 3.486-7.405 7.496-7.405zM323.982 591.622c-4.497 0-8.11-3.594-8.272-8.218l-6.069-195.83 6.069-93.526c0.144-4.552 3.775-8.146 8.272-8.146 4.443 0 8.074 3.594 8.254 8.182v-0.072l6.846 93.562-6.846 195.83c-0.181 4.624-3.811 8.218-8.254 8.218zM360.666 285.702c4.913 0 8.869 3.956 9.031 8.959v-0.036l6.322 92.93-6.322 202.459c-0.163 5.039-4.118 8.959-9.031 8.959-4.895 0-8.869-3.919-9.031-8.959l-5.617-202.423 5.617-92.948c0.163-4.985 4.136-8.941 9.031-8.941zM397.675 285.811c5.328 0 9.627 4.299 9.772 9.736v-0.072l5.78 92.081-5.78 197.311c-0.144 5.437-4.443 9.699-9.772 9.699-5.364 0-9.663-4.263-9.79-9.699l-5.166-197.311 5.166-92.045c0.108-5.401 4.425-9.699 9.79-9.699zM450.76 387.555l-5.274 190.105c-0.144 5.852-4.786 10.476-10.548 10.476-5.798 0-10.422-4.624-10.548-10.512l-4.714-190.068 4.732-91.503c0.108-5.78 4.732-10.404 10.53-10.404 5.762 0 10.404 4.624 10.548 10.512v-0.108l5.274 91.503zM472.489 285.449c6.123 0 11.18 5.039 11.307 11.253v-0.072l4.75 90.871-4.75 226.193c-0.126 6.213-5.184 11.253-11.307 11.253-6.141 0-11.18-5.039-11.289-11.253l-4.263-226.139c0-0.181 4.263-90.907 4.263-90.907 0.108-6.141 5.148-11.199 11.289-11.199zM509.878 646.224c-6.557 0-11.957-5.419-12.066-12.047l-4.931-246.675 4.931-89.57c0.108-6.52 5.509-11.921 12.066-11.921s11.957 5.401 12.066 11.993v-0.072l5.364 89.57-5.364 246.693c-0.090 6.629-5.491 12.029-12.066 12.029zM544.106 285.377c0.289-0.036 301.621-0.181 303.571-0.181 60.508 0 109.529 49.039 109.529 109.529s-49.039 109.493-109.529 109.493c-14.992 0-29.315-3.034-42.338-8.471-8.742 98.71-91.467 176.106-192.435 176.106-24.727 0-48.804-4.877-70.063-13.113-8.291-3.197-10.476-6.466-10.548-12.878v-347.589c0.072-6.647 5.274-12.21 11.813-12.896z" />
<glyph unicode="&#xf1ec;" glyph-name="google-drive" d="M375.748 246.67h-5.021l-2.456-4.335-129.47-226.392h589.387l2.456 4.353 129.506 226.373h-14.883zM691.908 300.603l2.493-4.299h5.021l260.764 1.12-7.442 12.842-287.225 497.541-265.821-1.084 7.442-12.86zM487.3 551.379l-2.511 4.353-131.348 225.272-294.703-510.383 2.529-4.335 131.33-225.326 7.424 12.878 284.769 493.242z" />
<glyph unicode="&#xf1ed;" glyph-name="android" d="M632.556 805.243l9.88 14.793 9.699 14.594 21.837 32.747c2.673 4.028 1.589 9.447-2.402 12.138-4.064 2.691-9.483 1.608-12.174-2.438l-43.222-64.825c-31.645 12.264-66.92 19.146-104.183 19.146-37.226 0-72.502-6.882-104.147-19.146l-9.934 14.955-33.271 49.888c-2.673 4.028-8.11 5.112-12.156 2.438-4.010-2.673-5.094-8.11-2.42-12.138l41.435-62.134c-74.326-34.607-124.593-100.173-124.593-175.221h490.244c0 75.030-50.267 140.596-124.593 175.203zM406.977 700.067c-14.54 0-26.28 11.758-26.28 26.262s11.74 26.244 26.28 26.244c14.504 0 26.244-11.74 26.244-26.244s-11.74-26.262-26.244-26.262zM617.059 700.067c-14.504 0-26.244 11.758-26.244 26.262s11.74 26.244 26.244 26.244c14.54 0 26.28-11.74 26.28-26.244s-11.74-26.262-26.28-26.262zM270.68 594.999h-3.775v-385.212c0-30.579 24.854-55.451 55.433-55.451h40.026c-1.337-4.624-2.095-9.519-2.095-14.576v-110.92c0-28.99 23.535-52.525 52.543-52.525s52.525 23.535 52.525 52.525v110.92c0 5.039-0.777 9.952-2.077 14.576h97.536c-1.337-4.624-2.077-9.519-2.077-14.576v-110.92c0-28.99 23.535-52.525 52.525-52.525s52.525 23.535 52.525 52.525v110.92c0 5.039-0.741 9.952-2.077 14.576h40.008c30.579 0 55.451 24.872 55.451 55.451v385.212h-486.469zM179.34 594.999c-29.008 0-52.525-23.499-52.525-52.543v-224.676c0-28.99 23.517-52.525 52.525-52.525 28.99 0 52.525 23.535 52.525 52.525v224.694c0 29.026-23.517 52.525-52.525 52.525zM844.715 594.999c-29.026 0-52.525-23.499-52.525-52.543v-224.676c0-28.99 23.499-52.525 52.525-52.525 28.99 0 52.489 23.535 52.489 52.525v224.694c0 29.026-23.499 52.525-52.489 52.525z" />
<glyph unicode="&#xf1ee;" glyph-name="behance" d="M425.473 418.586c0 0 84.91 6.322 84.91 105.899 0 99.595-69.467 148.218-157.484 148.218h-289.627v-556.587h289.627c0 0 176.793-5.581 176.793 164.294-0.018 0 7.713 138.176-104.219 138.176zM190.881 573.776h162c0 0 39.376 0 39.376-57.889 0-57.925-23.174-66.324-49.418-66.324h-151.975v124.214zM344.699 215.043c-4.281-0.108-7.911 0-10.35 0h-143.468v148.724h162.018c0 0 58.684 0.777 58.684-76.403-0.018-65.132-43.837-71.833-66.884-72.321zM765.512 531.095c-214.037 0-213.856-213.856-213.856-213.856s-14.667-212.755 213.856-212.755c0 0 190.466-10.873 190.466 148.020h-97.969c0 0 3.251-59.858-89.245-59.858 0 0-97.933-6.52-97.933 96.868h288.399c-0.018 0 31.555 241.582-193.717 241.582zM669.728 363.767c0 0 11.957 85.795 97.933 85.795 86.012 0 84.874-85.795 84.874-85.795h-182.807zM645.778 639.92h229.589v-68.546h-229.589v68.546z" />
<glyph unicode="&#xf1ef;" glyph-name="instagram2" d="M509.291 658.399c-126.42 0-231.168-102.942-231.168-231.168s102.942-231.168 231.168-231.168 231.168 104.748 231.168 231.168-104.748 231.168-231.168 231.168zM509.291 279.139c-81.27 0-148.092 66.822-148.092 148.092s66.822 148.092 148.092 148.092 148.092-66.822 148.092-148.092-66.822-148.092-148.092-148.092zM801.862 663.817c0-28.925-23.449-52.374-52.374-52.374s-52.374 23.449-52.374 52.374c0 28.925 23.449 52.374 52.374 52.374s52.374-23.449 52.374-52.374zM884.938 799.266c-46.956 48.762-113.778 74.046-189.63 74.046h-372.035c-157.122 0-261.869-104.748-261.869-261.869v-370.229c0-77.658 25.284-144.48 75.852-193.242 48.762-46.956 113.778-70.434 187.824-70.434h368.423c77.658 0 142.674 25.284 189.63 70.434 48.762 46.956 74.046 113.778 74.046 191.436v372.035c0 75.852-25.284 140.868-72.24 187.824zM874.102 239.407c0-55.986-16.254-101.136-48.762-131.838s-77.658-46.956-131.838-46.956h-368.423c-54.18 0-99.33 16.254-131.838 46.956-32.508 32.508-48.762 77.658-48.762 133.644v370.229c0 54.18 16.254 99.33 48.762 131.838 30.702 30.702 77.658 46.956 131.838 46.956h372.035c54.18 0 99.33-16.254 131.838-48.762 30.702-32.508 48.762-77.658 48.762-130.032v-372.035z" />
<glyph unicode="&#xf1f0;" glyph-name="ebay" d="M732.133 349.648c0.11 30.885 1.017 58.462 0 77.915-1.19 22.554 0.948 76.992-96.568 81.014 0 0-93.49 8.52-103.197-61.061h47.814c0 0 3.712 31.88 52.229 30.96 45.914-0.867 54.279-23.387 54.042-51.080 0 0-39.352-0.112-52.485-0.177-23.053-0.116-102.192-2.624-113.44-49.366 1.403 7.256 2.227 14.955 2.377 23.116 1.259 68.476-51.121 106.663-107.615 106.975-56.486 0.316-80.785-33.448-80.785-33.448v112.974h-45.286l0.58-180.328c-1.689 32.844-16.574 100.783-110.871 100.801-112.34 0.020-116.703-87.432-116.131-110.132 0 0-5.504-102.243 113.384-102.243 102.153 0 107.183 64.153 107.183 64.153l-47-0.094c0 0-9.152-35.342-59.99-34.396-65.356 1.214-67.892 64.531-67.892 64.531h181.057c0 0 0.172 1.487 0.303 4.109l0.144-45.17c0 0-0.271-27.81-1.985-46.192h43.981l1.887 26.822c0 0 20.519-33.764 80.469-33.764 52.043 0 94.554 27.828 105.707 79.947-0.094-0.5-0.226-0.975-0.305-1.487-9.197-59.986 44.343-78.701 86.233-78.46 41.893 0.237 65.793 12.777 83.547 35.263l1.898-27.926 41.657 0.237c0.004 0-1.073 15.617-0.945 46.505zM109.992 420.769c0 0 3.217 57.259 67.834 57.277 64.383 0.016 64.383-57.277 64.383-57.277h-132.217zM404.922 326.096c-71.335-0.896-70.175 75.657-70.175 75.657s-2.597 73.687 70.061 75.581c72.652 1.895 70.289-77.153 70.289-77.153s1.158-73.186-70.175-74.086zM613.789 324.446c0 0-45.387-0.056-48.047 36.206-2.838 38.702 69.825 36.374 69.825 36.374l51.333 0.052c0 0 8.312-73.701-73.11-72.632zM913.743 500.375l-77.005-153.213-76.844 153.213h-52.536l104.293-197.232-40.232-75.896h50.8l139.017 273.127z" />
<glyph unicode="&#xf1f1;" glyph-name="google-plus" d="M355.228 494.239c-0.135-32.394 0-64.787 0.137-97.179 54.307-1.77 108.748-0.952 163.055-1.77-23.954-120.454-187.826-159.515-274.525-80.848-89.151 69.006-84.931 220.355 7.758 284.461 64.787 51.721 156.93 38.927 221.715-5.852 25.453 23.546 49.27 48.726 72.272 74.858-53.897 43.009-120.044 73.634-190.412 70.366-146.857 4.9-281.875-123.72-284.324-270.579-9.392-120.044 69.55-237.776 181.022-280.242 111.062-42.737 253.429-13.61 324.341 86.156 46.82 63.017 56.892 144.135 51.448 220.355-90.921 0.681-181.703 0.545-272.486 0.273zM886.313 494.647c-0.273 27.086-0.408 54.307-0.544 81.391-27.086 0-54.034 0-80.983 0-0.273-27.086-0.544-54.17-0.681-81.391-27.221-0.135-54.307-0.273-81.391-0.545 0-27.084 0-54.033 0-80.983 27.084-0.273 54.305-0.545 81.391-0.816 0.273-27.086 0.273-54.17 0.545-81.256 27.086 0 54.034 0 81.119 0 0.135 27.086 0.271 54.17 0.544 81.391 27.221 0.273 54.307 0.408 81.391 0.681 0 26.95 0 54.034 0 80.983-27.084 0.273-54.305 0.273-81.391 0.545z" />
<glyph unicode="&#xf1f2;" glyph-name="github" d="M954.094 435.877c0.184-0.022 0.388-0.042 0.571-0.042 1.427 0 2.733 1.040 2.998 2.509 0.305 1.653-0.797 3.244-2.447 3.569-41.749 7.689-72.296 16.195-175.353 15.337 6.425 23.761 9.891 51.866 10.584 85.152-0.163 90.25-43.36 122.167-51.661 137.159 12.237 68.324-2.039 99.427-8.668 110.094-24.474 8.71-85.151-22.395-118.293-44.319-54.048 15.806-168.262 14.278-211.093-4.078-79.031 56.598-120.843 47.93-120.843 47.93s-27.025-48.439-7.138-119.313c-26.004-33.142-45.379-56.598-45.379-118.763 0-35.019 4.12-66.366 13.42-93.736-41.362 0.101-128.056-5.466-168.663-15.501-1.631-0.408-2.63-2.081-2.243-3.712 0.347-1.387 1.611-2.325 2.978-2.325 0.244 0 0.489 0.022 0.733 0.081 40.976 10.137 130.564 15.644 169.396 15.317 2.223-5.896 4.712-11.605 7.465-17.132-99.835-2.652-126.75-16.908-168.663-27.371-3.038-0.775-6.017-1.51-8.912-2.223-1.631-0.406-2.652-2.079-2.243-3.71 0.347-1.387 1.589-2.325 2.978-2.325 0.244 0 0.489 0.020 0.733 0.081 2.895 0.733 5.874 1.468 8.934 2.243 42.036 10.503 69.317 24.843 170.355 27.268 29.694-53.925 86.966-87.475 183.557-96.756-13.787-10.462-30.348-30.328-32.631-53.293-17.336-11.218-52.193-14.909-79.298-6.365-37.976 11.993-52.518 87.19-109.379 76.483-12.32-2.325-9.873-10.444 0.773-17.336 17.336-11.217 33.653-25.249 46.237-55.128 9.667-22.944 29.981-63.94 94.227-63.94 25.493 0 43.36 3.060 43.36 3.060s0.495-58.558 0.495-81.32c0-26.248-35.427-33.653-35.427-46.277 0-4.996 11.728-5.466 21.151-5.466 18.62 0 57.373 15.543 57.373 42.831 0 21.68 0.347 94.574 0.347 107.322 0 27.881 14.95 36.711 14.95 36.711s1.857-148.825-3.569-168.771c-6.363-23.456-17.845-20.13-17.845-30.594 0-15.562 46.644-3.815 62.103 30.348 11.952 26.597 6.73 172.586 6.73 172.586l12.746 0.264c0 0 0.715-66.836 0.285-97.388-0.448-31.632-2.59-71.649 16.193-90.515 12.34-12.4 52.355-34.163 52.355-14.276 0 11.565-21.926 21.068-21.926 52.355 0 34.040 0 134.426 0 143.95 17.499 0 14.869-47.337 14.869-47.337l1.284-87.945c0 0-3.854-32.041 34.652-45.461 13.585-4.752 42.667-6.038 44.034 1.936 1.366 7.994-35.019 19.886-35.346 44.708-0.204 15.133 0.674 23.965 0.674 89.74 0 65.773-8.832 90.085-39.609 109.461 94.982 9.77 153.762 33.265 182.417 96.206 32.918-1.082 101.847-4.447 181.96-28.941 0.285-0.103 0.592-0.143 0.898-0.143 1.306 0 2.509 0.856 2.917 2.162 0.488 1.631-0.408 3.345-2.039 3.835-79.013 24.169-145.841 27.942-181.124 29.125 2.222 5.466 4.263 11.197 6.078 17.213 103.646 0.955 134.274-7.528 175.982-15.237zM234.505 335.819c-3.802 0-6.884 2.055-6.884 4.59s3.081 4.588 6.884 4.588c3.8 0 6.884-2.055 6.884-4.588s-3.083-4.59-6.884-4.59zM249.036 328.764c0 2.534 3.081 4.59 6.882 4.59s6.884-2.055 6.884-4.59-3.081-4.588-6.884-4.588c-3.8 0-6.882 2.054-6.882 4.588zM262.122 313.213c0 2.534 3.083 4.59 6.884 4.59s6.884-2.055 6.884-4.59c0-2.534-3.083-4.588-6.884-4.588s-6.884 2.054-6.884 4.588zM280.479 291.032c-3.802 0-6.885 2.055-6.885 4.59s3.083 4.59 6.885 4.59c3.8 0 6.884-2.055 6.884-4.59s-3.081-4.59-6.884-4.59zM293.567 274.462c-3.802 0-6.884 2.054-6.884 4.588s3.081 4.59 6.884 4.59c3.8 0 6.882-2.055 6.882-4.59s-3.081-4.588-6.882-4.588zM311.241 260.354c-3.8 0-6.882 2.055-6.882 4.59s3.081 4.588 6.882 4.588c3.802 0 6.884-2.055 6.884-4.588s-3.081-4.59-6.884-4.59zM335.971 251.176c-3.802 0-6.884 2.055-6.884 4.59s3.081 4.588 6.884 4.588c3.8 0 6.884-2.055 6.884-4.588s-3.081-4.59-6.884-4.59zM360.785 251.176c-3.802 0-6.884 2.055-6.884 4.59s3.081 4.588 6.884 4.588c3.8 0 6.882-2.055 6.882-4.588 0.002-2.534-3.080-4.59-6.882-4.59zM385.686 255.087c-3.8 0-6.884 2.054-6.884 4.588s3.083 4.588 6.884 4.588c3.802 0 6.885-2.054 6.885-4.588s-3.083-4.588-6.885-4.588zM580.645 352.774c-20.529-0.681-41.821-1.026-63.266-1.026-21.657 0-42.564 0.352-62.13 1.051-104.351 3.659-161.825 47.7-161.825 124.002 0 7.924 1.676 35.778 23.266 61.661 20.983 25.155 53.134 38.458 92.981 38.458 2.715 0 7.573-0.3 17.432-0.91 21.127-1.315 56.491-3.513 91.508-3.513 31.706 0 63.778 2.341 81.007 3.602 8.065 0.592 11.303 0.822 13.386 0.822 84.764 0 114.964-54.159 114.964-104.84 0.002-52.225-25.558-115.318-147.322-119.306zM213.771 286.784c16.424 0 0.278 25.475-0.002 37.391-0.074-11.598-16.422-37.391 0.002-37.391zM533.637 396.409c-1.691 0-3.060-1.371-3.060-3.060 0-6.741-7.922-14.276-18.525-14.276-1.53 0-3.002 0.168-4.409 0.471-3.52 0.757-6.629 2.348-9.172 4.219-0.509 0.374-0.995 0.76-1.458 1.152-1.387 1.176-2.558 2.413-3.481 3.593-1.537 1.963-2.386 3.762-2.386 4.841 0 1.689-1.369 3.060-3.060 3.060s-3.060-1.371-3.060-3.060c0-0.872 0.179-1.846 0.52-2.881 0.515-1.552 1.398-3.244 2.603-4.944s2.733-3.407 4.534-4.992c1.801-1.584 3.878-3.045 6.181-4.255 2.879-1.51 6.112-2.624 9.607-3.089 1.165-0.154 2.359-0.237 3.578-0.237 6.354 0 11.865 2.059 16.055 5.18 0.598 0.446 1.17 0.914 1.712 1.4 1.086 0.974 2.059 2.021 2.908 3.123 2.121 2.753 3.463 5.83 3.851 8.874 0.078 0.609 0.117 1.216 0.117 1.819 0.002 1.692-1.369 3.062-3.058 3.062zM502.973 412.784c0.757-1.122 1.725-2.090 2.847-2.847 0.421-0.284 0.863-0.538 1.324-0.76 0.921-0.444 1.916-0.759 2.964-0.918 0.524-0.079 1.060-0.121 1.606-0.121 2.182 0 4.21 0.663 5.892 1.801 0.701 0.473 1.342 1.028 1.909 1.653 0.789 0.869 1.369 1.906 1.835 3.004 0.536 1.264 0.901 2.621 0.901 4.082 0 5.82-4.718 10.539-10.537 10.539-2.91 0-5.543-1.179-7.451-3.089-0.083-0.083-0.144-0.186-0.226-0.273-0.542-0.58-1.002-1.226-1.403-1.916-0.562-0.968-1.011-2.009-1.243-3.139-0.141-0.686-0.213-1.396-0.213-2.124s0.074-1.438 0.213-2.124c0.278-1.373 0.825-2.646 1.582-3.768zM424.942 523.294c-2.157 2.653-4.488 5.003-6.965 7.006s-5.097 3.663-7.832 4.929-5.587 2.146-8.524 2.59c-1.468 0.222-2.959 0.336-4.467 0.336-24.124 0-43.68-29.143-43.68-65.094s19.556-61.016 43.68-61.016c1.508 0 2.998 0.098 4.467 0.291 2.937 0.385 5.787 1.147 8.524 2.26 2.735 1.113 5.355 2.574 7.832 4.36 2.475 1.785 4.806 3.892 6.965 6.295 2.157 2.402 4.14 5.099 5.921 8.063 6.231 10.373 9.974 24.019 9.974 39.748s-3.742 30.155-9.974 41.408c-1.779 3.217-3.764 6.172-5.921 8.825zM633.233 538.159c-24.124 0-43.68-29.143-43.68-65.094s19.554-61.016 43.68-61.016 43.68 25.065 43.68 61.016-19.554 65.094-43.68 65.094z" />
<glyph unicode="&#xf1f3;" glyph-name="stackoverflow" d="M391.506 632.008l299.416-176.597-37.715-63.945-299.416 176.597 37.715 63.945zM311.352 460.708l335.705-90.244-19.275-71.702-335.705 90.244 19.275 71.702zM278.089 305.358l346.165-31.877-6.809-73.942-346.165 31.877 6.809 73.942zM268.178 178.275h347.636v-74.254h-347.636v74.254zM674.87 44.81h-455.973v303.535h-59.385v-361.788h0.591c0-0.282 17.336-0.282 17.336-0.282l556.229 0.282c0.585 0 0.585 17.342 0.585 17.342v344.446h-59.383v-303.535zM702.948 465.453l-195.862 287.223 61.332 41.823 195.862-287.223-61.332-41.823zM718.12 854.358l73.159 12.697 59.444-342.517-73.159-12.697-59.444 342.517z" />
<glyph unicode="&#xf1f4;" glyph-name="spotify" d="M761.155 210.571c-102.36 61.341-221.309 91.962-354.77 91.962-77.929 0-152.954-9.804-228.286-26.969-18.396-3.519-33.178-16.261-33.178-41.904 0-19.917 15.447-38.332 38.61-38.332 7.507 0 20.078 3.865 30.063 6.036 61.435 12.784 127.118 21.145 192.38 21.145 116.978 0 227.19-28.103 315.594-81.582 9.217-5.614 15.956-9.033 25.816-9.033 20.058 0 37.934 16.146 37.934 38.138 0 22.563-8.93 31.636-24.162 40.537zM833.527 389.282c-121.419 72.662-275.86 112.425-435.514 112.425-101.907 0-171.916-14.524-240.482-33.352-25.363-7.151-37.936-25.007-37.936-50.941 0-26.441 21.413-47.816 47.643-47.816 11.121 0 17.789 3.519 29.68 6.784 55.178 14.706 121.831 25.511 199.069 25.511 150.579 0 288.088-39.119 387.306-97.996 8.984-5.229 17.318-10.572 30.552-10.572 26.508 0 47.538 21.337 47.538 47.749-0.002 21.72-7.499 36.524-27.856 48.208zM915.618 593.598c-137.643 80.841-326.071 117.681-505.167 117.681-105.503 0-202.548-11.935-289.492-37.549-22.162-6.546-42.701-25.153-42.701-58.303 0-32.534 24.96-58.27 57.494-58.27 11.217 0 22.413 4.438 31.275 6.67 76.947 20.876 160.949 29.284 243.654 29.284 165.69 0 337.010-36.455 447.404-102.647 11.641-6.372 19.012-9.391 31.43-9.391 30.803 0 57.534 23.894 57.534 57.14-0.002 29.033-12.882 44.881-31.43 55.386z" />
<glyph unicode="&#xf1f5;" glyph-name="stumbleupon" d="M551.755 519.384l60.411-28.139 90.047 26.871v62.501c-3.183 106.341-90.116 191.654-197.25 191.654-106.748 0-193.452-84.688-197.254-190.5v-285.489c0-25.836-20.95-46.794-46.79-46.794-25.843 0-46.796 20.958-46.796 46.794v120.993h-151.265c0 0 0-121.194 0-122.606 0-109.168 88.49-197.651 197.656-197.651 108.207 0 195.908 86.973 197.434 194.804l0.219 281.983c0 25.847 20.952 46.792 46.794 46.792 25.84 0 46.792-20.945 46.792-46.792v-54.421zM795.8 417.278v-126.639c0-25.843-20.95-46.796-46.794-46.796-25.842 0-46.794 20.952-46.794 46.796v124.219l-90.047-26.878-60.411 28.141v-123.211c0.946-108.337 89.086-195.888 197.658-195.888 109.161 0 197.656 88.483 197.656 197.651 0 1.412 0 122.606 0 122.606h-151.269z" />
<glyph unicode="&#xf1f6;" glyph-name="visa" d="M440.457 556.836l-58.736-274.504h71.010l58.722 274.504zM335.401 556.836l-73.903-186.834-29.902 158.857c-3.52 17.746-17.367 27.978-32.765 27.978h-120.827l-1.678-7.971c24.808-5.392 52.994-14.078 70.054-23.362 10.454-5.661 13.444-10.626 16.876-24.115l56.611-219.055h75.059l115.056 274.502h-74.581zM897.812 556.836h-60.638c-13.624 0-25.106-7.942-30.222-20.141l-106.533-254.361h74.53l14.831 40.989h91.084l8.583-40.989h65.692l-57.328 274.502zM810.21 379.598l37.387 103.072 21.521-103.072h-58.908zM604.616 480.777c0.231 9.828 9.604 20.289 30.124 22.966 10.156 1.342 38.216 2.372 70.004-12.28l12.49 58.2c-17.112 6.226-39.081 12.192-66.447 12.192-70.19 0-119.583-37.32-119.978-90.748-0.493-39.52 35.247-61.57 62.157-74.694 27.65-13.458 36.955-22.086 36.836-34.121-0.217-18.425-22.072-26.546-42.502-26.866-35.696-0.553-56.432 9.642-72.912 17.345l-12.878-60.147c16.577-7.628 47.195-14.264 78.966-14.585 74.595 0 123.385 36.836 123.63 93.916 0.302 72.433-100.177 76.437-99.49 108.823z" />
<glyph unicode="&#xf1f7;" glyph-name="mastercard" d="M245.006 398.464c0-6.916 4.1-11.345 10.498-11.345 11.926 0 20.522 11.354 21.028 27.81-3.067 0.358-4.423 0.457-6.535 0.457-16.59 0-24.991-5.686-24.991-16.922zM706.23 398.464c0-6.916 4.095-11.345 10.489-11.345 11.919 0 20.528 11.354 21.017 27.81-3.056 0.358-4.413 0.457-6.517 0.457-16.59 0-24.989-5.686-24.989-16.922zM487.271 453.773c-9.264 0-15.898-7.079-18.599-19.856h32.142c0.157 2.328 3.087 19.856-13.543 19.856zM878.505 450.379c-13.276 0-22.706-15.503-22.706-37.38 0-14.558 5.052-21.917 15.006-21.917 13.644 0 23.215 15.449 23.215 37.483 0 14.134-5.451 21.814-15.515 21.814zM690.514 706.035c-69.052 0-132.013-25.982-179.721-68.663-47.704 42.681-110.662 68.663-179.712 68.663-148.944 0-269.683-120.74-269.683-269.681 0-148.943 120.74-269.669 269.683-269.669 69.050 0 132.008 25.979 179.712 68.656 47.706-42.677 110.669-68.656 179.721-68.656 148.937 0 269.669 120.726 269.669 269.669 0 148.941-120.73 269.681-269.669 269.681zM175.164 365.38l16.776 105.145-37.448-105.145h-19.957l-2.464 104.535-17.631-104.535h-27.402l22.89 136.776h42.101l1.174-84.67 28.408 84.67h45.47l-22.646-136.776h-29.272zM273.572 365.38l0.553 11.52c-7.396-9.098-17.273-13.453-30.682-13.453-15.868 0-26.745 12.403-26.745 30.399 0 27.093 18.918 42.874 51.398 42.874 3.322 0 7.575-0.303 11.932-0.865 0.909 3.679 1.145 5.243 1.145 7.236 0 7.359-5.099 10.097-18.774 10.097-14.329 0.172-26.136-3.396-30.993-4.985 0.307 1.844 4.062 25.013 4.062 25.013 14.587 4.279 24.209 5.894 35.039 5.894 25.143 0 38.456-11.296 38.429-32.62 0.051-5.718-0.894-12.784-2.366-22.043-2.543-16.097-8-50.666-8.744-59.063-3.9-0.002-24.254-0.002-24.254-0.002zM359.291 431.618c14.667-6.734 20.638-15.698 20.638-30.989 0-25.419-14.267-37.181-45.165-37.181-17.874 0.517-23.81 1.848-30.462 3.304 0.181 1.158 4.017 25.672 4.017 25.672 9.376-3.022 17.5-4.378 26.237-4.378 11.587 0 16.812 3.13 16.812 10.062 0 5.052-1.835 6.701-13.688 12.277-15.474 7.301-22.3 16.98-22.3 31.067-0.101 20.551 11.233 37.656 43.985 37.656 6.696 0 18.187-0.979 25.771-2.176l-4.171-25.795c-7.442 1.048-15.295 1.685-21.035 1.685-9.465 0-14.329-3.092-14.329-9.107 0.004-5.198 1.414-6.446 13.688-12.096zM423.923 390.642c3.338 0 5.917 0.323 7.899 1.048l-3.887-24.621c-8.007-2.521-14.258-3.621-21.026-3.621-14.968 0-23.141 8.607-23.141 24.431-0.206 4.936 2.158 17.845 4.019 29.656 1.685 10.404 12.694 75.915 12.694 75.915h29.1l-3.405-16.836h14.941l-3.979-26.727h-14.992c-3.379-21.173-8.198-47.509-8.258-51.006 0.005-5.753 3.078-8.24 10.035-8.24zM491.749 388.61c10.413 0 19.809 2.155 30.269 7.017l-4.844-27.677c-10.001-3.063-19.657-4.512-29.869-4.503-32.582 0.025-49.554 17.047-49.554 49.628 0 38.037 21.601 66.034 50.912 66.034 24.014 0 39.334-15.673 39.334-40.273 0-8.155-1.064-16.113-3.578-27.35h-57.958c-1.967-16.142 8.368-22.876 25.289-22.876zM557.094 365.38h-29.291l1.331 7.481c5.086 34.454 11.603 69.323 15.282 103.753h26.886c0.256-5.646-1.040-11.175-1.748-16.872 8.955 13.169 15.815 20.098 28.069 17.542-3.62-6.147-8.498-18.337-11.128-32.261-16.408 1.66-18.92-11.618-29.4-79.643zM669.416 367.459c-10.78-2.937-17.755-4.012-25.87-4.012-31.522 0-51.158 22.666-51.158 59.058 0 48.9 27.144 83.072 65.94 83.072 12.784 0 27.884-5.415 32.18-7.106l-4.794-29.68c-10.454 5.256-18.030 7.384-26.152 7.384-21.857 0-37.19-21.126-37.19-51.255 0-20.761 10.304-33.305 27.326-33.305 7.207 0 15.174 2.231 24.863 7.017l-5.144-31.174zM759.044 365.38c-3.896 0-24.258 0-24.258 0l0.551 11.52c-7.4-9.098-17.273-13.453-30.673-13.453-15.882 0-26.745 12.403-26.745 30.399 0 27.093 18.902 42.874 51.391 42.874 3.322 0 7.566-0.303 11.919-0.865 0.907 3.679 1.149 5.243 1.149 7.236 0 7.359-5.086 10.097-18.77 10.097-14.316 0.172-26.12-3.396-30.989-4.985 0.309 1.844 4.062 25.013 4.062 25.013 14.592 4.279 24.205 5.894 35.035 5.894 25.137 0 38.463-11.296 38.431-32.62 0.058-5.718-0.89-12.784-2.364-22.043-2.538-16.099-7.989-50.668-8.738-59.065zM798.1 365.38h-29.284l1.333 7.481c5.094 34.454 11.603 69.323 15.266 103.753h26.902c0.242-5.646-1.048-11.175-1.765-16.872 8.973 13.169 15.822 20.098 28.085 17.542-3.631-6.147-8.498-18.337-11.112-32.261-16.433 1.66-18.954-11.618-29.425-79.643zM886.305 365.38l1.373 10.353c-8.032-8.581-16.265-12.286-26.992-12.286-21.277 0-35.351 18.339-35.351 46.163 0 37 21.825 68.19 47.635 68.19 11.354 0 19.953-4.637 27.96-15.174l6.493 39.529h28.874l-22.3-136.776h-27.693z" />
<glyph unicode="&#xf1f8;" glyph-name="amex" d="M922.583 288.641h-48.39v-22.574h48.589c16.122 0 28.031 4.53 34.143 13.465 3.555 5.141 5.31 11.721 5.31 19.756 0 9.203-1.756 14.901-5.31 19.7-0.704 0.899-1.315 1.804-2.335 2.605-5.599 5.773-14.786 8.135-28.545 8.478l-13.635 0.365c-4.189 0-7.041 0.267-9.694 1.19-3.262 1.172-5.504 3.869-5.504 7.844 0 3.34 1.022 5.87 3.677 7.575 2.565 1.73 5.607 1.9 10.182 1.9h45.856v532.468h-895.124v-377.82l30.466 69.792h65.609l8.453-17.338v17.338h76.932l16.829-37.916 16.388 37.916h244.248c11.103 0 21.088-2.070 28.415-8.571v8.571h66.857v-8.571c11.515 6.307 25.768 8.571 41.986 8.571h96.878l8.988-17.338v17.338h71.721l9.788-17.338v17.338h69.899v-146.804h-70.629l-13.348 22.209v-22.209h-88.134l-9.575 23.38h-21.7l-9.788-23.38h-45.733c-17.948 0-31.587 4.237-40.356 8.935v-8.935h-108.716v33.314c0 4.702-0.833 4.965-3.679 5.065h-4.068l0.098-38.379h-210.199v18.142l-7.55-18.216h-43.907l-7.55 17.95v-17.874h-84.583l-9.667 23.38h-21.7l-9.692-23.38h-42.986v-443.532h895.124v269.116c-10.079-4.871-23.331-6.772-36.896-6.772h-65.192v9.4c-7.554-6.062-21.192-9.401-34.242-9.401h-205.517v33.95c0 4.16-0.412 4.333-4.577 4.333h-3.264v-38.29h-67.656v39.648c-11.325-4.893-24.16-5.332-35.042-5.164h-8.065v-34.558l-82.024 0.076-20.168 22.836-21.406-22.836h-133.070v146.903h135.622l19.458-22.484 20.775 22.484h90.79c10.498 0 27.716-1.096 35.462-8.598v8.598h81.123c7.62 0 24.137-1.537 33.924-8.598v8.598h122.987v-8.598c6.114 5.868 19.043 8.598 30.055 8.598h68.871v-8.598c7.227 5.231 17.435 8.598 31.488 8.598h46.563v-20.947h-50.115c-26.403 0-36.097-16.072-36.097-31.345 0-33.316 29.472-31.786 53.094-32.586 4.384 0 7.041-0.732 8.865-2.337 1.851-1.465 3.076-3.894 3.076-6.965 0-2.87-1.225-5.238-2.977-6.864-2.021-1.976-5.383-2.61-10.182-2.61zM662.566 343.004c0 12.011-4.994 18.581-12.934 23.378-8.26 4.409-17.537 4.969-30.272 4.969h-58.086v-105.285h25.282v38.454h26.887c9.179 0 14.782-0.903 18.46-4.676 4.676-4.893 4.068-14.275 4.068-20.605v-13.175h25.256v20.869c-0.098 9.282-0.612 14.079-4.167 19.22-2.146 3.065-6.725 6.772-12.324 8.84 6.62 2.632 17.827 11.208 17.831 28.011zM629.54 328.098c-3.369-1.996-7.528-2.171-12.425-2.171h-30.563v23.647h30.978c4.479 0 8.964-0.096 12.010-1.9 3.26-1.705 5.207-4.967 5.207-9.468 0-4.508-1.947-8.135-5.207-10.108zM507.060 371.351h-80.393l-32.003-34.51-30.955 34.51h-101.192v-105.285h99.66l32.194 34.853 30.978-34.853h48.903v35.313h31.392c21.994 0 43.815 6.036 43.815 35.286 0 29.156-22.435 34.685-42.401 34.685zM349.442 288.009h-61.859v20.947h55.234v21.48h-55.234v19.142h63.077l27.52-30.682-28.737-30.886zM449.198 275.645l-38.628 42.885 38.628 41.521v-84.406zM506.769 322.766h-32.516v26.81h32.806c9.083 0 15.387-3.703 15.387-12.907 0-9.111-6.013-13.902-15.678-13.902zM659.611 529.964h23.849v22.554h-24.36c-17.336 0-30.074-3.874-38.205-12.275-10.816-11.276-13.565-25.547-13.565-41.157 0-19.142 4.6-31.246 13.444-40.185 8.767-8.937 24.252-11.641 36.48-11.641h29.441l9.499 23.477h52.263l9.792-23.477h51.237v79.002l47.69-79.002h35.651v105.256h-25.771v-73.309l-44.223 73.309h-38.306v-99.561l-42.596 99.561h-37.698l-35.462-82.779h-11.298c-6.622 0-13.66 1.263-17.533 5.429-4.678 5.31-6.92 13.444-6.92 24.718 0 11.032 2.942 19.41 7.234 23.842 4.994 4.871 10.178 6.237 19.357 6.237zM722.47 534.641l17.41-41.96h-34.725l17.314 41.96zM824.368 288.641h-48.806v-22.574h49.003c25.374 0 39.524 10.574 39.524 33.22 0 10.837-2.626 17.239-7.525 22.305-5.699 5.773-15.075 8.135-28.732 8.471l-13.543 0.367c-4.288 0-7.136 0.266-9.792 1.19-3.166 1.172-5.507 3.869-5.507 7.844 0 3.34 1.022 5.87 3.775 7.573 2.534 1.73 5.507 1.9 10.082 1.9h46.153v22.41h-50.439c-26.376 0-35.971-16.072-35.971-31.345 0-33.316 29.465-31.786 52.994-32.586 4.382 0 7.035-0.732 8.961-2.337 1.727-1.461 3.069-3.894 3.069-6.965 0-2.87-1.243-5.238-2.973-6.864-2.121-1.976-5.502-2.61-10.274-2.61zM151.567 470.738l9.667-23.477h51.172v82.51l36.576-82.51h22.090l36.482 82.438 0.098-82.438h25.789v105.259h-41.89l-30.247-71.407-32.926 71.407h-41.063v-99.658l-42.791 99.658h-37.378l-45.054-105.259h27.326l9.766 23.477h52.382zM125.263 534.641l17.22-41.96h-34.343l17.123 41.96zM554.741 524.17c0 11.74-4.772 18.604-12.73 23.307-8.133 4.7-17.607 5.041-30.464 5.041h-57.869v-105.259h25.159v38.285h27.007c9.056 0 14.663-0.804 18.335-4.507 4.579-5.063 3.972-14.172 3.972-20.506l0.096-13.274h25.377v20.678c0 9.401-0.612 14.078-4.163 19.314-2.238 3.065-6.941 6.768-12.447 8.863 6.529 2.605 17.728 11.276 17.728 28.058zM521.842 509.388c-3.457-2.099-7.546-2.169-12.445-2.169h-30.563v23.378h30.978c4.384 0 8.961-0.197 11.93-1.897 3.264-1.535 5.283-4.797 5.283-9.306 0-4.6-1.922-8.303-5.184-10.006zM569.335 552.519h25.672v-105.259h-25.672v105.259zM760.487 349.577v21.774h-83.971v-105.285h83.971v21.846l-58.917 0.096v20.947h57.478v21.48h-57.478v19.142zM436.24 530.598v21.92h-84.049v-105.259h84.049v21.772h-58.885v21.019h57.472v21.577h-57.472v18.971z" />
<glyph unicode="&#xf1f9;" glyph-name="ios" d="M424.401 675.664c-35.554-0.466-66.163-7.436-96.236-22.416-76.794-38.257-121.145-118.82-121.145-220.326 0-101.743 43.626-179.911 120.692-216.477 20.818-9.878 41.685-15.254 73.366-19.020 16.036-0.65 31.028-1.784 46.647 0 31.681 3.767 52.548 9.142 73.366 19.020 77.066 36.566 120.692 114.734 120.692 216.477 0 101.506-44.351 182.069-121.145 220.326-30.074 14.981-60.683 21.95-96.238 22.416v0zM454.971 604.109c46.11-12.29 79.569-53.894 92.388-114.579 9.004-42.619 6.55-91.867-6.34-130.655-20.074-60.406-63.654-94.521-116.617-93.972-52.962-0.548-96.543 33.565-116.616 93.972-12.89 38.789-15.344 88.036-6.34 130.655 12.818 60.685 46.277 102.288 92.387 114.579 20.907 4.432 41.739 3.634 61.138 0v0zM118.187 675.664c-25.458 0-46.097-20.639-46.097-46.097s20.638-46.097 46.097-46.097 46.097 20.639 46.097 46.097-20.638 46.097-46.097 46.097zM75.114 535.013v-338.547h86.147v338.547h-86.147zM767.037 197.176c-36.908 6.319-72.408 11.218-102.54 28.319-0.402 0.354 17.789 68.322 18.61 69.535 48.43-16.444 116.608-39.513 162.576-18.381 25.062 12.537 37.407 35.714 33.261 62.441-4.665 30.069-25.488 47.395-82.631 68.759-63.734 23.827-101.113 53.117-116.389 91.202-7.511 18.726-10.002 42.566-6.623 63.392 9.397 57.917 54.517 98.211 123.763 110.524 20.062 3.568 62.963 3.605 84.070 0.072 30.421-5.088 65.305-16.594 65.305-21.538 0-1.825-17.825-64.669-18.738-66.063-30.077 11.913-63.809 20.427-92.356 20.591-40.399 0.564-84.2-23.412-76.478-65.756 5.468-26.538 22.405-39.492 84.735-64.821 45.907-18.655 67.935-31.521 86.82-50.711 26.237-26.202 34.53-56.942 34.723-87.41 0.070-25.38-2.296-37.222-11.352-56.813-21.999-47.594-66.851-75.257-134.211-82.774-12.624-1.407-42.356-1.73-52.546-0.567v0z" />
<glyph unicode="&#xf1fa;" glyph-name="osx" d="M504.974 873.211c-245.639 0-444.782-199.107-444.782-444.745 0-245.64 199.143-444.782 444.782-444.782 245.621 0 444.763 199.141 444.763 444.782 0 245.639-199.143 444.745-444.763 444.745zM504.974 19.809c-225.335 0-408.657 183.322-408.657 408.657 0 225.315 183.322 408.621 408.657 408.621 225.324 0 408.639-183.306 408.639-408.621 0-225.333-183.315-408.657-408.639-408.657zM654.787 678.139l-149.822-212.885-149.824 212.885h-50.791l175.22-248.971-175.22-248.969h50.791l149.824 212.885 149.822-212.885h50.791l-175.216 248.969 175.216 248.971z" />
<glyph unicode="&#xf1fb;" glyph-name="evernote" d="M205.6 702.289c0 0 0 0 0.054 0h82.602c4.732 0 8.54 3.854 8.549 8.551 0 0.029-1.002 70.827-1.002 90.513v0.233c0 16.169 3.394 30.267 9.306 42.079l2.825 5.307c-0.316-0.054-0.632-0.208-0.946-0.524l-160.499-159.157c-0.314-0.258-0.511-0.592-0.601-0.937 3.32 1.642 7.859 3.889 8.5 4.169 13.978 6.309 30.928 9.766 51.214 9.766zM848.356 719.619c-6.562 35.124-27.444 52.435-46.326 59.24-20.371 7.362-61.675 14.988-113.573 21.106-41.753 4.917-90.828 4.525-120.469 3.609-3.558 24.368-20.649 46.631-39.773 54.338-50.955 20.51-129.683 15.553-149.898 9.889-16.063-4.488-33.84-13.689-43.736-27.866-6.636-9.47-10.928-21.602-10.962-38.55 0-9.593 0.267-32.19 0.511-52.267 0.242-20.141 0.508-38.153 0.508-38.276-0.009-17.93-14.542-32.523-32.552-32.546h-82.616c-17.621 0-31.087-2.96-41.371-7.635-10.303-4.676-17.598-10.982-23.141-18.443-11.034-14.813-12.951-33.094-12.904-51.746 0 0 0.163-15.244 3.835-44.749 3.054-22.831 27.81-182.313 51.327-230.815 9.118-18.873 15.19-26.732 33.103-35.050 39.912-17.087 131.074-36.097 173.8-41.541 42.648-5.457 69.417-16.928 85.369 16.52 0.054 0.083 3.195 8.323 7.517 20.407 13.85 41.968 15.777 79.205 15.777 106.152 0 2.74 4.021 2.865 4.021 0 0-19.025-3.632-86.346 47.222-104.409 20.076-7.12 61.724-13.467 104.040-18.429 38.263-4.398 66.032-19.455 66.032-117.621 0-59.724-12.544-67.914-78.124-67.914-53.161 0-73.419-1.376-73.419 40.857 0 34.134 33.758 30.556 58.78 30.556 11.175 0 3.063 8.312 3.063 29.373 0 20.947 13.101 33.057 0.71 33.364-86.518 2.381-137.424 0.101-137.424-108.102 0-98.229 37.591-116.469 160.383-116.469 96.277 0 130.214 3.154 169.969 126.499 7.868 24.35 26.891 98.661 38.406 223.428 7.277 78.888-6.865 316.995-18.082 377.092zM680.528 456.435c-11.894 0.417-23.335-0.336-34.002-2.050 3.002 24.248 13.010 54.002 48.464 52.756 39.249-1.349 44.747-38.445 44.888-63.572-16.55 7.38-37.037 12.082-59.351 12.866z" />
<glyph unicode="&#xf1fc;" glyph-name="yelp" d="M209.886 458.053c-14.253 3.905-23.907-3.535-29.517-22.749l-22.495-76.381c-36.561 69.063-44.697 84.423-46.787 88.046l0.128 0.063c-3.833 7.651-14.91 13.171-26.096 8.735-14.033-5.328-19.079-18.154-13.35-34.688 0.607-1.232 60.593-123.309 61.348-124.873 0 0 1.275-3.343 1.496-4.55 0 0 0.479-2.885 0.517-2.885-0.103-3.95-1.346-7.165-3.564-9.271-2.252-2.099-5.337-3.19-9.022-2.968 0 0-9.661 0.231-10.798 0.191-11.276-1.391-18.687-8.289-19.829-18.416-0.82-6.661 1.328-12.579 6.215-17.114 5.57-5.15 14.338-7.817 25.079-7.817 4.958 0 10.337 0.569 16.010 1.723 16.789 3.325 27.769 11.090 37.69 42.544l47.15 148.253c2.709 8.717 2.447 16.431-0.786 22.347-2.731 4.866-7.239 8.166-13.391 9.811zM360.418 446.573c-15.187 11.5-36.487 15.226-61.565 10.707-31.871-5.52-51.028-28.186-55.395-65.54-5.242-43.871 2.157-77.091 21.396-96.062 11.91-11.76 28.345-17.809 48.078-17.809 4.638 0 9.461 0.332 14.45 1.008 39.889 5.608 54.754 27.731 54.754 40.367 0 10.861-6.777 19.374-16.278 20.663-6.441 1.295-11.502-0.862-20.073-8.5-11.684-10.183-25.153-14.312-36.926-11.347-8.762 2.234-15.561 8.245-18.544 16.131-0.578 2.316-1.006 4.019-1.42 5.252h0.018c-0.397 2.106-1.608 8.513 0.491 9.904l77.799 0.058c6.911 0 12.185 0.728 15.49 4.308 5.168 5.776 4.987 19.104 2.922 40.183-2.169 22.339-10.882 39.861-25.199 50.677zM277.858 387.409c-0.354 1.021-0.229 3.043 0.367 5.979 0.769 3.197 1.552 5.961 3.947 9.891l2.381 3.683c4.196 5.296 10.032 8.939 16.91 10.556 10.449 2.54 19.603 1.411 26.452-3.293 6.257-4.283 10.173-11.226 11.332-20.114 0.502-3.484 0.62-5.532 0.611-6.699h-61.998zM466.572 498.733l-0.098 0.797c-1.349 5.341-5.644 9.954-11.493 12.342l-0.009 0.005c-7.149 2.897-15.288 2.144-22.325-2.048-7.003-4.14-9.988-10.521-9.988-21.326l0.038-188.167c1.066-7.014 1.149-7.256 1.21-7.415 1.615-5.648 5.762-10.362 11.376-12.929 3.047-1.405 6.327-2.101 9.62-2.101 3.41 0 6.831 0.748 10.003 2.24 8.068 3.484 12.884 11.448 12.884 21.294l-0.029 188.461c-0.005 0.004-1.129 8.426-1.188 8.847zM604.822 459.215c-18.313 3.719-33.91 0.663-49.33-9.795 0 0-1.282-1.073-1.644-1.308l-1.492-0.746-1.656 3.874-1.387 2.074c-4.913 7.644-18.046 11.345-29.723 4.671-6.86-3.874-9.409-9.654-9.409-21.346v-184.198c0-11.383 3.901-18.786 11.869-22.59 3.64-1.837 7.552-2.756 11.419-2.756 3.222 0 6.419 0.638 9.4 1.934 5.72 2.494 9.904 7.012 11.58 12.864l1.154 8.347-0.005 32.066-0.312 4.671 0.782 3.472 2.144-1.431c0 0 1.113-0.728 2.065-1.589l1.94-1.308 4.078-2.157c16.326-7.729 38.182-6.86 55.679 2.195 22.041 11.493 32.974 31.721 35.454 65.586 5.157 67.15-10.577 99.297-52.604 107.472zM602.273 321.453c-17.934 0-26.472 11.525-27.686 37.362l-0.038 0.76c-0.089 2.24-0.3 9.163-0.3 9.163 0.002 0.204 0.303 7.684 0.296 7.792 1.79 32.225 8.834 39.735 21.281 42.325 9.607 2.252 16.857 1.257 22.161-3.018 8.31-6.681 12.017-21.498 11.657-46.64-0.3-34.802-7.72-47.744-27.371-47.744zM687.908 325.62c-11.208 0-19.986-8.767-19.986-19.953 0-11.211 8.778-19.993 19.986-19.993 11.022 0 19.986 8.966 19.986 19.993 0 11-8.964 19.953-19.986 19.953zM692.331 391.664c2.745-5.233 7.611-8.46 12.965-8.646 0.296-0.018 0.567-0.033 0.856-0.033 2.93 0 7.44 1.391 56.145 17.038 16.868 5.386 21.425 6.84 22.78 7.294 7.039 1.799 11.898 8.218 12.38 16.368 0.448 8.309-4.030 15.678-11.056 18.306-10.823 4.409-14.634 5.966-16.164 6.51l0.023 0.052c-58.030 23.941-58.31 23.949-61.652 23.987-5.413 0.247-10.357-2.565-13.585-7.651-6.096-9.802-8.439-38.543-6.457-57.718 0.784-7.032 2.050-12.246 3.764-15.506zM814.269 392.455c-7.75 2.993-16.121 1.021-20.788-4.824 0 0-7.593-9.017-10.306-12.219l-0.975-1.149c-40.616-47.668-40.761-48.082-41.856-51.248-0.778-2.111-1.049-4.283-0.811-6.387 0.287-3.058 1.624-6.101 3.88-8.818 9.004-10.695 47.986-25.531 65.304-25.531 1.311 0 2.502 0.083 3.54 0.262 5.961 1.086 10.303 4.499 12.257 9.719 1.080 3.152 1.165 3.408 1.324 59.446 0 0 0.125 23.226 0.134 23.929 0.47 7.299-4.129 13.904-11.702 16.82zM817.918 619.764c-1.496 5.457-5.787 9.443-11.78 10.937-15.969 3.968-74.324-12.443-85.59-24.070-4.097-4.263-5.758-9.808-4.221-15.449 1.691-3.479 65.206-103.426 72.42-114.778 6.414-10.388 13.321-15.613 20.585-15.613 1.618 0 3.251 0.255 4.902 0.778 9.071 2.789 13.308 11.702 12.589 26.488-1.006 23.094-7.944 126.244-8.838 131.401l-0.069 0.305zM857.803 432.374l-4.687-5.079 12.804 4.759c2.756 1.028 8.276 2.361 17.051 4.447 60.673 14.697 61.243 15.067 64.034 16.877 4.512 3.071 6.793 8.085 6.436 13.924l0.009 0.6-0.029 0.256c-1.631 15.506-27.588 53.811-40.851 60.277-5.476 2.655-11.032 2.406-15.602-0.677-2.789-1.817-3.463-2.706-36.030-47.253 0 0-13.567-18.479-14.195-19.29-4.646-5.635-4.786-13.655-0.358-20.445 2.841-4.351 6.972-7.284 11.419-8.397zM949.856 381.435c-2.606 1.945-2.82 2.106-56.17 19.641-8.596 2.834-21.722 7.172-22.688 7.543-6.802 2.61-14.491 0.267-19.579-5.998-5.256-6.407-5.951-15.022-1.786-21.364l9.074-14.766c31.746-51.566 33.108-53.526 35.812-55.637 2.619-2.055 5.662-3.089 8.908-3.089 2.106 0 4.295 0.433 6.51 1.32 13.937 5.565 43.181 42.723 45.354 57.649 0.809 5.933-1.14 11.267-5.435 14.701z" />
<glyph unicode="&#xf1fd;" glyph-name="yelp2" d="M416.236 308.39c17.6 4.499 29.75 20.553 30.955 40.929 1.116 20.775-10.077 39.204-27.644 45.779-27.061 11.025-36.596 14.919-40.418 16.276l0.056 0.128c-145.108 59.869-145.809 59.883-154.163 59.979-13.539 0.621-25.898-6.416-33.97-19.131-15.246-24.509-21.102-96.376-16.148-144.324 1.962-17.585 5.13-30.621 9.414-38.774 6.869-13.084 19.036-21.158 32.422-21.62 0.742-0.047 1.42-0.079 2.139-0.079 7.324 0 18.604 3.479 140.39 42.603 42.184 13.465 53.576 17.103 56.966 18.236zM489.229 271.227c-19.379 7.483-40.306 2.554-51.978-12.062 0 0-18.989-22.547-25.769-30.558l-2.442-2.872c-101.562-119.194-101.921-120.231-104.658-128.146-1.947-5.281-2.624-10.707-2.027-15.972 0.719-7.644 4.062-15.254 9.701-22.052 22.515-26.743 119.991-63.841 163.297-63.841 3.28 0 6.255 0.208 8.856 0.654 14.903 2.713 25.762 11.249 30.652 24.303 2.697 7.882 2.913 8.52 3.311 148.648 0 0 0.311 58.081 0.336 59.836 1.158 18.255-10.339 34.77-29.279 42.061zM498.524 838.857l-0.168 0.766c-3.742 13.642-14.473 23.615-29.454 27.35-39.932 9.925-185.853-31.116-214.023-60.187-10.245-10.659-14.401-24.525-10.556-38.63 4.228-8.695 163.051-258.62 181.088-287.006 16.036-25.977 33.308-39.045 51.475-39.045 4.044 0 8.13 0.638 12.255 1.947 22.681 6.972 33.276 29.263 31.481 66.234-2.512 57.745-19.867 315.68-22.099 328.571zM598.092 371.050c20.212-2.829 62.93 10.323 62.93 10.323 151.713 36.748 153.14 37.674 160.123 42.206 11.282 7.675 16.986 20.217 16.092 34.817l0.023 1.501-0.072 0.638c-4.077 38.774-68.987 134.56-102.153 150.724-13.691 6.638-27.588 6.017-39.014-1.691-6.972-4.548-8.655-6.766-90.098-118.156 0 0-33.923-46.209-35.494-48.237-11.616-14.089-11.966-34.145-0.892-51.123 7.1-10.884 17.432-18.225 28.555-21.001zM828.276 243.671c-6.517 4.866-7.051 5.265-140.455 49.113-21.492 7.084-54.315 17.936-56.733 18.861-17.009 6.526-36.236 0.67-48.963-14.999-13.14-16.021-14.878-37.562-4.467-53.423l22.69-36.923c79.383-128.944 82.79-133.841 89.545-139.124 6.551-5.137 14.163-7.723 22.276-7.723 5.265 0 10.738 1.086 16.276 3.304 34.849 13.913 107.976 106.827 113.411 144.149 2.034 14.842-2.841 28.181-13.579 36.766z" />
<glyph unicode="&#xf1fe;" glyph-name="medium" d="M686.962 198.758l270.017-134.983c0.479-0.238 0.912-0.421 1.288-0.569 0.045 0.39 0.076 0.869 0.076 1.407v575.159l-271.381-441.014zM669.98 833.58l-191.59-309.983 184.253-299.442 288.523 468.839zM366.929 358.602l249.995-124.98-249.995 406.21zM54.19 211.098c0-4.225 4.149-10.933 7.922-12.819l269.432-134.716c0.495-0.238 0.928-0.45 1.302-0.569 0.047 0.39 0.076 0.869 0.076 1.409v624.998l-278.718 139.358-0.014-617.661z" />
<glyph unicode="&#xf1ff;" glyph-name="slack" d="M951.356 407.163c-13.594 40.391-57.358 62.112-97.747 48.517l-81.914-27.57-55.518 164.946 79.779 26.851c40.391 13.594 62.112 57.358 48.517 97.747-13.594 40.391-57.358 62.112-97.747 48.517l-79.777-26.851-26.871 79.837c-13.595 40.391-57.358 62.112-97.747 48.517v0c-40.391-13.594-62.112-57.358-48.517-97.747l26.871-79.837-168.423-56.688-26.546 78.87c-13.595 40.391-57.358 62.112-97.747 48.517-40.391-13.595-62.112-57.358-48.517-97.747l26.546-78.87-80.286-27.023c-40.391-13.595-62.112-57.358-48.517-97.747v0c13.594-40.391 57.358-62.112 97.747-48.517l80.286 27.023 55.518-164.946-78.152-26.304c-40.391-13.595-62.112-57.358-48.517-97.747 13.594-40.391 57.358-62.112 97.747-48.517l78.152 26.304 28.499-84.67c13.595-40.391 57.358-62.112 97.747-48.517 40.391 13.595 62.112 57.358 48.517 97.747l-28.499 84.67 168.423 56.688 28.173-83.704c13.595-40.391 57.358-62.112 97.747-48.517 40.391 13.595 62.112 57.358 48.517 97.747l-28.173 83.704 81.914 27.57c40.387 13.594 62.11 57.356 48.515 97.747zM457.006 322.191l-55.518 164.946 168.423 56.688 55.518-164.946-168.423-56.688z" />
<glyph unicode="&#xf201;" glyph-name="edge" d="M431.898 653.434c-34.029-38.671-51.679-83.331-58.36-133.838 102.399 0 203.706 0 305.771 0 0 7.476 0.403 15.067-0.070 22.605-2.068 32.98-9.159 64.633-27.169 92.881-24.131 37.847-60.358 56.684-103.469 63.631-62.556 10.080-122.914-0.596-181.564-21.963-85.8-31.26-157.848-82.341-215.179-153.652-9.636-11.986-18.21-24.826-28.78-39.339 0.876 7.212 1.38 12.418 2.153 17.582 12.356 82.594 42.097 157.938 95.633 222.635 62.916 76.030 144 121.074 241.253 136.768 94.734 15.288 184.338-0.081 267.512-48.253 76.558-44.341 129.326-109.319 160.826-191.662 18.167-47.491 27.041-96.851 27.503-147.706 0.291-32.033 0.585-64.066 0.871-96.097 0.029-3.199 0.004-6.399 0.004-10.835-181.004 0-361.203 0-542.005 0 0.208-44.454 13.146-82.753 42.993-114.569 34.677-36.964 79.18-54.92 127.937-62.027 102.349-14.919 198.75 3.77 288.673 55.14 2.303 1.315 4.597 2.646 6.911 3.943 0.228 0.128 0.567 0.058 1.942 0.161 0.19-3.098 0.544-6.199 0.544-9.3 0.023-54.6-0.105-109.201 0.141-163.799 0.029-6.262-1.996-9.515-7.532-12.275-64.48-32.136-132.725-50.485-204.439-56.045-45.688-3.542-91.241-3.567-136.479 5.605-136.105 27.593-244.665 127.249-269.576 267.427-28.426 159.961 47.707 307.653 200.657 372.969 0.48 0.197 1.12 0.018 3.298 0.018z" />
<glyph unicode="&#xf202;" glyph-name="outlook" d="M703.657 483.449l264.169 178.101c0 21.077-19.664 36.189-30.762 36.189h-301.53v-175.641l61.382-38.649c1.615-0.468 5.124-0.508 6.741 0zM708.952 418.080c0 0-9.51-5.798-17.397 0l-56.054 38.479v-238.701h284.57c25.291 0 47.789 14.733 47.789 49.88v322.816c0 0-268.384-178.273-258.907-172.475zM336.657 342.407c18.785 0 33.688 8.467 44.682 25.388 10.994 16.937 16.525 40.448 16.525 70.502 0 31.329-5.327 55.716-16.023 73.144-10.687 17.403-25.285 26.105-43.835 26.105-19.090 0-34.3-8.975-45.534-26.873-11.229-17.927-16.857-41.635-16.857-71.139 0-29.949 5.628-53.619 16.857-71.022 11.233-17.443 25.973-26.105 44.185-26.105zM72.254 99.783l522.732-109.593v897.921l-522.732-101.178v-687.15zM251.462 551.904c22.157 29.519 51.502 44.279 88.027 44.279 34.495 0 62.424-14.096 83.703-42.363 21.311-28.254 31.968-65.471 31.968-111.717 0.033-47.521-11.025-85.833-33.113-114.909-22.094-29.062-50.895-43.64-86.44-43.64-34.638 0-62.827 14.096-84.648 42.26-21.788 28.191-32.716 64.886-32.716 110.153 0 47.781 11.067 86.432 33.218 115.937z" />
<glyph unicode="&#xf203;" glyph-name="pencilcase" d="M505.402 593.515h-66.636v-136.331h60.757c77.741 0 103.873 7.828 103.873 73.709 0 52.837-16.986 62.621-97.994 62.621zM791.787 889.609h-539.651c-99.347 0-179.884-80.537-179.884-179.884v-539.651c0-99.347 80.537-179.884 179.884-179.884h539.651c99.347 0 179.884 80.537 179.884 179.884v539.651c0 99.347-80.537 179.884-179.884 179.884zM529.573 376.953h-90.807v-170.901h-96.688v467.696h177.043c97.34 0 182.27-9.132 182.27-146.767 0-132.417-79.049-150.027-171.817-150.027z" />
</font>
</defs>
</svg>
