
<svg width="13px" height="18px" viewBox="0 0 13 18" version="1.1" xmlns="http://www.w3.org/2000/svg" xmlns:xlink="http://www.w3.org/1999/xlink">

    <title>map-pin-1-circle</title>
    
    <g id="Page-1" stroke="none" stroke-width="1" fill="none" fill-rule="evenodd">
        <g id="header-builder" transform="translate(-542.000000, -961.000000)" fill="#BBBBBB" fill-rule="nonzero">
            <g id="elements" transform="translate(187.000000, 820.000000)">
                <g id="phone-number" transform="translate(341.000000, 131.000000)">
                    <g id="map-pin-1-circle" transform="translate(14.000000, 10.000000)">
                        <path d="M6.1875,18 L6.609375,17.55 C6.834375,17.296875 12.290625,11.25 12.290625,6.103125 C12.290625,2.728125 9.534375,0 6.1875,0 C2.840625,0 0.084375,2.728125 0.084375,6.103125 C0.084375,11.25 5.540625,17.296875 5.765625,17.55 L6.1875,18 Z M6.1875,1.096875 C8.94375,1.096875 11.165625,3.346875 11.165625,6.075 C11.165625,10.0125 7.425,14.79375 6.1875,16.3125 C4.921875,14.79375 1.209375,10.0125 1.209375,6.075 C1.209375,3.346875 3.43125,1.096875 6.1875,1.096875 Z"></path>
                        <path d="M8.971875,6.103125 C8.971875,4.584375 7.734375,3.31875 6.1875,3.31875 C4.640625,3.31875 3.403125,4.55625 3.403125,6.103125 C3.403125,7.65 4.640625,8.8875 6.1875,8.8875 C7.734375,8.8875 8.971875,7.621875 8.971875,6.103125 Z M6.1875,7.7625 C5.259375,7.7625 4.528125,7.003125 4.528125,6.103125 C4.528125,5.203125 5.2875,4.44375 6.1875,4.44375 C7.0875,4.44375 7.846875,5.203125 7.846875,6.103125 C7.846875,7.003125 7.115625,7.7625 6.1875,7.7625 Z"></path>
                    </g>
                </g>
            </g>
        </g>
    </g>
</svg>