
<svg width="18px" height="15px" viewBox="0 0 18 15" version="1.1" xmlns="http://www.w3.org/2000/svg" xmlns:xlink="http://www.w3.org/1999/xlink">

    <title>bars-menu</title>
    
    <g id="Page-1" stroke="none" stroke-width="1" fill="none" fill-rule="evenodd">
        <g id="header-builder" transform="translate(-237.000000, -613.000000)" fill="#4ED199" fill-rule="nonzero">
            <g id="menu" transform="translate(197.000000, 590.000000)">
                <g id="bars-menu" transform="translate(40.000000, 23.000000)">
                    <path d="M17.1,1.8 L0.9,1.8 C0.405,1.8 0,1.395 0,0.9 C0,0.405 0.405,0 0.9,0 L17.1,0 C17.595,0 18,0.405 18,0.9 C18,1.395 17.595,1.8 17.1,1.8 Z"></path>
                    <path d="M17.1,8.1 L0.9,8.1 C0.405,8.1 0,7.695 0,7.2 C0,6.705 0.405,6.3 0.9,6.3 L17.1,6.3 C17.595,6.3 18,6.705 18,7.2 C18,7.695 17.595,8.1 17.1,8.1 Z"></path>
                    <path d="M17.1,14.4 L0.9,14.4 C0.405,14.4 0,13.995 0,13.5 C0,13.005 0.405,12.6 0.9,12.6 L17.1,12.6 C17.595,12.6 18,13.005 18,13.5 C18,13.995 17.595,14.4 17.1,14.4 Z"></path>
                </g>
            </g>
        </g>
    </g>
</svg>