
<svg width="15px" height="18px" viewBox="0 0 15 18" version="1.1" xmlns="http://www.w3.org/2000/svg" xmlns:xlink="http://www.w3.org/1999/xlink">

    <title>Shape</title>
    
    <g id="Page-1" stroke="none" stroke-width="1" fill="none" fill-rule="evenodd">
        <g id="header-builder" transform="translate(-644.000000, -875.000000)" fill="#FF0061" fill-rule="nonzero">
            <g id="elements" transform="translate(187.000000, 820.000000)">
                <g id="search" transform="translate(443.000000, 45.000000)">
                    <g id="bag-2" transform="translate(14.000000, 10.000000)">
                        <path d="M7.5,0 C5.60344828,0 4.05172414,1.51875 4.05172414,3.375 L4.05172414,4.5 L0.632183908,4.5 L0,18 L15,18 L14.3678161,4.5 L10.9482759,4.5 L10.9482759,3.375 C10.9482759,1.51875 9.39655172,0 7.5,0 Z M5.20114943,3.375 C5.20114943,2.1375 6.23563218,1.125 7.5,1.125 C8.76436782,1.125 9.79885057,2.1375 9.79885057,3.375 L9.79885057,4.5 L5.20114943,4.5 L5.20114943,3.375 Z M13.2758621,5.625 L13.7931034,16.875 L1.20689655,16.875 L1.72413793,5.625 L4.05172414,5.625 L4.05172414,7.3125 C4.05172414,7.621875 4.31034483,7.875 4.62643678,7.875 C4.94252874,7.875 5.20114943,7.621875 5.20114943,7.3125 L5.20114943,5.625 L9.79885057,5.625 L9.79885057,7.3125 C9.79885057,7.621875 10.0574713,7.875 10.3735632,7.875 C10.6896552,7.875 10.9482759,7.621875 10.9482759,7.3125 L10.9482759,5.625 L13.2758621,5.625 Z"></path>
                    </g>
                </g>
            </g>
        </g>
    </g>
</svg>