
<svg width="18px" height="16px" viewBox="0 0 18 16" version="1.1" xmlns="http://www.w3.org/2000/svg" xmlns:xlink="http://www.w3.org/1999/xlink">


    
    <g id="Page-1" stroke="none" stroke-width="1" fill="none" fill-rule="evenodd">
        <g id="header-builder" transform="translate(-990.000000, -963.000000)" fill="#BBBBBB" fill-rule="nonzero">
            <g id="elements" transform="translate(187.000000, 820.000000)">
                <g id="divider" transform="translate(789.000000, 132.000000)">
                    <g id="splitter-v-1" transform="translate(14.000000, 11.000000)">
                        <path d="M14.990625,5.28571429 C14.765625,5.08571429 14.4,5.08571429 14.203125,5.34285714 C14.00625,5.57142857 14.00625,5.94285714 14.259375,6.14285714 L15.69375,7.42857143 L9.5625,7.42857143 L9.5625,0.571428571 C9.5625,0.257142857 9.309375,0 9,0 C8.690625,0 8.4375,0.257142857 8.4375,0.571428571 L8.4375,7.42857143 L2.334375,7.42857143 L3.76875,6.14285714 C3.99375,5.94285714 4.021875,5.57142857 3.825,5.34285714 C3.628125,5.11428571 3.2625,5.08571429 3.0375,5.28571429 L0,8 L3.009375,10.7142857 C3.121875,10.8 3.2625,10.8571429 3.375,10.8571429 C3.54375,10.8571429 3.684375,10.8 3.796875,10.6571429 C3.99375,10.4285714 3.99375,10.0571429 3.740625,9.85714286 L2.334375,8.57142857 L8.4375,8.57142857 L8.4375,15.4285714 C8.4375,15.7428571 8.690625,16 9,16 C9.309375,16 9.5625,15.7428571 9.5625,15.4285714 L9.5625,8.57142857 L15.665625,8.57142857 L14.23125,9.85714286 C14.00625,10.0571429 13.978125,10.4285714 14.175,10.6571429 C14.2875,10.7714286 14.428125,10.8571429 14.596875,10.8571429 C14.7375,10.8571429 14.85,10.8 14.9625,10.7142857 L18,8 L14.990625,5.28571429 Z"></path>
                    </g>
                </g>
            </g>
        </g>
    </g>
</svg>