<svg xmlns="http://www.w3.org/2000/svg" width="158" height="26" viewBox="0 0 158 26">
  <path fill="#333" d="M16.3743478,25.2369565 L1.42108547e-14,25.2369565 L1.42108547e-14,1.34521739 L16.3743478,1.34521739 L16.3743478,6.24565217 L6.07608696,6.24565217 L6.07608696,10.9991304 L15.763913,10.9991304 L15.763913,15.47 L6.07608696,15.47 L6.07608696,20.3365217 L16.3743478,20.3365217 L16.3743478,25.2369565 Z M26.616087,6.77695652 C31.5334783,6.77695652 34.5969565,9.11130435 34.6308696,12.836087 L29.2669565,12.836087 C29.216087,11.5417391 28.1930435,10.7334783 26.5652174,10.7334783 C25.123913,10.7334783 24.1969565,11.3608696 24.1969565,12.2878261 C24.1969565,13 24.8582609,13.5143478 26.2147826,13.7969565 L29.9904348,14.56 C33.5852174,15.3230435 35.1226087,16.7982609 35.1226087,19.5282609 C35.1226087,23.27 31.7256522,25.6721739 26.6952174,25.6721739 C21.4273913,25.6721739 18.3808696,23.27 18.1321739,19.5791304 L23.8295652,19.5791304 C23.9934783,20.9186957 25.0730435,21.7156522 26.7913043,21.7156522 C28.3456522,21.7156522 29.3065217,21.1504348 29.3065217,20.1895652 C29.3065217,19.4604348 28.7582609,19.0478261 27.3508696,18.7482609 L23.9369565,18.036087 C20.41,17.29 18.556087,15.436087 18.556087,12.6721739 C18.5673913,9.06043478 21.6478261,6.77695652 26.616087,6.77695652 Z M44.4204348,6.77695652 C49.3378261,6.77695652 52.4013043,9.11130435 52.4352174,12.836087 L47.0713043,12.836087 C47.0204348,11.5417391 45.9973913,10.7334783 44.3695652,10.7334783 C42.9282609,10.7334783 42.0013043,11.3608696 42.0013043,12.2878261 C42.0013043,13 42.6626087,13.5143478 44.0191304,13.7969565 L47.7947826,14.56 C51.3895652,15.3230435 52.9269565,16.7982609 52.9269565,19.5282609 C52.9269565,23.27 49.53,25.6721739 44.4995652,25.6721739 C39.2317391,25.6721739 36.1852174,23.27 35.9365217,19.5791304 L41.633913,19.5791304 C41.7978261,20.9186957 42.8773913,21.7156522 44.5956522,21.7156522 C46.15,21.7156522 47.1108696,21.1504348 47.1108696,20.1895652 C47.1108696,19.4604348 46.5626087,19.0478261 45.1552174,18.7482609 L41.7413043,18.036087 C38.2143478,17.29 36.3604348,15.436087 36.3604348,12.6721739 C36.3717391,9.06043478 39.4521739,6.77695652 44.4204348,6.77695652 Z M71.6978261,19.5395652 C71.1326087,23.2643478 67.8204348,25.6665217 63.1008696,25.6665217 C57.3526087,25.6665217 53.9273913,22.1395652 53.9273913,16.3121739 C53.9273913,10.4847826 57.3865217,6.77130435 62.9030435,6.77130435 C68.3347826,6.77130435 71.793913,10.3321739 71.793913,15.8486957 L71.793913,17.5047826 L59.6247826,17.5047826 L59.6247826,17.8665217 C59.6247826,20.02 61.066087,21.5121739 63.1856522,21.5121739 C64.7569565,21.5121739 65.9834783,20.766087 66.396087,19.5395652 L71.6978261,19.5395652 Z M59.703913,14.1586957 L66.2604348,14.1586957 C66.1586957,12.2369565 64.8530435,10.9482609 62.9991304,10.9482609 C61.196087,10.9482609 59.8565217,12.2878261 59.703913,14.1586957 Z M73.5234783,7.20652174 L79.2378261,7.20652174 L79.2378261,10.6034783 L79.3565217,10.6034783 C80.2834783,8.20130435 82.1713043,6.86173913 84.9352174,6.86173913 C88.9595652,6.86173913 91.1921739,9.37695652 91.1921739,13.6669565 L91.1921739,25.2426087 L85.3308696,25.2426087 L85.3308696,14.9217391 C85.3308696,12.87 84.3530435,11.6434783 82.4313043,11.6434783 C80.5604348,11.6434783 79.4017391,13.0508696 79.4017391,15.0404348 L79.4017391,25.2426087 L73.5234783,25.2426087 L73.5234783,7.20652174 L73.5234783,7.20652174 Z M100.75,3.16521739 L100.75,7.20652174 L103.994348,7.20652174 L103.994348,11.5304348 L100.75,11.5304348 L100.75,19.0986957 C100.75,20.3421739 101.411304,20.9695652 102.818696,20.9695652 C103.282174,20.9695652 103.632609,20.9526087 103.977391,20.8847826 L103.977391,25.056087 C103.412174,25.1747826 102.553043,25.2708696 101.411304,25.2708696 C96.7256522,25.2708696 94.8717391,23.8295652 94.8717391,20.2856522 L94.8717391,11.5247826 L92.4186957,11.5247826 L92.4186957,7.20086957 L94.8717391,7.20086957 L94.8717391,3.16521739 L100.75,3.16521739 Z M105.836957,2.86565217 C105.836957,1.24347826 107.142609,8.8817842e-15 108.849565,8.8817842e-15 C110.556522,8.8817842e-15 111.845217,1.24347826 111.845217,2.86565217 C111.845217,4.48782609 110.55087,5.74826087 108.849565,5.74826087 C107.148261,5.74826087 105.836957,4.48782609 105.836957,2.86565217 Z M105.916087,7.20652174 L111.777391,7.20652174 L111.777391,25.2369565 L105.916087,25.2369565 L105.916087,7.20652174 Z M113.422174,20.02 C113.422174,16.64 116.022174,14.7521739 120.69087,14.4752174 L124.913043,14.2265217 L124.913043,13.1978261 C124.913043,11.7565217 123.884348,10.9595652 122.346957,10.9595652 C120.758696,10.9595652 119.746957,11.7847826 119.583043,12.8982609 L114.298261,12.8982609 C114.462174,9.2073913 117.610435,6.77130435 122.646522,6.77130435 C127.467826,6.77130435 130.661304,9.24130435 130.661304,12.8643478 L130.661304,25.2369565 L124.946957,25.2369565 L124.946957,22.6708696 L124.828261,22.6708696 C123.850435,24.4908696 121.651739,25.5026087 119.481304,25.5026087 C116.14087,25.5026087 113.422174,23.2869565 113.422174,20.02 Z M124.913043,18.7652174 L124.913043,17.5217391 L121.634783,17.7365217 C120.097391,17.8552174 119.232609,18.5617391 119.232609,19.6243478 C119.232609,20.766087 120.176522,21.4613043 121.566957,21.4613043 C123.358696,21.4613043 124.913043,20.3704348 124.913043,18.7652174 Z M133.018261,1.34521739 L138.896522,1.34521739 L138.896522,25.2426087 L133.018261,25.2426087 L133.018261,1.34521739 Z M149.013913,6.77695652 C153.931304,6.77695652 156.994783,9.11130435 157.028696,12.836087 L151.664783,12.836087 C151.613913,11.5417391 150.59087,10.7334783 148.963043,10.7334783 C147.521739,10.7334783 146.594783,11.3608696 146.594783,12.2878261 C146.594783,13 147.256087,13.5143478 148.612609,13.7969565 L152.388261,14.56 C155.983043,15.3230435 157.520435,16.7982609 157.520435,19.5282609 C157.520435,23.27 154.123478,25.6721739 149.093043,25.6721739 C143.825217,25.6721739 140.778696,23.27 140.53,19.5791304 L146.227391,19.5791304 C146.391304,20.9186957 147.47087,21.7156522 149.18913,21.7156522 C150.743478,21.7156522 151.704348,21.1504348 151.704348,20.1895652 C151.704348,19.4604348 151.156087,19.0478261 149.748696,18.7482609 L146.334783,18.036087 C142.807826,17.29 140.953913,15.436087 140.953913,12.6721739 C140.97087,9.06043478 144.051304,6.77695652 149.013913,6.77695652 Z"/>
</svg>
