<svg width="18px" height="18px" viewBox="0 0 18 18" version="1.1" xmlns="http://www.w3.org/2000/svg" xmlns:xlink="http://www.w3.org/1999/xlink">
    <title>language</title>
    <g id="Page-1" stroke="none" stroke-width="1" fill="none" fill-rule="evenodd">
        <g id="header-builder" transform="translate(-996.000000, -875.000000)" fill="#FFC168" fill-rule="nonzero">
            <g transform="translate(50.000000, 250.000000)" id="elements">
                <g transform="translate(137.000000, 570.000000)">
                    <g id="link" transform="translate(795.000000, 45.000000)">
                        <g id="language" transform="translate(14.000000, 10.000000)">
                            <polygon points="4.87652344 4.81640625 4.65082031 4.81640625 4.22905078 6.92578125 5.29829297 6.92578125"></polygon>
                            <path d="M13.4076797,9.03515625 C13.6353867,9.64683984 13.9382578,10.1419805 14.2734375,10.563293 C14.6086172,10.1419805 14.9466445,9.64680469 15.1743516,9.03515625 L13.4076797,9.03515625 Z"></path>
                            <path d="M16.4179688,3.19921875 L9.86895703,3.19921875 L11.2344961,14.1566836 C11.2586484,14.6048555 11.1361289,15.0268008 10.8436289,15.3571289 L8.53112109,18 L16.4179688,18 C17.2903359,18 18,17.2903359 18,16.4179688 L18,4.81640625 C18,3.94403906 17.2903359,3.19921875 16.4179688,3.19921875 Z M16.4179688,9.03515625 L16.2771328,9.03515625 C15.9770742,9.99783984 15.5012344,10.7511328 15.0067266,11.3449922 C15.3941133,11.6991563 15.8083594,11.9896875 16.2202148,12.3150937 C16.4473242,12.4968867 16.4844141,12.8285156 16.3020938,13.0561523 C16.1206172,13.2834375 15.7876875,13.3202813 15.5610352,13.1380313 C15.1135313,12.7848164 14.6934844,12.4891523 14.2734375,12.1036992 C13.8533906,12.4891523 13.4685,12.7848164 13.0209961,13.1380313 C12.7943437,13.3202813 12.4614141,13.2834375 12.2799375,13.0561523 C12.0976172,12.8285156 12.134707,12.4968867 12.3618164,12.3150937 C12.7736719,11.9896875 13.1527617,11.6991563 13.5401484,11.3449922 C13.0456406,10.751168 12.6049219,9.997875 12.3048984,9.03515625 L12.1640625,9.03515625 C11.872582,9.03515625 11.6367188,8.79929297 11.6367188,8.5078125 C11.6367188,8.21633203 11.872582,7.98046875 12.1640625,7.98046875 L13.7460938,7.98046875 L13.7460938,7.453125 C13.7460938,7.16164453 13.981957,6.92578125 14.2734375,6.92578125 C14.564918,6.92578125 14.8007812,7.16164453 14.8007812,7.453125 L14.8007812,7.98046875 L16.4179688,7.98046875 C16.7094492,7.98046875 16.9453125,8.21633203 16.9453125,8.5078125 C16.9453125,8.79929297 16.7094492,9.03515625 16.4179688,9.03515625 Z"></path>
                            <path d="M8.58389062,1.38582422 C8.48552344,0.595828125 7.81038281,0 7.01423437,0 L1.58203125,0 C0.709664062,0 0,0.709664062 0,1.58203125 L0,13.2539062 C0,14.1262734 0.709664062,14.8359375 1.58203125,14.8359375 C4.73449219,14.8359375 7.00231641,14.8359375 9.89827734,14.8359375 C10.0521211,14.6600859 10.1810742,14.5499766 10.1865243,14.3204414 C10.1878594,14.2628906 8.59102734,1.44291797 8.58389062,1.38582422 Z M6.46678125,10.079543 C6.18714844,10.1370937 5.90389453,9.95554687 5.84623828,9.666 L5.50919531,7.98046875 L4.01818359,7.98046875 L3.68114062,9.666 C3.62450391,9.95129297 3.34947656,10.1387461 3.06059766,10.079543 C2.77530469,10.0223789 2.58989062,9.74482031 2.64705469,9.459 L3.70170703,4.1855625 C3.75113672,3.93939844 3.96745312,3.76171875 4.21875,3.76171875 L5.30859375,3.76171875 C5.55989062,3.76171875 5.77620703,3.93939844 5.82563672,4.1855625 L6.88032422,9.459 C6.93748828,9.74482031 6.75210937,10.0223789 6.46678125,10.079543 Z"></path>
                            <path d="M6.16151953,15.890625 L6.25201172,16.6141758 C6.31233984,17.0987344 6.63430078,17.5928555 7.16389453,17.839582 C8.16331641,16.7394023 7.55866406,17.4049805 8.93432813,15.890625 L6.16151953,15.890625 Z"></path>
                        </g>
                    </g>
                </g>
            </g>
        </g>
    </g>
</svg>
