
<svg width="30px" height="34px" viewBox="0 0 30 34" version="1.1" xmlns="http://www.w3.org/2000/svg" xmlns:xlink="http://www.w3.org/1999/xlink">

    <title>Shape</title>
    
    <g id="Page-1" stroke="none" stroke-width="1" fill="none" fill-rule="evenodd">
        <g id="header-builder" transform="translate(-1147.000000, -280.000000)" fill="#BBBBBB" fill-rule="nonzero">
            <path d="M1151,308 L1157,308 L1157,314 L1151,314 L1151,308 Z M1151,300 L1157,300 L1157,306 L1151,306 L1151,300 Z M1159,300 L1165,300 L1165,306 L1159,306 L1159,300 Z M1151,292 L1157,292 L1157,298 L1151,298 L1151,292 Z M1159,292 L1165,292 L1165,298 L1159,298 L1159,292 Z M1167,292 L1173,292 L1173,298 L1167,298 L1167,292 Z M1147,280 L1153.42857,280 L1153.42857,284.005409 L1158.78571,284.005409 L1158.78571,280 L1165.21429,280 L1165.21429,284.005409 L1170.57143,284.005409 L1170.57143,280 L1177,280 L1177,287.010216 L1173.78571,290 L1150.21429,290 L1147,287.011218 L1147,280 Z"></path>
        </g>
    </g>
</svg>