<svg width="15px" height="18px" viewBox="0 0 15 18" version="1.1" xmlns="http://www.w3.org/2000/svg" xmlns:xlink="http://www.w3.org/1999/xlink">
    <title>opening-hours</title>
    <g id="Page-1" stroke="none" stroke-width="1" fill="none" fill-rule="evenodd">
        <g id="header-builder" transform="translate(-650.000000, -961.000000)" fill="#BBBBBB" fill-rule="nonzero">
            <g transform="translate(50.000000, 250.000000)" id="elements">
                <g transform="translate(137.000000, 570.000000)">
                    <g id="opening-hours" transform="translate(449.000000, 131.000000)">
                        <g transform="translate(14.000000, 10.000000)">
                            <path d="M0.084375,8.04375 C0.309375,10.321875 1.603125,12.740625 3.76875,15.01875 C5.4,16.70625 6.946875,17.746875 7.003125,17.775 L7.3125,18 L7.621875,17.803125 C7.875,17.634375 13.95,13.5 14.540625,8.071875 C14.540625,8.015625 14.540625,7.9875 14.540625,7.93125 C14.56875,7.678125 14.56875,7.453125 14.56875,7.25625 C14.56875,3.2625 11.30625,0 7.3125,0 C3.31875,0 0.05625,3.2625 0.05625,7.25625 C0.05625,7.48125 0.05625,7.70625 0.084375,7.959375 L0.084375,8.04375 Z M7.3125,1.125 C10.715625,1.125 13.471875,3.88125 13.471875,7.284375 C13.471875,7.453125 13.471875,7.65 13.44375,7.875 L13.44375,7.9875 C12.965625,12.20625 8.521875,15.75 7.3125,16.65 C6.075,15.75 1.63125,12.234375 1.209375,7.959375 L1.209375,7.875 C1.18125,7.65 1.18125,7.453125 1.18125,7.284375 C1.153125,3.88125 3.909375,1.125 7.3125,1.125 Z"></path>
                            <path d="M7.3125,8.38125 L10.096875,8.38125 C10.40625,8.38125 10.659375,8.128125 10.659375,7.81875 C10.659375,7.509375 10.40625,7.25625 10.096875,7.25625 L7.846875,7.25625 L7.846875,3.909375 C7.846875,3.6 7.59375,3.346875 7.284375,3.346875 C6.975,3.346875 6.721875,3.6 6.721875,3.909375 L6.721875,7.81875 C6.75,8.128125 7.003125,8.38125 7.3125,8.38125 Z"></path>
                        </g>
                    </g>
                </g>
            </g>
        </g>
    </g>
</svg>
