
<svg width="18px" height="18px" viewBox="0 0 18 18" version="1.1" xmlns="http://www.w3.org/2000/svg" xmlns:xlink="http://www.w3.org/1999/xlink">

    <title>Shape</title>
    
    <g id="Page-1" stroke="none" stroke-width="1" fill="none" fill-rule="evenodd">
        <g id="header-builder" transform="translate(-393.000000, -961.000000)" fill="#BBBBBB" fill-rule="nonzero">
            <g id="elements" transform="translate(187.000000, 820.000000)">
                <g id="phone-number" transform="translate(192.000000, 131.000000)">
                    <path d="M27.6125,28 C24.2375,28 20.69375,24.934375 18.865625,23.134375 C17.065625,21.30625 14,17.734375 14,14.3875 C14,11.659375 16.3625,10.16875 17.31875,10.028125 C17.403125,10.028125 17.515625,10 17.6,10 C18.5,10 18.978125,10.675 19.203125,11.040625 L19.23125,11.125 C19.428125,11.40625 20.215625,12.615625 20.721875,13.403125 C20.91875,13.7125 21.0875,13.965625 21.14375,14.05 C21.509375,14.640625 21.70625,15.79375 20.665625,16.6375 L20.553125,16.721875 C20.13125,17.059375 19.878125,17.284375 19.878125,17.621875 C19.85,18.04375 20.13125,18.859375 21.65,20.35 C23.1125,21.8125 23.9,22.121875 24.321875,22.121875 C24.715625,22.121875 24.940625,21.86875 25.278125,21.446875 L25.3625,21.334375 C25.896875,20.6875 26.4875,20.546875 26.909375,20.546875 C27.44375,20.546875 27.809375,20.771875 27.95,20.85625 C28.0625,20.9125 28.315625,21.08125 28.625,21.30625 C29.4125,21.8125 30.59375,22.6 30.875,22.76875 L30.959375,22.825 C31.353125,23.078125 32.140625,23.6125 31.971875,24.709375 C31.83125,25.6375 30.340625,28 27.6125,28 Z M17.571875,11.125 C17.54375,11.125 17.4875,11.125 17.459375,11.125 C17.065625,11.18125 15.125,12.221875 15.125,14.3875 C15.125,16.553125 16.784375,19.45 19.68125,22.346875 C22.55,25.215625 25.475,26.875 27.6125,26.875 C29.75,26.875 30.790625,24.934375 30.846875,24.540625 C30.903125,24.203125 30.734375,24.034375 30.3125,23.753125 L30.228125,23.696875 C29.975,23.528125 28.79375,22.740625 28.00625,22.234375 C27.66875,22.009375 27.415625,21.840625 27.303125,21.784375 C27.21875,21.728125 27.05,21.671875 26.88125,21.671875 C26.628125,21.671875 26.403125,21.784375 26.20625,22.0375 L26.121875,22.15 C25.784375,22.6 25.25,23.275 24.29375,23.275 C23.3375,23.275 22.240625,22.6 20.80625,21.19375 C19.315625,19.703125 18.66875,18.578125 18.725,17.59375 C18.78125,16.721875 19.4,16.215625 19.821875,15.878125 L19.934375,15.79375 C20.553125,15.2875 20.215625,14.753125 20.1875,14.696875 C20.13125,14.6125 19.9625,14.359375 19.765625,14.05 C19.2875,13.290625 18.471875,12.053125 18.275,11.8 L18.21875,11.715625 C18.021875,11.321875 17.853125,11.125 17.571875,11.125 Z"></path>
                </g>
            </g>
        </g>
    </g>
</svg>