<svg xmlns="http://www.w3.org/2000/svg" width="14" height="14" viewBox="0 0 14 14">
  <path fill="#BBB" d="M15.0585385,10 C15.0585385,10.23 15.0385385,10.46 15.0085385,10.68 L16.4885385,11.84 C16.6185385,11.95 16.6585385,12.14 16.5685385,12.29 L15.1685385,14.71 C15.0785385,14.86 14.8985385,14.92 14.7385385,14.86 L12.9985385,14.16 C12.6385385,14.44 12.2385385,14.67 11.8185385,14.85 L11.5585385,16.7 C11.5285385,16.87 11.3785385,17 11.2085385,17 L8.40853853,17 C8.23853853,17 8.08853853,16.87 8.05853853,16.71 L7.79853853,14.86 C7.36853853,14.68 6.97853853,14.45 6.61853853,14.17 L4.87853853,14.87 C4.71853853,14.93 4.53853853,14.87 4.44853853,14.72 L3.04853853,12.3 C2.95853853,12.15 2.99853853,11.96 3.12853853,11.85 L4.60853853,10.69 C4.57853853,10.46 4.55853853,10.23 4.55853853,10 C4.55853853,9.77 4.57853853,9.54 4.60853853,9.32 L3.12853853,8.16 C2.99853853,8.05 2.95853853,7.86 3.04853853,7.71 L4.44853853,5.29 C4.53853853,5.14 4.71853853,5.08 4.87853853,5.14 L6.61853853,5.84 C6.97853853,5.56 7.37853853,5.33 7.79853853,5.15 L8.05853853,3.3 C8.08853853,3.13 8.23853853,3 8.40853853,3 L11.2085385,3 C11.3785385,3 11.5285385,3.13 11.5585385,3.29 L11.8185385,5.14 C12.2485385,5.32 12.6385385,5.55 12.9985385,5.83 L14.7385385,5.13 C14.8985385,5.07 15.0785385,5.13 15.1685385,5.28 L16.5685385,7.7 C16.6585385,7.85 16.6185385,8.04 16.4885385,8.15 L15.0085385,9.31 C15.0385385,9.54 15.0585385,9.77 15.0585385,10 Z M9.80853853,8 C8.70853853,8 7.80853853,8.9 7.80853853,10 C7.80853853,11.1 8.70853853,12 9.80853853,12 C10.9085385,12 11.8085385,11.1 11.8085385,10 C11.8085385,8.9 10.9085385,8 9.80853853,8 Z" transform="translate(-3 -3)"/>
</svg>
