
<svg width="18px" height="6px" viewBox="0 0 18 6" version="1.1" xmlns="http://www.w3.org/2000/svg" xmlns:xlink="http://www.w3.org/1999/xlink">


    
    <g id="Page-1" stroke="none" stroke-width="1" fill="none" fill-rule="evenodd">
        <g id="header-builder" transform="translate(-892.000000, -968.000000)" fill="#BBBBBB" fill-rule="nonzero">
            <g id="elements" transform="translate(187.000000, 820.000000)">
                <g id="space" transform="translate(691.000000, 132.000000)">
                    <g id="arrows-h" transform="translate(14.000000, 16.000000)">
                        <path d="M14.990625,0.421875 C14.765625,0.225 14.4,0.225 14.203125,0.478125 C14.00625,0.73125 14.00625,1.06875 14.259375,1.265625 L15.69375,2.53125 L2.334375,2.53125 L3.76875,1.265625 C3.99375,1.06875 4.021875,0.703125 3.825,0.478125 C3.628125,0.253125 3.2625,0.225 3.0375,0.421875 L0,3.09375 L3.009375,5.765625 C3.121875,5.85 3.2625,5.90625 3.375,5.90625 C3.54375,5.90625 3.684375,5.85 3.796875,5.709375 C3.99375,5.484375 3.99375,5.11875 3.740625,4.921875 L2.334375,3.65625 L15.69375,3.65625 L14.259375,4.921875 C14.034375,5.11875 14.00625,5.484375 14.203125,5.709375 C14.315625,5.821875 14.45625,5.90625 14.625,5.90625 C14.765625,5.90625 14.878125,5.85 14.990625,5.765625 L18,3.09375 L14.990625,0.421875 Z"></path>
                    </g>
                </g>
            </g>
        </g>
    </g>
</svg>