
<svg width="16px" height="18px" viewBox="0 0 16 18" version="1.1" xmlns="http://www.w3.org/2000/svg" xmlns:xlink="http://www.w3.org/1999/xlink">

    <title>text-edit</title>

    <g id="Page-1" stroke="none" stroke-width="1" fill="none" fill-rule="evenodd">
        <g id="header-builder" transform="translate(-307.000000, -961.000000)" fill="#BBBBBB" fill-rule="nonzero">
            <g id="elements" transform="translate(187.000000, 820.000000)">
                <g id="link" transform="translate(106.000000, 131.000000)">
                    <g id="text-edit" transform="translate(14.000000, 10.000000)">
                        <path d="M11.4,5 C11.07,5 10.8,4.775 10.8,4.5 L10.8,3 L1.2,3 L1.2,4.5 C1.2,4.775 0.93,5 0.6,5 C0.27,5 0,4.775 0,4.5 L0,2 L12,2 L12,4.5 C12,4.775 11.73,5 11.4,5 Z"></path>
                        <path d="M5.5,16 C5.225,16 5,15.7375 5,15.4166667 L5,2.58333333 C5,2.2625 5.225,2 5.5,2 C5.775,2 6,2.2625 6,2.58333333 L6,15.4166667 C6,15.7375 5.775,16 5.5,16 Z"></path>
                        <path d="M8.41666667,16 L2.58333333,16 C2.2625,16 2,15.775 2,15.5 C2,15.225 2.2625,15 2.58333333,15 L8.41666667,15 C8.7375,15 9,15.225 9,15.5 C9,15.775 8.7375,16 8.41666667,16 Z"></path>
                        <path d="M15.5,18 C15.225,18 15,17.746875 15,17.4375 L15,0.5625 C15,0.253125 15.225,0 15.5,0 C15.775,0 16,0.253125 16,0.5625 L16,17.4375 C16,17.746875 15.775,18 15.5,18 Z"></path>
                    </g>
                </g>
            </g>
        </g>
    </g>
</svg>
