
<svg width="18px" height="15px" viewBox="0 0 18 15" version="1.1" xmlns="http://www.w3.org/2000/svg" xmlns:xlink="http://www.w3.org/1999/xlink">


    
    <g id="Page-1" stroke="none" stroke-width="1" fill="none" fill-rule="evenodd">
        <g id="header-builder" transform="translate(-508.000000, -877.000000)" fill="#0072FF" fill-rule="nonzero">
            <g id="elements" transform="translate(187.000000, 820.000000)">
                <g id="search" transform="translate(307.000000, 45.000000)">
                    <g id="heart" transform="translate(14.000000, 12.000000)">
                        <g id="twitter">
                            <path d="M16.1497266,3.64626563 C16.1611523,3.80615625 16.1611523,3.96608203 16.1611523,4.12597266 C16.1611523,9.00284766 12.44925,14.6221523 5.66497266,14.6221523 C3.57486328,14.6221523 1.63325391,14.0167969 0,12.966082 C0.296964844,13.0003242 0.58246875,13.01175 0.890859375,13.01175 C2.61544922,13.01175 4.20303516,12.4292812 5.47080469,11.435625 C3.84897656,11.4013477 2.48983594,10.3391719 2.02155469,8.87723437 C2.25,8.91147656 2.47841016,8.93432813 2.71828125,8.93432813 C3.04948828,8.93432813 3.38073047,8.888625 3.68908594,8.80871484 C1.99873828,8.46604687 0.730933594,6.98129297 0.730933594,5.18814844 L0.730933594,5.14248047 C1.22203125,5.41659375 1.79314453,5.58791016 2.39842969,5.61072656 C1.40477344,4.94827734 0.753785156,3.81758203 0.753785156,2.53838672 C0.753785156,1.85312109 0.936492188,1.22494922 1.25630859,0.676722656 C3.07230469,2.91529687 5.80201172,4.37719922 8.86289063,4.537125 C8.80579688,4.26301172 8.77151953,3.97750781 8.77151953,3.69196875 C8.77151953,1.65895312 10.4161992,0.0028828125 12.4606055,0.0028828125 C13.5227813,0.0028828125 14.4821602,0.4483125 15.1560352,1.16785547 C15.9897656,1.00796484 16.7892539,0.699574219 17.4974063,0.276996094 C17.2232578,1.13361328 16.6407891,1.85315625 15.8755781,2.30997656 C16.6179727,2.23006641 17.3375156,2.0244375 17.9999297,1.73893359 C17.4974766,2.46986719 16.8692695,3.12085547 16.1497266,3.64626563 Z"></path>
                        </g>
                    </g>
                </g>
            </g>
        </g>
    </g>
</svg>