
<svg width="18px" height="18px" viewBox="0 0 18 18" version="1.1" xmlns="http://www.w3.org/2000/svg" xmlns:xlink="http://www.w3.org/1999/xlink">

    <title>zoom</title>
    
    <g id="Page-1" stroke="none" stroke-width="1" fill="none" fill-rule="evenodd">
        <g id="header-builder" transform="translate(-405.000000, -876.000000)" fill="#FFC168" fill-rule="nonzero">
            <g id="elements" transform="translate(187.000000, 820.000000)">
                <g id="search" transform="translate(204.000000, 46.000000)">
                    <g id="zoom" transform="translate(14.000000, 10.000000)">
                        <path d="M17.83125,17.04375 L11.98125,11.19375 C12.99375,10.0125 13.584375,8.465625 13.584375,6.80625 C13.584375,3.0375 10.546875,0 6.80625,0 C3.065625,0 0,3.0375 0,6.80625 C0,10.575 3.0375,13.6125 6.80625,13.6125 C8.465625,13.6125 10.0125,12.99375 11.19375,12.009375 L17.04375,17.859375 C17.15625,17.94375 17.296875,18 17.4375,18 C17.578125,18 17.71875,17.94375 17.83125,17.83125 C18.05625,17.60625 18.05625,17.26875 17.83125,17.04375 Z M1.125,6.80625 C1.125,3.684375 3.65625,1.125 6.80625,1.125 C9.95625,1.125 12.4875,3.65625 12.4875,6.80625 C12.4875,9.95625 9.95625,12.4875 6.80625,12.4875 C3.65625,12.4875 1.125,9.928125 1.125,6.80625 Z"></path>
                    </g>
                </g>
            </g>
        </g>
    </g>
</svg>