

<svg version="1.1" id="Layer_1" xmlns="http://www.w3.org/2000/svg" xmlns:xlink="http://www.w3.org/1999/xlink" x="0px" y="0px"
	 width="100px" height="100px" viewBox="0 0 100 100" enable-background="new 0 0 100 100" xml:space="preserve">
<g id="Bills_1_">
	<path fill="#D1008D" d="M89.583,100H10.417c-1.152,0-2.083-0.932-2.083-2.083V2.083C8.333,0.932,9.265,0,10.417,0h49.872
		c1.147,0,2.079,0.928,2.083,2.075l0.12,27.091h27.091c1.152,0,2.083,0.932,2.083,2.083v66.667C91.667,99.068,90.735,100,89.583,100
		z M12.5,95.833h75v-62.5H60.417c-1.147,0-2.079-0.928-2.083-2.075l-0.12-27.091H12.5V95.833z"/>
	<path fill="#D1008D" d="M89.583,33.333c-0.533,0-1.066-0.203-1.473-0.61L58.944,3.556c-0.814-0.814-0.814-2.132,0-2.946
		c0.814-0.814,2.132-0.814,2.946,0l29.167,29.167c0.814,0.814,0.814,2.132,0,2.946C90.649,33.13,90.116,33.333,89.583,33.333z"/>
	<path fill="#D1008D" d="M77.083,83.333H22.917c-1.152,0-2.083-0.932-2.083-2.083s0.932-2.083,2.083-2.083h54.167
		c1.152,0,2.083,0.932,2.083,2.083S78.235,83.333,77.083,83.333z"/>
	<path fill="#D1008D" d="M77.083,66.667H22.917c-1.152,0-2.083-0.932-2.083-2.083c0-1.152,0.932-2.083,2.083-2.083h54.167
		c1.152,0,2.083,0.932,2.083,2.083C79.167,65.735,78.235,66.667,77.083,66.667z"/>
	<path fill="#D1008D" d="M77.083,50H22.917c-1.152,0-2.083-0.932-2.083-2.083c0-1.152,0.932-2.083,2.083-2.083h54.167
		c1.152,0,2.083,0.932,2.083,2.083C79.167,49.068,78.235,50,77.083,50z"/>
	<path fill="#D1008D" d="M43.75,20.833H22.917c-1.152,0-2.083-0.932-2.083-2.083s0.932-2.083,2.083-2.083H43.75
		c1.152,0,2.083,0.932,2.083,2.083S44.902,20.833,43.75,20.833z"/>
</g>
<g id="Money" display="none">
	<path display="inline" fill="#FFC400" d="M72.917,20.676c-13.46,0-27.083-3.577-27.083-10.416c0-13.68,54.166-13.68,54.166,0
		C100,17.1,86.377,20.676,72.917,20.676z M72.917,4.01c-14.827,0-22.916,4.13-22.916,6.25s8.089,6.25,22.916,6.25
		s22.916-4.13,22.916-6.25S87.744,4.01,72.917,4.01z"/>
	<path display="inline" fill="#FFC400" d="M72.917,99.841c-13.46,0-27.083-3.577-27.083-10.416V10.26
		c0-1.152,0.932-2.083,2.083-2.083c1.152,0,2.083,0.932,2.083,2.083v79.165c0,2.12,8.089,6.25,22.916,6.25s22.916-4.13,22.916-6.25
		V10.26c0-1.152,0.932-2.083,2.083-2.083S100,9.108,100,10.26v79.165C100,96.265,86.377,99.841,72.917,99.841z"/>
	<path display="inline" fill="#FFC400" d="M72.917,41.509c-13.46,0-27.083-3.577-27.083-10.416c0-1.152,0.932-2.083,2.083-2.083
		c1.152,0,2.083,0.932,2.083,2.083c0,2.12,8.089,6.25,22.916,6.25s22.916-4.13,22.916-6.25c0-1.152,0.932-2.083,2.083-2.083
		S100,29.941,100,31.093C100,37.933,86.377,41.509,72.917,41.509z"/>
	<path display="inline" fill="#FFC400" d="M72.917,62.342c-13.46,0-27.083-3.577-27.083-10.416c0-1.152,0.932-2.083,2.083-2.083
		c1.152,0,2.083,0.932,2.083,2.083c0,2.12,8.089,6.25,22.916,6.25s22.916-4.13,22.916-6.25c0-1.152,0.932-2.083,2.083-2.083
		S100,50.774,100,51.926C100,58.765,86.377,62.342,72.917,62.342z"/>
	<path display="inline" fill="#FFC400" d="M72.917,83.175c-13.46,0-27.083-3.577-27.083-10.416c0-1.152,0.932-2.083,2.083-2.083
		c1.152,0,2.083,0.932,2.083,2.083c0,2.12,8.089,6.25,22.916,6.25s22.916-4.13,22.916-6.25c0-1.152,0.932-2.083,2.083-2.083
		S100,71.607,100,72.759C100,79.598,86.377,83.175,72.917,83.175z"/>
	<path display="inline" fill="#FFC400" d="M72.917,99.841c-13.46,0-27.083-3.577-27.083-10.416c0-1.152,0.932-2.083,2.083-2.083
		c1.152,0,2.083,0.932,2.083,2.083c0,2.12,8.089,6.25,22.916,6.25s22.916-4.13,22.916-6.25c0-1.152,0.932-2.083,2.083-2.083
		S100,88.273,100,89.425C100,96.265,86.377,99.841,72.917,99.841z"/>
	<path display="inline" fill="#FFC400" d="M72.917,20.676c-13.46,0-27.083-3.577-27.083-10.416c0-1.152,0.932-2.083,2.083-2.083
		c1.152,0,2.083,0.932,2.083,2.083c0,2.12,8.089,6.25,22.916,6.25s22.916-4.13,22.916-6.25c0-1.152,0.932-2.083,2.083-2.083
		S100,9.108,100,10.26C100,17.1,86.377,20.676,72.917,20.676z"/>
	<path display="inline" fill="#FFC400" d="M27.085,49.842c-13.458,0-27.083-3.577-27.083-10.416s13.625-10.416,27.083-10.416
		c8.699,0,16.837,1.473,21.765,3.943c1.029,0.517,1.444,1.766,0.932,2.795c-0.517,1.038-1.778,1.449-2.795,0.932
		c-4.378-2.193-11.82-3.503-19.901-3.503c-14.827,0-22.916,4.13-22.916,6.25s8.089,6.25,22.916,6.25
		c8.016,0,15.421-1.294,19.808-3.459c1.034-0.5,2.283-0.085,2.791,0.944c0.509,1.034,0.085,2.283-0.944,2.791
		C43.804,48.39,35.711,49.842,27.085,49.842z"/>
	<path display="inline" fill="#FFC400" d="M27.083,91.508C13.625,91.508,0,87.932,0,81.092V39.426c0-1.152,0.932-2.083,2.083-2.083
		s2.083,0.932,2.083,2.083v41.666c0,2.12,8.089,6.25,22.916,6.25c8.018,0,15.423-1.294,19.81-3.459
		c1.034-0.509,2.283-0.085,2.791,0.944c0.509,1.034,0.085,2.283-0.944,2.791C43.804,90.056,35.711,91.508,27.083,91.508z"/>
	<path display="inline" fill="#FFC400" d="M27.085,70.675c-13.458,0-27.083-3.577-27.083-10.416c0-1.152,0.932-2.083,2.083-2.083
		s2.083,0.932,2.083,2.083c0,2.12,8.089,6.25,22.916,6.25c8.016,0,15.421-1.294,19.808-3.459c1.034-0.509,2.283-0.085,2.791,0.944
		c0.509,1.034,0.085,2.283-0.944,2.791C43.804,69.223,35.711,70.675,27.085,70.675z"/>
	<path display="inline" fill="#FFC400" d="M27.085,91.508c-13.458,0-27.083-3.577-27.083-10.416c0-1.152,0.932-2.083,2.083-2.083
		s2.083,0.932,2.083,2.083c0,2.12,8.089,6.25,22.916,6.25c8.016,0,15.421-1.294,19.808-3.459c1.034-0.509,2.283-0.085,2.791,0.944
		c0.509,1.034,0.085,2.283-0.944,2.791C43.804,90.056,35.711,91.508,27.085,91.508z"/>
</g>
<g id="Eating_out" display="none">
	<path display="inline" fill="#7722A8" d="M81.25,45.832H56.251c-1.152,0-2.083-0.932-2.083-2.083V27.083
		C54.168,12.15,66.317,0,81.25,0c1.152,0,2.083,0.932,2.083,2.083v41.666C83.334,44.901,82.402,45.832,81.25,45.832z M58.334,41.666
		h20.833V4.26C67.501,5.314,58.334,15.149,58.334,27.083V41.666z"/>
	<path display="inline" fill="#7722A8" d="M18.752,33.333c-1.152,0-2.083-0.932-2.083-2.083V2.083C16.668,0.932,17.6,0,18.752,0
		s2.083,0.932,2.083,2.083v29.166C20.835,32.401,19.903,33.333,18.752,33.333z"/>
	<path display="inline" fill="#7722A8" d="M43.751,33.333c-1.152,0-2.083-0.932-2.083-2.083V2.083C41.668,0.932,42.6,0,43.751,0
		s2.083,0.932,2.083,2.083v29.166C45.834,32.401,44.903,33.333,43.751,33.333z"/>
	<path display="inline" fill="#7722A8" d="M31.251,33.333c-1.152,0-2.083-0.932-2.083-2.083V2.083C29.168,0.932,30.1,0,31.251,0
		s2.083,0.932,2.083,2.083v29.166C33.335,32.401,32.403,33.333,31.251,33.333z"/>
	<path display="inline" fill="#7722A8" d="M31.251,45.832c-8.04,0-14.583-6.543-14.583-14.583c0-1.152,0.932-2.083,2.083-2.083
		h24.999c1.152,0,2.083,0.932,2.083,2.083C45.834,39.29,39.292,45.832,31.251,45.832z M21.044,33.333
		c0.968,4.748,5.176,8.333,10.207,8.333c5.029,0,9.241-3.585,10.209-8.333H21.044z"/>
	<path display="inline" fill="#7722A8" d="M68.751,87.498c-3.446,0-6.25-2.803-6.25-6.25V43.749c0-1.152,0.932-2.083,2.083-2.083
		h8.333c1.152,0,2.083,0.932,2.083,2.083v37.499C75.001,84.695,72.197,87.498,68.751,87.498z M66.667,45.832v35.416
		c0,1.147,0.936,2.083,2.083,2.083s2.083-0.936,2.083-2.083V45.832H66.667z"/>
	<path display="inline" fill="#7722A8" d="M31.251,87.498c-3.446,0-6.25-2.803-6.25-6.25V43.749c0-1.152,0.932-2.083,2.083-2.083
		h8.333c1.152,0,2.083,0.932,2.083,2.083v37.499C37.501,84.695,34.698,87.498,31.251,87.498z M29.168,45.832v35.416
		c0,1.147,0.936,2.083,2.083,2.083c1.147,0,2.083-0.936,2.083-2.083V45.832H29.168z"/>
	<path display="inline" fill="#7722A8" d="M64.588,67.451c-0.077,0-0.155-0.004-0.236-0.012c-9.147-1.017-19.555-1.017-28.702,0
		c-1.2,0.114-2.177-0.696-2.303-1.839s0.696-2.177,1.839-2.303c9.456-1.05,20.174-1.05,29.63,0c1.143,0.126,1.965,1.16,1.839,2.303
		C66.537,66.661,65.634,67.451,64.588,67.451z"/>
	<path display="inline" fill="#7722A8" d="M50.001,99.998C25.762,99.998,0,93.427,0,81.248c0-7.292,10.01-13.533,26.776-16.703
		c1.129-0.203,2.22,0.529,2.433,1.66c0.216,1.131-0.529,2.222-1.66,2.433c-13.985,2.645-23.382,7.711-23.382,12.61
		c0,6.897,18.823,14.583,45.834,14.583c27.01,0,45.832-7.686,45.832-14.583c0-4.887-9.367-9.949-23.307-12.593
		c-1.131-0.216-1.876-1.306-1.66-2.433c0.216-1.135,1.322-1.868,2.433-1.66c16.719,3.174,26.7,9.411,26.7,16.687
		C100,93.427,74.24,99.998,50.001,99.998z"/>
</g>
<g id="Housing" display="none">
	<path display="inline" fill="#00C681" d="M85.418,99.974H14.584c-1.152,0-2.083-0.932-2.083-2.083v-87.5
		c0-1.152,0.932-2.083,2.083-2.083h8.333c1.152,0,2.083,0.932,2.083,2.083v20.036c0,1.152-0.932,2.083-2.083,2.083
		c-1.152,0-2.083-0.932-2.083-2.083V12.474h-4.167v83.334h66.667v-56.25c0-1.152,0.932-2.083,2.083-2.083
		c1.152,0,2.083,0.932,2.083,2.083v58.334C87.501,99.042,86.569,99.974,85.418,99.974z"/>
	<path display="inline" fill="#00C681" d="M97.918,54.141c-0.549,0-1.095-0.216-1.506-0.643L50.001,5.068L3.587,53.498
		c-0.795,0.834-2.114,0.859-2.946,0.065c-0.83-0.798-0.859-2.116-0.061-2.946l47.915-50c0.789-0.822,2.222-0.822,3.011,0l47.917,50
		c0.793,0.83,0.765,2.148-0.065,2.946C98.955,53.949,98.434,54.141,97.918,54.141z"/>
	<path display="inline" fill="#00C681" d="M60.417,99.974c-1.152,0-2.083-0.932-2.083-2.083V74.974c0-4.594-3.739-8.333-8.333-8.333
		s-8.333,3.739-8.333,8.333v22.917c0,1.152-0.932,2.083-2.083,2.083c-1.152,0-2.083-0.932-2.083-2.083V74.974
		c0-6.893,5.607-12.5,12.5-12.5s12.5,5.607,12.5,12.5v22.917C62.501,99.042,61.569,99.974,60.417,99.974z"/>
	<path display="inline" fill="#00C681" d="M39.584,58.307h-12.5c-1.152,0-2.083-0.932-2.083-2.083v-12.5
		c0-1.152,0.932-2.083,2.083-2.083h12.5c1.152,0,2.083,0.932,2.083,2.083v12.5C41.667,57.375,40.736,58.307,39.584,58.307z
		 M29.167,54.141h8.333v-8.333h-8.333V54.141z"/>
	<path display="inline" fill="#00C681" d="M72.918,58.307h-12.5c-1.152,0-2.083-0.932-2.083-2.083v-12.5
		c0-1.152,0.932-2.083,2.083-2.083h12.5c1.152,0,2.083,0.932,2.083,2.083v12.5C75.001,57.375,74.069,58.307,72.918,58.307z
		 M62.501,54.141h8.333v-8.333h-8.333V54.141z"/>
</g>
<g id="Umbrella" display="none">
	<path display="inline" fill="#3D72F4" d="M89.583,50c-1.152,0-2.083-0.932-2.083-2.083c0-21.826-17.757-39.583-39.583-39.583
		S8.333,26.09,8.333,47.917C8.333,49.068,7.402,50,6.25,50s-2.083-0.932-2.083-2.083c0-24.125,19.627-43.75,43.75-43.75
		s43.75,19.625,43.75,43.75C91.667,49.068,90.735,50,89.583,50z"/>
	<path display="inline" fill="#3D72F4" d="M62.5,50c-1.152,0-2.083-0.932-2.083-2.083c0-23.328-6.588-39.583-12.5-39.583
		s-12.5,16.256-12.5,39.583c0,1.152-0.932,2.083-2.083,2.083c-1.152,0-2.083-0.932-2.083-2.083c0-21.208,5.841-43.75,16.667-43.75
		s16.667,22.542,16.667,43.75C64.583,49.068,63.652,50,62.5,50z"/>
	<path display="inline" fill="#3D72F4" d="M6.252,50c-0.724,0-1.426-0.378-1.811-1.05c-0.572-0.997-0.224-2.271,0.775-2.844
		c15.527-8.862,28.719-0.293,29.272,0.077c0.956,0.639,1.213,1.925,0.578,2.881c-0.633,0.96-1.933,1.217-2.883,0.59
		c-0.47-0.313-11.67-7.499-24.9,0.073C6.958,49.91,6.602,50,6.252,50z"/>
	<path display="inline" fill="#3D72F4" d="M62.502,50c-0.724,0-1.426-0.378-1.811-1.05c-0.572-0.997-0.224-2.271,0.775-2.844
		c15.525-8.862,28.719-0.293,29.272,0.077c0.956,0.639,1.213,1.925,0.578,2.881c-0.633,0.96-1.933,1.217-2.883,0.59
		c-0.474-0.313-11.67-7.499-24.9,0.073C63.208,49.91,62.852,50,62.502,50z"/>
	<path display="inline" fill="#3D72F4" d="M33.335,50c-0.724,0-1.426-0.378-1.811-1.05c-0.572-0.997-0.224-2.271,0.775-2.844
		c15.44-8.813,30.595-0.362,31.234,0c0.997,0.574,1.343,1.839,0.775,2.84c-0.568,0.997-1.845,1.339-2.838,0.781
		c-0.138-0.077-13.772-7.629-27.104,0C34.041,49.91,33.685,50,33.335,50z"/>
	<path display="inline" fill="#3D72F4" d="M47.917,8.333c-1.152,0-2.083-0.932-2.083-2.083V2.083C45.833,0.932,46.765,0,47.917,0
		C49.068,0,50,0.932,50,2.083V6.25C50,7.402,49.068,8.333,47.917,8.333z"/>
	<path display="inline" fill="#3D72F4" d="M47.917,75c-1.152,0-2.083-0.932-2.083-2.083V46.069c0-1.152,0.932-2.083,2.083-2.083
		c1.152,0,2.083,0.932,2.083,2.083v26.847C50,74.068,49.068,75,47.917,75z"/>
	<path display="inline" fill="#3D72F4" d="M97.917,100H2.083C0.932,100,0,99.068,0,97.917c0-1.152,0.932-2.083,2.083-2.083h95.833
		c1.152,0,2.083,0.932,2.083,2.083C100,99.068,99.068,100,97.917,100z"/>
	<path display="inline" fill="#3D72F4" d="M14.581,95.833c-0.397,0-0.798-0.114-1.154-0.35c-0.958-0.639-1.217-1.933-0.578-2.889
		l8.333-12.5c0.635-0.956,1.929-1.217,2.889-0.578c0.958,0.639,1.217,1.933,0.578,2.889l-8.333,12.5
		C15.916,95.508,15.255,95.833,14.581,95.833z"/>
	<path display="inline" fill="#3D72F4" d="M85.419,95.833c-0.673,0-1.335-0.326-1.735-0.928l-7.715-11.572H14.583
		c-1.152,0-2.083-0.932-2.083-2.083s0.932-2.083,2.083-2.083h62.5c0.696,0,1.347,0.35,1.733,0.928l8.333,12.5
		c0.639,0.956,0.38,2.25-0.578,2.889C86.216,95.719,85.815,95.833,85.419,95.833z"/>
	<path display="inline" fill="#3D72F4" d="M77.083,83.333c-0.533,0-1.066-0.203-1.473-0.61c-0.814-0.814-0.814-2.132,0-2.946
		l20.833-20.833c0.814-0.814,2.132-0.814,2.946,0c0.814,0.814,0.814,2.132,0,2.946L78.556,82.723
		C78.149,83.13,77.616,83.333,77.083,83.333z"/>
</g>
<g id="Personal_Care" display="none">
	<path display="inline" fill="#F0216D" d="M85.415,41.672H72.913c-1.152,0-2.084-0.932-2.084-2.084V29.17H60.412
		c-1.152,0-2.084-0.932-2.084-2.084V14.585c0-1.152,0.932-2.084,2.084-2.084H70.83V2.084C70.83,0.932,71.762,0,72.913,0h12.501
		c1.152,0,2.084,0.932,2.084,2.084v10.418h10.418c1.152,0,2.084,0.932,2.084,2.084v12.501c0,1.152-0.932,2.084-2.084,2.084H87.499
		v10.418C87.499,40.74,86.567,41.672,85.415,41.672z M74.997,37.504h8.334V27.087c0-1.152,0.932-2.084,2.084-2.084h10.418v-8.334
		H85.415c-1.152,0-2.084-0.932-2.084-2.084V4.167h-8.334v10.418c0,1.152-0.932,2.084-2.084,2.084H62.496v8.334h10.418
		c1.152,0,2.084,0.932,2.084,2.084V37.504z"/>
	<path display="inline" fill="#F0216D" d="M49.994,99.975c-0.533,0-1.066-0.203-1.473-0.61L6.713,57.555
		c-8.951-8.949-8.951-23.513,0-32.462c8.951-8.945,23.511-8.945,32.458,0l10.823,10.829l9.974-9.974
		c0.814-0.814,2.132-0.814,2.946,0c0.814,0.814,0.814,2.132,0,2.946L51.467,40.341c-0.391,0.391-0.92,0.61-1.473,0.61l0,0
		c-0.553,0-1.082-0.22-1.473-0.61L36.225,28.039c-7.323-7.329-19.243-7.329-26.566,0c-7.325,7.325-7.325,19.245,0,26.57
		l40.335,40.337l40.337-40.337c7.046-7.048,7.366-18.378,0.724-25.801c-0.767-0.855-0.694-2.173,0.163-2.942
		c0.853-0.761,2.175-0.688,2.942,0.167c8.115,9.067,7.728,22.911-0.883,31.522l-41.81,41.81
		C51.06,99.772,50.527,99.975,49.994,99.975z"/>
</g>
<g id="Bag" display="none">
	<path display="inline" fill="#FF9200" d="M65.917,100.002H34.079C15.288,100.002,0,84.714,0,65.919V31.251
		c0-1.152,0.932-2.083,2.083-2.083h95.835c1.152,0,2.081,0.932,2.081,2.083v34.669C100,84.714,84.712,100.002,65.917,100.002z
		 M4.167,33.334v32.585c0,16.496,13.418,29.916,29.912,29.916h31.839c16.496,0,29.918-13.42,29.918-29.916V33.334H4.167z"/>
	<path display="inline" fill="#FF9200" d="M68.749,45.834c-1.152,0-2.083-0.932-2.083-2.083V20.834
		c0-9.192-7.477-16.667-16.667-16.667s-16.667,7.475-16.667,16.667v22.917c0,1.152-0.932,2.083-2.083,2.083
		c-1.152,0-2.083-0.932-2.083-2.083V20.834C29.165,9.347,38.512,0,49.999,0s20.834,9.347,20.834,20.834v22.917
		C70.833,44.902,69.901,45.834,68.749,45.834z"/>
	<path display="inline" fill="#FF9200" d="M31.249,54.168c-3.447,0-6.25-2.804-6.25-6.25s2.804-6.25,6.25-6.25s6.25,2.804,6.25,6.25
		S34.695,54.168,31.249,54.168z M31.249,45.834c-1.15,0-2.083,0.936-2.083,2.083s0.934,2.083,2.083,2.083s2.083-0.936,2.083-2.083
		S32.398,45.834,31.249,45.834z"/>
	<path display="inline" fill="#FF9200" d="M68.749,54.168c-3.447,0-6.25-2.804-6.25-6.25s2.804-6.25,6.25-6.25
		c3.447,0,6.25,2.804,6.25,6.25S72.196,54.168,68.749,54.168z M68.749,45.834c-1.15,0-2.083,0.936-2.083,2.083
		s0.934,2.083,2.083,2.083c1.15,0,2.083-0.936,2.083-2.083S69.899,45.834,68.749,45.834z"/>
</g>
<g id="Arrows" display="none">
	<path display="inline" fill="#60CDF8" d="M81.25,100h-62.5C8.411,100,0,91.589,0,81.25v-62.5C0,8.411,8.411,0,18.75,0h62.5
		C91.589,0,100,8.411,100,18.75v62.5C100,91.589,91.589,100,81.25,100z M18.75,4.167c-8.04,0-14.583,6.543-14.583,14.583v62.5
		c0,8.04,6.543,14.583,14.583,14.583h62.5c8.04,0,14.583-6.543,14.583-14.583v-62.5c0-8.04-6.543-14.583-14.583-14.583H18.75z"/>
	<path display="inline" fill="#60CDF8" d="M22.917,56.25c-1.152,0-2.083-0.932-2.083-2.083C20.833,38.086,33.917,25,50,25h18.75
		c1.152,0,2.083,0.932,2.083,2.083c0,1.152-0.932,2.083-2.083,2.083H50c-13.786,0-25,11.214-25,25
		C25,55.318,24.068,56.25,22.917,56.25z"/>
	<path display="inline" fill="#60CDF8" d="M56.25,41.667c-0.533,0-1.066-0.203-1.473-0.61c-0.814-0.814-0.814-2.132,0-2.946
		l11.027-11.027L54.777,16.056c-0.814-0.814-0.814-2.132,0-2.946c0.814-0.814,2.132-0.814,2.946,0l12.5,12.5
		c0.814,0.814,0.814,2.132,0,2.946l-12.5,12.5C57.316,41.463,56.783,41.667,56.25,41.667z"/>
	<path display="inline" fill="#60CDF8" d="M50,75H31.25c-1.152,0-2.083-0.932-2.083-2.083c0-1.152,0.932-2.083,2.083-2.083H50
		c13.786,0,25-11.214,25-25c0-1.152,0.932-2.083,2.083-2.083c1.152,0,2.083,0.932,2.083,2.083C79.167,61.914,66.083,75,50,75z"/>
	<path display="inline" fill="#60CDF8" d="M43.75,87.5c-0.533,0-1.066-0.203-1.473-0.61l-12.5-12.5
		c-0.814-0.814-0.814-2.132,0-2.946l12.5-12.5c0.814-0.814,2.132-0.814,2.946,0c0.814,0.814,0.814,2.132,0,2.946L34.196,72.917
		l11.027,11.027c0.814,0.814,0.814,2.132,0,2.946C44.816,87.297,44.283,87.5,43.75,87.5z"/>
</g>
<g id="bus" display="none">
	<path display="inline" fill="#002E74" d="M89.583,87.5H10.417c-1.152,0-2.083-0.932-2.083-2.083V18.75
		C8.333,8.411,16.744,0,27.083,0h45.833c10.339,0,18.75,8.411,18.75,18.75v66.667C91.667,86.568,90.735,87.5,89.583,87.5z
		 M12.5,83.333h75V18.75c0-8.04-6.543-14.583-14.583-14.583H27.083c-8.04,0-14.583,6.543-14.583,14.583V83.333z"/>
	<path display="inline" fill="#002E74" d="M25,100c-4.596,0-8.333-3.739-8.333-8.333v-6.25c0-1.152,0.932-2.083,2.083-2.083
		s2.083,0.932,2.083,2.083v6.25c0,2.299,1.87,4.167,4.167,4.167s4.167-1.868,4.167-4.167v-6.25c0-1.152,0.932-2.083,2.083-2.083
		c1.152,0,2.083,0.932,2.083,2.083v6.25C33.333,96.261,29.596,100,25,100z"/>
	<path display="inline" fill="#002E74" d="M75,100c-4.596,0-8.333-3.739-8.333-8.333v-6.25c0-1.152,0.932-2.083,2.083-2.083
		s2.083,0.932,2.083,2.083v6.25c0,2.299,1.87,4.167,4.167,4.167s4.167-1.868,4.167-4.167v-6.25c0-1.152,0.932-2.083,2.083-2.083
		s2.083,0.932,2.083,2.083v6.25C83.333,96.261,79.596,100,75,100z"/>
	<path display="inline" fill="#002E74" d="M2.083,58.333C0.932,58.333,0,57.402,0,56.25v-12.5c0-1.152,0.932-2.083,2.083-2.083
		s2.083,0.932,2.083,2.083v12.5C4.167,57.402,3.235,58.333,2.083,58.333z"/>
	<path display="inline" fill="#002E74" d="M97.917,58.333c-1.152,0-2.083-0.932-2.083-2.083v-12.5c0-1.152,0.932-2.083,2.083-2.083
		c1.152,0,2.083,0.932,2.083,2.083v12.5C100,57.402,99.068,58.333,97.917,58.333z"/>
	<path display="inline" fill="#002E74" d="M56.25,70.833h-12.5c-1.152,0-2.083-0.932-2.083-2.083s0.932-2.083,2.083-2.083h12.5
		c1.152,0,2.083,0.932,2.083,2.083S57.402,70.833,56.25,70.833z"/>
	<path display="inline" fill="#002E74" d="M77.083,50H22.917c-1.152,0-2.083-0.932-2.083-2.083V18.75
		c0-1.152,0.932-2.083,2.083-2.083h54.167c1.152,0,2.083,0.932,2.083,2.083v29.167C79.167,49.068,78.235,50,77.083,50z M25,45.833
		h50v-25H25V45.833z"/>
	<path display="inline" fill="#002E74" d="M27.083,70.833h-4.167c-1.152,0-2.083-0.932-2.083-2.083v-4.167
		c0-1.152,0.932-2.083,2.083-2.083h4.167c1.152,0,2.083,0.932,2.083,2.083v4.167C29.167,69.902,28.235,70.833,27.083,70.833z"/>
	<path display="inline" fill="#002E74" d="M77.083,70.833h-4.167c-1.152,0-2.083-0.932-2.083-2.083v-4.167
		c0-1.152,0.932-2.083,2.083-2.083h4.167c1.152,0,2.083,0.932,2.083,2.083v4.167C79.167,69.902,78.235,70.833,77.083,70.833z"/>
</g>
<g id="Suitcase" display="none">
	<path display="inline" fill="#EE0700" d="M89.583,100H10.417C4.673,100,0,95.329,0,89.583V31.25
		c0-5.745,4.673-10.417,10.417-10.417h79.167c5.743,0,10.417,4.671,10.417,10.417v58.333C100,95.329,95.327,100,89.583,100z
		 M10.417,25c-3.446,0-6.25,2.804-6.25,6.25v58.333c0,3.446,2.804,6.25,6.25,6.25h79.167c3.446,0,6.25-2.804,6.25-6.25V31.25
		c0-3.446-2.804-6.25-6.25-6.25H10.417z"/>
	<path display="inline" fill="#EE0700" d="M68.75,25c-1.152,0-2.083-0.932-2.083-2.083v-2.083c0-9.192-7.477-16.667-16.667-16.667
		s-16.667,7.475-16.667,16.667v2.083c0,1.152-0.932,2.083-2.083,2.083c-1.152,0-2.083-0.932-2.083-2.083v-2.083
		C29.167,9.347,38.513,0,50,0s20.833,9.347,20.833,20.833v2.083C70.833,24.068,69.902,25,68.75,25z"/>
	<path display="inline" fill="#EE0700" d="M18.75,100c-1.152,0-2.083-0.932-2.083-2.083v-75c0-1.152,0.932-2.083,2.083-2.083
		s2.083,0.932,2.083,2.083v75C20.833,99.068,19.902,100,18.75,100z"/>
	<path display="inline" fill="#EE0700" d="M81.25,100c-1.152,0-2.083-0.932-2.083-2.083v-75c0-1.152,0.932-2.083,2.083-2.083
		s2.083,0.932,2.083,2.083v75C83.333,99.068,82.402,100,81.25,100z"/>
	<path display="inline" fill="#EE0700" d="M47.917,75H31.25c-1.152,0-2.083-0.932-2.083-2.083V43.75c0-0.553,0.22-1.082,0.61-1.473
		l8.333-8.333c0.814-0.814,2.132-0.814,2.946,0l8.333,8.333C49.78,42.668,50,43.197,50,43.75v29.167C50,74.068,49.068,75,47.917,75z
		 M33.333,70.833h12.5V44.613l-6.25-6.25l-6.25,6.25V70.833z"/>
	<path display="inline" fill="#EE0700" d="M39.583,37.5c-1.152,0-2.083-0.932-2.083-2.083v-12.5c0-1.152,0.932-2.083,2.083-2.083
		c1.152,0,2.083,0.932,2.083,2.083v12.5C41.667,36.568,40.735,37.5,39.583,37.5z"/>
</g>
<g id="Trolleey" display="none">
	<path display="inline" fill="#D1008D" d="M81.25,75H14.583c-1.152,0-2.083-0.932-2.083-2.083v-62.5
		c0-1.152,0.932-2.083,2.083-2.083h83.333c1.152,0,2.083,0.932,2.083,2.083V56.25C100,66.589,91.589,75,81.25,75z M16.667,70.833
		H81.25c8.04,0,14.583-6.543,14.583-14.583V12.5H16.667V70.833z"/>
	<path display="inline" fill="#D1008D" d="M27.083,100c-5.743,0-10.417-4.671-10.417-10.417c0-5.745,4.673-10.417,10.417-10.417
		S37.5,83.838,37.5,89.583C37.5,95.329,32.827,100,27.083,100z M27.083,83.333c-3.446,0-6.25,2.804-6.25,6.25
		c0,3.446,2.804,6.25,6.25,6.25s6.25-2.804,6.25-6.25C33.333,86.137,30.53,83.333,27.083,83.333z"/>
	<path display="inline" fill="#D1008D" d="M81.25,100c-5.743,0-10.417-4.671-10.417-10.417c0-5.745,4.673-10.417,10.417-10.417
		s10.417,4.671,10.417,10.417C91.667,95.329,86.993,100,81.25,100z M81.25,83.333c-3.446,0-6.25,2.804-6.25,6.25
		c0,3.446,2.804,6.25,6.25,6.25s6.25-2.804,6.25-6.25C87.5,86.137,84.696,83.333,81.25,83.333z"/>
	<path display="inline" fill="#D1008D" d="M72.917,91.667h-37.5c-1.152,0-2.083-0.932-2.083-2.083c0-1.152,0.932-2.083,2.083-2.083
		h37.5c1.152,0,2.083,0.932,2.083,2.083C75,90.735,74.068,91.667,72.917,91.667z"/>
	<path display="inline" fill="#D1008D" d="M8.333,16.667C3.737,16.667,0,12.927,0,8.333S3.737,0,8.333,0s8.333,3.739,8.333,8.333
		S12.929,16.667,8.333,16.667z M8.333,4.167c-2.297,0-4.167,1.868-4.167,4.167S6.036,12.5,8.333,12.5S12.5,10.632,12.5,8.333
		S10.63,4.167,8.333,4.167z"/>
	<path display="inline" fill="#D1008D" d="M97.917,54.167H17.558c-1.152,0-2.083-0.932-2.083-2.083c0-1.152,0.932-2.083,2.083-2.083
		h80.359c1.152,0,2.083,0.932,2.083,2.083C100,53.235,99.068,54.167,97.917,54.167z"/>
	<path display="inline" fill="#D1008D" d="M97.917,33.333H17.558c-1.152,0-2.083-0.932-2.083-2.083c0-1.152,0.932-2.083,2.083-2.083
		h80.359c1.152,0,2.083,0.932,2.083,2.083C100,32.402,99.068,33.333,97.917,33.333z"/>
</g>
<g id="General" display="none">
	<path display="inline" fill="#A5A9AF" d="M50.001,100.002c-5.011,0-9.723-1.95-13.264-5.495L5.493,63.261
		C1.95,59.72,0,55.01,0,49.999s1.95-9.721,5.493-13.258L36.737,5.495C40.278,1.95,44.99,0,50.001,0s9.721,1.95,13.26,5.495
		l31.246,31.246C98.05,40.278,100,44.988,100,49.999s-1.95,9.721-5.493,13.262L63.261,94.507
		C59.722,98.052,55.012,100.002,50.001,100.002z M50.001,4.168c-3.898,0-7.561,1.518-10.317,4.274L8.44,39.688
		c-2.756,2.752-4.272,6.415-4.272,10.311s1.516,7.559,4.272,10.315L39.684,91.56c5.507,5.507,15.118,5.512,20.63,0L91.56,60.314
		c2.756-2.756,4.272-6.419,4.272-10.315s-1.516-7.559-4.272-10.311L60.314,8.442C57.56,5.687,53.897,4.168,50.001,4.168z"/>
</g>
</svg>
