<?xml version="1.0" encoding="UTF-8"?>
<svg width="20px" height="20px" viewBox="0 0 16 16" version="1.1" xmlns="http://www.w3.org/2000/svg" xmlns:xlink="http://www.w3.org/1999/xlink">
    <title>clap-pressed</title>
    <g id="Page-1" stroke="none" stroke-width="1" fill="none" fill-rule="evenodd">
        <g id="Artboard" transform="translate(-90.000000, -18.000000)" fill="#FF0061" fill-rule="nonzero">
            <path d="M92.3966213,25.4822521 L92.4170299,25.5022846 L94.2723572,26.8845264 C94.3371059,27.2015629 94.5004614,27.4910747 94.7398997,27.713143 L99.3559541,32.244128 C99.6814218,32.6016609 100.035023,32.9335231 100.413491,33.2366468 C100.532785,33.32113 100.658006,33.3971312 100.788191,33.4640962 L100.955246,33.5444187 C100.061387,34.1695596 98.8567427,34.1496183 97.9848672,33.495248 L92.0088579,29.0480353 C91.5413154,28.7001985 91.5153409,28.2868007 91.6990183,28.0318418 C91.8127601,27.8747489 91.9980746,27.7827774 92.1943907,27.7859884 C92.3808099,27.7923566 92.5613125,27.8518371 92.7138823,27.9571752 L95.376277,29.9403916 C95.4551765,30.0035829 95.5629369,30.0194303 95.6572391,29.9817105 C95.7515411,29.9439907 95.8173254,29.8587272 95.8287572,29.7594044 C95.8401891,29.6600817 95.7954429,29.562561 95.7120912,29.5051403 L93.1665822,27.6093383 L93.1461736,27.591127 L93.1053564,27.5619888 L91.6489244,26.4693075 C91.2017905,26.1378609 91.1925139,25.7408533 91.3817573,25.4986423 C91.5710007,25.2564314 91.9550534,25.1599112 92.3966213,25.4822521 Z M96.1204433,21.5188845 C96.2959952,21.5254325 96.4610348,21.6027195 96.5766738,21.7325343 L100.994208,26.0668366 C101.104768,26.1304566 101.245295,26.1117407 101.334587,26.021504 C101.423879,25.9312672 101.438846,25.7928427 101.37084,25.6862193 L98.3392347,22.7031995 C97.9922885,22.3626471 98.0553697,21.9947778 98.2724429,21.7798838 C98.4895162,21.5649898 98.8642924,21.5030712 99.2130939,21.8454447 L102.500734,25.0724967 C102.590619,25.1605256 102.729808,25.1776758 102.839071,25.1141847 C102.948333,25.0506936 102.999961,24.9226613 102.964566,24.8029686 L102.652871,23.7503523 C102.590369,23.5740951 102.63574,23.3782833 102.769756,23.2458978 C102.960327,23.0621498 103.231942,22.9842178 103.493334,23.0382884 C103.685327,23.0825486 103.83414,23.2314557 103.875531,23.4207268 L105.730859,28.4088168 L105.743846,28.4361338 C105.87655,28.6973248 105.960142,28.9798796 105.990605,29.2702139 L105.990605,29.3157422 C106.054556,30.0388548 105.789713,30.7527505 105.267027,31.2661783 L103.968298,32.5409731 C102.989771,33.4998571 101.405004,33.4998571 100.426478,32.5409731 L95.1350845,27.3288834 C94.9566137,27.1709492 94.8425692,26.9548286 94.8141128,26.7206242 C94.7937771,26.488185 94.919333,26.2669259 95.1313738,26.1615357 C95.392858,26.0583931 95.6883746,26.1028371 95.9054646,26.2725946 L95.9681264,26.327259 L98.3466561,28.6619546 C98.4563095,28.7622478 98.6271851,28.7592884 98.7331659,28.6552608 C98.8391467,28.5512331 98.8421616,28.3835065 98.7399854,28.2758739 L95.1350845,24.7319444 C95.0197713,24.6246314 94.9314797,24.4924525 94.877194,24.3458636 C94.7766245,24.0908323 94.8727934,23.8015525 95.1072545,23.6538322 C95.3169065,23.5245316 95.6638527,23.5117836 96.0237862,23.8614416 L96.0237862,23.8741896 L99.6286872,27.4090134 C99.7383407,27.5093066 99.9092163,27.5063472 100.015197,27.4023196 C100.121178,27.2982919 100.124193,27.1305654 100.022017,27.0229327 L96.4245369,23.4862877 L96.413405,23.4717186 L96.413405,23.4717186 L95.6063376,22.6740613 C95.5781345,22.647431 95.5526567,22.618153 95.5302692,22.5866468 C95.4249672,22.4537031 95.3782598,22.2849178 95.4005683,22.1179505 C95.4196898,21.9748356 95.4881531,21.8432643 95.5933871,21.744489 L95.6490101,21.6979327 C95.7743523,21.5771064 95.9448913,21.5123365 96.1204433,21.5188845 Z M92.5907867,23.2792248 L94.3873875,24.6153917 C94.3966642,24.6390664 94.4059408,24.6627412 94.4170728,24.686416 C94.5000672,24.8486472 94.6097686,24.9963222 94.7417551,25.1234885 L95.2000209,25.57513 C95.0883357,25.5947113 94.9801892,25.6303003 94.8790493,25.6807559 C94.634311,25.8027743 94.4430932,26.007943 94.3410044,26.2580559 L92.7695421,25.0888869 L92.7417122,25.063391 L91.8307465,24.3859286 C91.6310923,24.2574331 91.5237395,24.0282968 91.5543027,23.7958807 C91.594081,23.5408498 91.7642564,23.3236299 92.0051473,23.2204019 C92.199613,23.1419932 92.4193736,23.1656051 92.5907867,23.2792248 L92.5907867,23.2792248 Z M94.8159682,22.8962398 C94.8958783,22.8972593 94.9747942,22.9118896 95.0492527,22.9392859 L95.1220972,22.9709064 L95.183323,23.0382884 C94.7713374,23.122103 94.4397727,23.4216609 94.3205958,23.8177344 C94.1846509,23.6208958 94.1846509,23.3626065 94.3205958,23.1657679 C94.4288451,22.9996719 94.6151027,22.8983306 94.8159682,22.8962398 Z M90.2959855,20.9821598 L90.3446293,20.989511 L92.1071903,21.4684697 C92.2429174,21.503724 92.330637,21.6326928 92.3117725,21.7692545 C92.292908,21.9058163 92.1733677,22.0072 92.0329772,22.0057046 L91.9954937,22.0027078 L91.9954937,22.0027078 L91.9587641,21.9947778 L90.1962031,21.5158192 C90.0524209,21.4722103 89.9700019,21.3243094 90.0101501,21.1819469 C90.0458374,21.0554024 90.1668751,20.9739866 90.2959855,20.9821598 Z M90.9058155,18.6923429 C90.9902323,18.6713452 91.0787065,18.6905055 91.1457713,18.7420679 L91.1832373,18.7768315 L93.0942244,20.6289262 C93.1969746,20.7360771 93.1947922,20.9038624 93.0892885,21.0084034 C92.9969727,21.0998768 92.8545823,21.1141629 92.7466506,21.0494193 L92.7027503,21.0168281 L90.7954739,19.1665545 C90.715363,19.1006872 90.6795968,18.9963196 90.7028655,18.8963185 C90.7261342,18.7963174 90.8045154,18.7175402 90.9058155,18.6923429 Z M93.8029594,18.0010278 C93.9367987,17.9896841 94.0570928,18.0733798 94.0938086,18.1956778 L94.1035225,18.2432388 L94.2408167,19.9423582 C94.2518328,20.0174979 94.2304974,20.0937486 94.181927,20.1528246 C94.1430706,20.2000853 94.0895876,20.232944 94.0302477,20.2469102 L93.9847815,20.2537723 L93.9625176,20.2537723 C93.8338984,20.2533352 93.7246565,20.1669662 93.6938389,20.0483454 L93.6860738,20.0024556 L93.5487796,18.3033363 C93.5405102,18.2299396 93.5628657,18.1563835 93.6107516,18.0994305 C93.6586374,18.0424776 93.7279737,18.0069801 93.8029594,18.0010278 Z" id="clap-pressed"></path>
        </g>
    </g>
</svg>
