<?xml version="1.0" encoding="UTF-8"?>
<svg width="20px" height="20px" viewBox="0 0 16 16" version="1.1" xmlns="http://www.w3.org/2000/svg" xmlns:xlink="http://www.w3.org/1999/xlink">
    <title>clap-icon</title>
    <g id="Page-1" stroke="none" stroke-width="1" fill="none" fill-rule="evenodd">
        <g id="like" transform="translate(-30.000000, -24.000000)" fill="#BBBBBB" fill-rule="nonzero">
            <path d="M45.9816009,34.8460211 L45.9816009,34.8213613 C45.9437899,34.4911813 45.8479958,34.1699515 45.6984791,33.8719591 L43.9119447,29.0773897 C43.8142838,28.7202092 43.5253845,28.4443404 43.1593425,28.3587327 C42.7196431,28.261697 42.260153,28.394933 41.9444274,28.7110156 C41.6827321,28.9746233 41.5885553,29.3577578 41.6989357,29.7097374 L41.6989357,29.7396815 L39.278065,27.3459196 C38.7100295,26.7875513 38.0093927,26.8914747 37.6097967,27.2825087 C37.4609681,27.4276473 37.3561198,27.610601 37.3069639,27.8109329 L36.7228012,27.2367119 C36.2905881,26.7820341 35.5658757,26.7560578 35.1011224,27.1785852 C34.7990936,27.4318216 34.6407775,27.8133248 34.6764397,28.2019669 C34.089996,28.1959183 33.5971513,28.633616 33.5439525,29.2077344 L32.8845296,28.7162998 C32.5609051,28.4529755 32.1164284,28.385342 31.7269556,28.5401584 C31.3158463,28.7141027 31.0275262,29.0870852 30.9671857,29.5230275 C30.9183177,29.922321 31.0905938,30.3167854 31.4187471,30.5569776 C31.2142862,30.6256101 31.0352508,30.7525425 30.9044688,30.9215903 C30.5604221,31.3672281 30.5747574,32.0858851 31.2628509,32.6019795 L31.7663776,32.9771607 C31.5365221,33.0474057 31.3363849,33.1896955 31.1965502,33.3822859 C30.881174,33.8208781 30.8775902,34.5430579 31.6104815,35.0908577 L37.3858079,39.4080838 C38.5290695,40.2641947 40.1340766,40.1837837 41.1828655,39.2178511 C42.1599617,39.4205062 43.1750825,39.1243332 43.8814823,38.4304989 L45.1358193,37.197509 C45.7348535,36.6079447 46.0474515,35.7938825 45.9941443,34.9622745 C45.9987859,34.9230885 45.9945013,34.8833782 45.9816009,34.8460211 L45.9816009,34.8460211 Z M34.172913,28.9963647 C34.2774623,28.8357155 34.4573534,28.7376976 34.651353,28.7356754 C34.754258,28.7369901 34.8554558,28.7617083 34.9470182,28.8078933 L34.9470182,28.8078933 L35.0061512,28.8730657 C34.6082478,28.9541317 34.2880163,29.2438661 34.172913,29.626951 C34.0416148,29.4365674 34.0416148,29.1867483 34.172913,28.9963647 L34.172913,28.9963647 Z M31.5011749,29.605814 C31.5395935,29.3591464 31.7039522,29.1490499 31.9366091,29.0492071 C32.1479051,28.9638899 32.3901207,29.0034584 32.5619857,29.1513691 L33.9578838,30.1906035 L34.2374217,30.3984504 C34.2463813,30.4213487 34.2553409,30.4442471 34.2660923,30.4671455 C34.3462499,30.6240566 34.4522016,30.7668888 34.5796766,30.8898849 L35.0222784,31.3267156 C34.9144107,31.3456547 34.8099608,31.3800766 34.7122779,31.4288776 C34.4759051,31.5468946 34.2912234,31.7453351 34.192624,31.9872459 L32.6748761,30.856418 L32.6479974,30.8317582 L31.7681695,30.1765122 C31.5753397,30.0522304 31.4716564,29.8306083 31.5011749,29.605814 Z M37.7119355,38.9871058 L31.9401929,34.6857324 C31.4886316,34.3493023 31.4635448,33.9494613 31.6409439,33.7028633 C31.7507979,33.5509221 31.9297781,33.4619666 32.1193839,33.4650724 C32.2994312,33.4712317 32.473764,33.5287616 32.6211188,33.6306453 L35.1925099,35.5488253 C35.2687125,35.6099443 35.3727895,35.625272 35.4638683,35.5887892 C35.5549471,35.5523063 35.6184828,35.4698389 35.6295238,35.3737733 C35.6405649,35.2777077 35.5973482,35.183385 35.5168456,35.1278474 L33.0583449,33.2942152 L33.0386339,33.2766011 L32.9992118,33.2484184 L31.5925623,32.1915699 C31.160712,31.8709926 31.1517524,31.4870043 31.3345273,31.2527362 C31.5173021,31.0184681 31.8882275,30.9251132 32.3147021,31.2368835 L32.3344132,31.256259 L34.1263233,32.5931724 C34.1888588,32.8998122 34.3466306,33.1798299 34.5778847,33.3946158 L37.2657499,36.0367371 L39.0361572,37.7770143 C39.3505,38.1228225 39.6920152,38.4438017 40.0575459,38.736985 C40.2111677,38.8459353 40.3749666,38.9403009 40.5467374,39.0188113 L40.5807837,39.034664 C39.7174779,39.6393044 38.5540094,39.6200171 37.7119355,38.9871058 Z M44.7451829,36.8311349 L43.4908458,38.0641248 C42.5457665,38.9915637 41.0151687,38.9915637 40.0700894,38.0641248 L34.9595615,33.0229574 C34.7871911,32.8702024 34.6770448,32.6611691 34.6495611,32.4346451 C34.6299205,32.2098283 34.7511848,31.9958251 34.9559777,31.893891 C35.2337788,31.7841548 35.5513514,31.8471422 35.7641292,32.0541797 L35.7641292,32.0541797 L38.0613581,34.3123126 C38.1672634,34.4093168 38.3322983,34.4064545 38.4346565,34.3058383 C38.5370148,34.205222 38.5399266,34.0429958 38.441243,33.9388928 L34.9595615,30.5111809 C34.8481899,30.407387 34.7629162,30.2795427 34.710486,30.1377611 C34.6133542,29.8910931 34.7062359,29.6112997 34.9326829,29.4684237 C35.1351687,29.3433633 35.4702559,29.3310334 35.8178865,29.6692249 C35.8178865,29.6692249 35.8178865,29.6692249 35.8178865,29.6815548 L39.299568,33.1004597 C39.4054734,33.1974639 39.5705082,33.1946016 39.6728665,33.0939854 C39.7752247,32.9933691 39.7781366,32.8311429 39.6794529,32.7270399 L36.2049391,29.3063736 C36.2016739,29.3014495 36.1980823,29.2967422 36.1941876,29.2922822 L35.4147067,28.5207828 C35.3874676,28.4950258 35.3628607,28.466708 35.3412384,28.436235 C35.2395358,28.307651 35.1944249,28.1444007 35.2159708,27.9829088 C35.2375168,27.8214169 35.3239267,27.6751217 35.4559207,27.5766648 C35.5769785,27.4598009 35.7416883,27.3971549 35.9112397,27.4034882 C36.0807911,27.4098215 36.2401894,27.484574 36.3518757,27.6101317 L40.6184138,31.8022974 C40.7251943,31.8638311 40.8609187,31.845729 40.9471584,31.7584514 C41.0333981,31.6711738 41.0478535,31.5372887 40.9821716,31.4341618 L38.0541904,28.5489655 C37.7191032,28.219581 37.7800282,27.8637754 37.9896816,27.6559285 C38.1993351,27.4480816 38.561301,27.3881935 38.8981801,27.7193394 L42.0734449,30.8405653 C42.1602576,30.9257075 42.2946895,30.9422953 42.4002169,30.8808863 C42.5057444,30.8194772 42.5556075,30.6956435 42.5214224,30.579876 L42.2203815,29.5617786 C42.1600162,29.3913015 42.2038363,29.201911 42.3332719,29.0738669 C42.5173285,28.8961446 42.7796595,28.8207682 43.0321168,28.8730657 C43.2175474,28.9158744 43.3612741,29.0598984 43.4012503,29.2429626 L45.1931605,34.067476 L45.2057038,34.0938973 C45.3338718,34.3465229 45.414607,34.6198118 45.4440279,34.900625 C45.4436095,34.9088397 45.4436095,34.91707 45.4440279,34.9252847 C45.4440279,34.9252847 45.4440279,34.9376146 45.4440279,34.9446603 C45.5057936,35.6440595 45.2500033,36.3345442 44.7451829,36.8311349 Z M31.1427929,24.7513565 C31.0761719,24.6768279 30.9726913,24.6452677 30.8748537,24.6696386 C30.7770161,24.6940096 30.7013141,24.7702034 30.6788408,24.8669251 C30.6563675,24.9636468 30.6909111,25.0645919 30.7682837,25.1282992 L32.6103673,26.9178959 C32.7167302,27.0144631 32.8817957,27.0108603 32.9836932,26.9097476 C33.0855907,26.8086348 33.0876985,26.6463518 32.9884604,26.5427147 L31.1427929,24.7513565 Z M31.9634878,27.8743438 C32.0990796,27.8757902 32.2145338,27.7777312 32.2327535,27.6456478 C32.2509732,27.5135644 32.166252,27.3888249 32.0351642,27.3547267 L30.3328495,26.8914747 C30.1916842,26.857455 30.0485791,26.9399059 30.0098032,27.0775999 C29.9710273,27.2152939 30.0506291,27.3583447 30.1894967,27.4005234 L31.8918113,27.8637754 C31.9151085,27.870463 31.9392198,27.8740181 31.9634878,27.8743438 L31.9634878,27.8743438 Z M33.67297,24.0009941 C33.6005474,24.0067512 33.5335811,24.0410846 33.487332,24.0961698 C33.441083,24.1512551 33.4194916,24.2223991 33.4274784,24.2933888 L33.5600797,25.9367883 C33.571259,26.0737211 33.6873237,26.1793878 33.8270743,26.1798634 L33.8485772,26.1798634 C33.9230906,26.1747381 33.9920738,26.1393647 34.0389841,26.0822261 C34.0858943,26.0250874 34.1065004,25.9513373 34.0958608,25.8786616 L33.9632595,24.2352622 C33.9472581,24.0926474 33.8183926,23.988651 33.67297,24.0009941 L33.67297,24.0009941 Z" id="clap-icon"></path>
        </g>
    </g>
</svg>
