<svg xmlns="http://www.w3.org/2000/svg" width="18" height="16" viewBox="0 0 18 16">
  <path fill="#FF0061" d="M0.224648986,6.06896552 C1.23556942,9.82068966 5.86895476,13.6 8.64898596,15.862069 C8.76131045,15.9448276 8.87363495,16 9.01404056,16 C9.15444618,16 9.26677067,15.9448276 9.37909516,15.862069 C14.2371295,11.862069 16.9890796,8.68965517 17.775351,6.12413793 C17.8315133,5.93103448 17.8876755,5.71034483 17.9438378,5.48965517 L17.9438378,5.40689655 C17.9719189,5.1862069 18,4.96551724 18,4.77241379 C18,4.77241379 18,4.74482759 18,4.74482759 L18,4.74482759 C18,4.74482759 18,4.71724138 18,4.71724138 C18,2.12413793 15.8658346,0.0275862069 13.226209,0.0275862069 C11.5413417,0.0275862069 9.94071763,0.882758621 9.01404056,2.15172414 C8.05928237,0.855172414 6.45865835,0 4.77379095,0 C2.19032761,0 0.112324493,1.95862069 0,4.49655172 C0,4.52413793 0,4.55172414 0,4.57931034 C0,4.60689655 0,4.60689655 0,4.63448276 C0,4.66206897 0,4.66206897 0,4.68965517 C0,5.15862069 0.0842433697,5.65517241 0.224648986,6.06896552 Z"/>
</svg>
