<?xml version="1.0" encoding="UTF-8"?>
<svg width="18px" height="16px" viewBox="0 0 18 16" version="1.1" xmlns="http://www.w3.org/2000/svg" xmlns:xlink="http://www.w3.org/1999/xlink">
    <title>like-icon</title>
    <g id="Page-1" stroke="none" stroke-width="1" fill="none" fill-rule="evenodd">
        <g id="like" transform="translate(-5.000000, -24.000000)" fill="#BBBBBB" fill-rule="nonzero">
            <path d="M23,31.744896 C22.9724075,31.8607264 22.9356307,31.9741457 22.8900231,32.0840643 C22.7890608,32.2835752 22.6682665,32.4740173 22.5636984,32.6717143 C22.5280179,32.7248923 22.5138333,32.7897551 22.5240345,32.8530877 C22.7908637,33.5259832 22.6394201,34.1227019 22.228359,34.6867733 C22.1695668,34.7443713 22.1529825,34.8328692 22.1868924,34.9080489 C22.4374954,35.5229049 22.2986721,36.08879 21.9525155,36.6202142 C21.8611521,36.7291598 21.8294128,36.8765819 21.8677792,37.0137946 C22.0336459,37.7012 21.9326835,38.3541443 21.4170543,38.8982647 C21.1746999,39.1507416 20.8591625,39.3196163 20.5156047,39.3807181 C20.2108774,39.4416147 19.9013511,39.4749993 19.5907173,39.4804734 C17.3046409,39.4804734 15.0185645,39.4804734 12.7396997,39.4804734 C12.3257432,39.4715749 11.9236535,39.3396845 11.5840412,39.101403 C11.4873727,39.0246709 11.3627861,38.9930072 11.2414904,39.0143437 C11.2414904,39.128609 11.2288701,39.237433 11.2144469,39.3462571 C11.1797023,39.695842 10.9009605,39.9701463 10.5527828,39.9973878 C10.500538,40.0002716 10.4481753,40.0002716 10.3959306,39.9973878 L5.83639808,39.9973878 C5.62384503,40.0149664 5.4135385,39.9432622 5.25540729,39.7992986 C5.09727608,39.655335 5.0054233,39.4519513 5.00165567,39.237433 C5.00165567,36.8457219 5.00165567,34.4546152 5.00165567,32.0641133 C4.98695053,31.8338045 5.07072832,31.6081427 5.23190547,31.4439181 C5.39308263,31.2796936 5.6163109,31.1925446 5.84541257,31.2044031 C7.56057083,31.2044031 9.27633006,31.2044031 10.9926903,31.2044031 C11.1142099,31.2196922 11.2346445,31.2427123 11.3532701,31.273325 C11.4139209,31.289549 11.4784468,31.2817594 11.5335601,31.2515602 C11.7220098,31.0677354 11.8973267,30.870758 12.0582038,30.6620965 C12.7581263,29.6799052 13.3836909,28.6461889 13.9296133,27.5696793 C14.0259565,27.3927039 14.0726937,27.1927205 14.0648307,26.991098 C14.0413931,26.3943794 14.0413931,25.795847 14.0197583,25.1991284 C13.9929915,24.8088054 14.1971693,24.4392188 14.5407962,24.2559864 C15.1978027,23.8765078 16.0153566,23.922003 16.6267507,24.3720654 C16.7715069,24.5039095 16.8817296,24.6696143 16.9476669,24.8545188 C17.1694235,25.3986391 17.3803627,25.9554556 17.5678642,26.5158996 C17.7591309,27.1255016 17.7852703,27.775401 17.643586,28.3985559 C17.5498352,28.8755681 17.481325,29.3580215 17.4001946,29.8368474 C17.3731511,30.0000835 17.3785598,30.0182208 17.5444265,30.0182208 L21.4404921,30.0182208 C21.7552092,30.003053 22.0677589,30.0778869 22.3419417,30.2340552 C22.6485099,30.4297648 22.8646503,30.7405791 22.9423072,31.0973928 C22.9567304,31.1536186 22.9747594,31.2080306 22.9909855,31.2624426 L22.9909855,31.7539646 L23,31.744896 Z M16.4717014,30.7654794 C16.6123275,29.9257203 16.7547566,29.1040986 16.8845654,28.2824769 C16.94734,27.9918679 16.9745854,27.6946316 16.9656958,27.3973745 C16.8935799,26.6047726 16.5762696,25.8829062 16.262565,25.1628537 C16.2024374,24.9784646 16.0492449,24.8402466 15.8605185,24.8001068 C15.56099,24.7093382 15.2382361,24.7379113 14.9590689,24.8799111 C14.8288239,24.9348346 14.7492062,25.0685733 14.7625528,25.2100108 C14.7865914,25.8702101 14.7986108,26.5304094 14.7986108,27.1906088 C14.7998415,27.3481498 14.7736026,27.5046877 14.7210861,27.6531111 C14.6508215,27.842526 14.5626776,28.024732 14.4578628,28.1972314 C13.916993,29.087775 13.3761232,29.9819461 12.8208302,30.8616073 C12.5799308,31.2903721 12.2496534,31.6616149 11.8526732,31.949848 C11.5966615,32.1167116 11.3388469,32.2872026 11.0900468,32.4631349 C11.0355204,32.5026065 10.9996347,32.5629944 10.9908873,32.6299984 C10.9908873,34.4237818 10.9908873,36.2175652 10.9908873,38.0095348 C10.9908873,38.1165451 11.0359598,38.1274275 11.1279077,38.1383099 C11.3017236,38.1565764 11.4732657,38.1924279 11.6399311,38.2453203 C11.7543255,38.2956058 11.8616229,38.360859 11.9590443,38.4393898 C12.2299039,38.6247578 12.5509646,38.7216549 12.878523,38.7168912 C15.1411617,38.7168912 17.4019974,38.7168912 19.6646361,38.7168912 C19.7990196,38.717871 19.9333227,38.7099946 20.0666827,38.6933127 C20.4002841,38.6588109 20.7033537,38.4826076 20.8996222,38.2090456 C21.1412107,37.8753185 21.1718601,37.4744831 20.9464976,37.1897268 C20.8207141,37.067642 20.6809031,36.961088 20.5300278,36.8723233 C20.5567053,36.8210004 20.5965441,36.777791 20.6454134,36.7471756 C21.049982,36.6462289 21.3702621,36.3357781 21.4855645,35.9328089 C21.6015563,35.6312253 21.5078616,35.2888046 21.2547934,35.0894223 C21.1260825,35.0047178 20.9910651,34.9301332 20.8509439,34.866333 C20.8925173,34.8032184 20.9472763,34.7499871 21.011402,34.7103518 C21.2950162,34.6432584 21.5410647,34.4667324 21.6965037,34.2188298 C22.0444633,33.6874056 21.9146546,33.1305891 21.3359239,32.9238234 C21.2915775,32.9070902 21.2571217,32.8710941 21.2421731,32.8258817 C21.2376138,32.7899543 21.2476815,32.7536982 21.2700892,32.7253493 C21.292497,32.6970005 21.3253425,32.6789658 21.3611645,32.6753418 C21.8240202,32.5668143 22.1686058,32.1765533 22.2211475,31.7013663 C22.306607,31.3638804 22.1416329,31.0129166 21.8281154,30.8652348 C21.6687297,30.8013179 21.4984839,30.769282 21.3269094,30.7709206 C19.7692044,30.7709206 18.2114993,30.7709206 16.6537942,30.7709206 L16.4735043,30.7709206 L16.4717014,30.7654794 Z M10.3184059,31.9734265 C10.2607131,31.9734265 10.2174435,31.9643579 10.1759768,31.9643579 C8.75288828,31.9643579 7.32979971,31.9643579 5.90671115,31.9643579 C5.86306953,31.9518898 5.81614157,31.964311 5.78425019,31.9967714 C5.75235881,32.0292319 5.74056158,32.076584 5.75346471,32.120339 C5.75346471,34.4431283 5.75346471,36.7665221 5.75346471,39.0905206 C5.74006551,39.1382904 5.75322999,39.1896186 5.78793069,39.2249032 C5.82263139,39.2601878 5.8735093,39.2739796 5.92113435,39.2610116 C7.32559295,39.2610116 8.72824865,39.2610116 10.1327073,39.2610116 C10.3129972,39.2610116 10.3129972,39.2610116 10.3129972,39.0705694 C10.3129972,36.7622901 10.3129972,34.4534061 10.3129972,32.1439176 L10.3129972,31.9806815 L10.3184059,31.9734265 Z" id="like-icon"></path>
        </g>
    </g>
</svg>