<?xml version="1.0" encoding="UTF-8"?>
<svg width="18px" height="16px" viewBox="0 0 18 16" version="1.1" xmlns="http://www.w3.org/2000/svg" xmlns:xlink="http://www.w3.org/1999/xlink">
    <title>like-pressed</title>
    <g id="Page-1" stroke="none" stroke-width="1" fill="none" fill-rule="evenodd">
        <g id="like" transform="translate(-5.000000, -5.000000)" fill="#FF0061" fill-rule="nonzero">
            <path d="M16.6267507,5.37206544 C16.7715069,5.50390951 16.8817296,5.66961429 16.9476669,5.85451881 C17.1694235,6.39863915 17.3803627,6.95545562 17.5678642,7.51589957 C17.7591309,8.12550155 17.7852703,8.77540099 17.643586,9.39855593 C17.5498352,9.8755681 17.481325,10.3580215 17.4001946,10.8368474 C17.3731511,11.0000835 17.3785598,11.0182208 17.5444265,11.0182208 L21.4404921,11.0182208 C21.7552092,11.003053 22.0677589,11.0778869 22.3419417,11.2340552 C22.6485099,11.4297648 22.8646503,11.7405791 22.9423072,12.0973928 C22.9567304,12.1536186 22.9747594,12.2080306 22.9909855,12.2624426 L22.9909855,12.7539646 L23,12.744896 C22.9724075,12.8607264 22.9356307,12.9741457 22.8900231,13.0840643 C22.7890608,13.2835752 22.6682665,13.4740173 22.5636984,13.6717143 C22.5280179,13.7248923 22.5138333,13.7897551 22.5240345,13.8530877 C22.7908637,14.5259832 22.6394201,15.1227019 22.228359,15.6867733 C22.1695668,15.7443713 22.1529825,15.8328692 22.1868924,15.9080489 C22.4374954,16.5229049 22.2986721,17.08879 21.9525155,17.6202142 C21.8611521,17.7291598 21.8294128,17.8765819 21.8677792,18.0137946 C22.0336459,18.7012 21.9326835,19.3541443 21.4170543,19.8982647 C21.1746999,20.1507416 20.8591625,20.3196163 20.5156047,20.3807181 C20.2108774,20.4416147 19.9013511,20.4749993 19.5907173,20.4804734 L12.7396997,20.4804734 L12.7396997,20.4804734 C12.3257432,20.4715749 11.9236535,20.3396845 11.5840412,20.101403 C11.4873727,20.0246709 11.3627861,19.9930072 11.2414904,20.0143437 C11.2414904,20.128609 11.2288701,20.237433 11.2144469,20.3462571 C11.1797023,20.695842 10.9009605,20.9701463 10.5527828,20.9973878 C10.500538,21.0002716 10.4481753,21.0002716 10.3959306,20.9973878 L5.83639808,20.9973878 C5.62384503,21.0149664 5.4135385,20.9432622 5.25540729,20.7992986 C5.09727608,20.655335 5.0054233,20.4519513 5.00165567,20.237433 L5.00165567,13.0641133 L5.00165567,13.0641133 C4.98695053,12.8338045 5.07072832,12.6081427 5.23190547,12.4439181 C5.39308263,12.2796936 5.6163109,12.1925446 5.84541257,12.2044031 L10.9926903,12.2044031 L10.9926903,12.2044031 C11.1142099,12.2196922 11.2346445,12.2427123 11.3532701,12.273325 C11.4139209,12.289549 11.4784468,12.2817594 11.5335601,12.2515602 C11.7220098,12.0677354 11.8973267,11.870758 12.0582038,11.6620965 C12.7581263,10.6799052 13.3836909,9.64618891 13.9296133,8.56967929 C14.0259565,8.39270387 14.0726937,8.19272052 14.0648307,7.99109799 C14.0413931,7.39437936 14.0413931,6.79584699 14.0197583,6.19912836 C13.9929915,5.80880541 14.1971693,5.43921882 14.5407962,5.25598644 C15.1978027,4.8765078 16.0153566,4.92200296 16.6267507,5.37206544 Z" id="like-pressed"></path>
        </g>
    </g>
</svg>