
<svg width="18px" height="18px" viewBox="0 0 18 18" version="1.1" xmlns="http://www.w3.org/2000/svg" xmlns:xlink="http://www.w3.org/1999/xlink">
    <g id="Page-1" stroke="none" stroke-width="1" fill="none" fill-rule="evenodd">
        <g id="control-panel" transform="translate(-461.000000, -862.000000)">
            <g id="social-icons" transform="translate(428.000000, 862.000000)">
                <g id="behance" transform="translate(33.000000, 0.000000)">
                    <path d="M7.25,8.06875 C8.24375,7.59375 8.7625,6.875 8.7625,5.75625 C8.7625,3.55 7.11875,3.0125 5.221875,3.0125 L0,3.0125 L0,14.0875 L5.36875,14.0875 C7.38125,14.0875 9.271875,13.121875 9.271875,10.871875 C9.271875,9.48125 8.6125,8.453125 7.25,8.06875 L7.25,8.06875 Z M2.434375,4.903125 L4.71875,4.903125 C5.596875,4.903125 6.3875,5.15 6.3875,6.16875 C6.3875,7.109375 5.771875,7.4875 4.903125,7.4875 L2.434375,7.4875 L2.434375,4.903125 L2.434375,4.903125 Z M5.0375,12.20625 L2.434375,12.20625 L2.434375,9.15625 L5.0875,9.15625 C6.159375,9.15625 6.8375,9.603125 6.8375,10.7375 C6.8375,11.85625 6.028125,12.20625 5.0375,12.20625 L5.0375,12.20625 Z M16.240625,4.684375 L11.75,4.684375 L11.75,3.59375 L16.240625,3.59375 L16.240625,4.684375 L16.240625,4.684375 Z M18,10.19375 C18,7.821875 16.6125,5.84375 14.096875,5.84375 C11.653125,5.84375 9.99375,7.68125 9.99375,10.0875 C9.99375,12.584375 11.565625,14.296875 14.096875,14.296875 C16.0125,14.296875 17.253125,13.434375 17.85,11.6 L15.90625,11.6 C15.696875,12.284375 14.834375,12.646875 14.165625,12.646875 C12.875,12.646875 12.196875,11.890625 12.196875,10.60625 L17.98125,10.60625 C17.990625,10.475 18,10.334375 18,10.19375 Z M12.2,9.21875 C12.271875,8.165625 12.971875,7.50625 14.028125,7.50625 C15.134375,7.50625 15.690625,8.15625 15.784375,9.21875 L12.2,9.21875 Z" fill="#23232A" opacity="0.302990141"></path>
                </g>
            </g>
        </g>
    </g>
</svg>
