
<svg width="18px" height="18px" viewBox="0 0 18 18" version="1.1" xmlns="http://www.w3.org/2000/svg" xmlns:xlink="http://www.w3.org/1999/xlink">
    <g id="Page-1" stroke="none" stroke-width="1" fill="none" fill-rule="evenodd" opacity="0.302990141">
        <g id="control-panel" transform="translate(-494.000000, -862.000000)" fill="#23232A">
            <g id="social-icons" transform="translate(428.000000, 862.000000)">
                <path d="M75,0 C70.037371,0 66,4.03737097 66,9 C66,13.962629 70.037371,18 75,18 C79.962629,18 84,13.962629 84,9 C84,4.03737097 79.962629,0 75,0 Z M80.9505242,4.15037903 C82.0211976,5.4585 82.6695605,7.124625 82.6864718,8.93906855 C82.4330202,8.88546774 79.8914637,8.36996371 77.3335766,8.69164113 C77.1248347,8.18208871 76.9278145,7.73383065 76.6579597,7.18145565 C79.500254,6.021 80.7884516,4.36960887 80.9505242,4.15037903 L80.9505242,4.15037903 Z M80.0959234,3.26141129 C79.9576573,3.45835887 78.8004677,5.01372581 76.0669355,6.03831048 C74.8072258,3.72385887 73.4110282,1.82253629 73.1985484,1.53802016 C75.6363871,0.950370968 78.205379,1.58410887 80.0959234,3.26141129 L80.0959234,3.26141129 Z M71.7317298,2.05475806 C71.9344113,2.33270565 73.3081089,4.2363871 74.5818629,6.50064919 C70.9859637,7.45555645 67.8187984,7.44180242 67.4749839,7.43726613 C67.9734677,5.05179435 69.5810565,3.06918145 71.7317298,2.05475806 Z M67.312621,9.01172177 C67.312621,8.93311694 67.3141815,8.854875 67.3165403,8.77681452 C67.652879,8.78370968 71.3781532,8.83172177 75.2171613,7.68280645 C75.4372258,8.1135 75.6474556,8.55068952 75.8404113,8.98740726 C73.0606089,9.77037097 70.5349839,12.018629 69.2888831,14.1517379 C68.0610726,12.7888911 67.312621,10.9861694 67.312621,9.01172177 Z M70.2814234,15.0763065 C71.0844194,13.4347863 73.2636895,11.3158306 76.3629194,10.2585484 C77.4421935,13.0631734 77.8885282,15.4136976 78.0028427,16.0881532 C75.5310363,17.1410444 72.55875,16.8521734 70.2814234,15.0763065 L70.2814234,15.0763065 Z M79.2952137,15.384375 C79.2164274,14.9167379 78.807254,12.6663387 77.8017944,9.90333871 C80.210746,9.51771774 82.3271976,10.1489516 82.5901935,10.2319476 C82.2475403,12.3709355 81.0198024,14.2182218 79.2952137,15.384375 Z"></path>
            </g>
        </g>
    </g>
</svg>
