
<svg width="18px" height="18px" viewBox="0 0 18 18" version="1.1" xmlns="http://www.w3.org/2000/svg" xmlns:xlink="http://www.w3.org/1999/xlink">



    <g id="Page-1" stroke="none" stroke-width="1" fill="none" fill-rule="evenodd" opacity="0.3">
        <g id="control-panel" transform="translate(-428.000000, -862.000000)" fill="#23232A">
            <g id="social-icons" transform="translate(428.000000, 862.000000)">
                <path d="M18,9 C18,4.02822581 13.9717742,0 9,0 C4.02822581,0 0,4.02822581 0,9 C0,13.4920161 3.29116935,17.2154032 7.59375,17.891129 L7.59375,11.6016532 L5.30745968,11.6016532 L5.30745968,9 L7.59375,9 L7.59375,7.01709677 C7.59375,4.76165323 8.93649194,3.51580645 10.9930645,3.51580645 C11.9779839,3.51580645 13.0079032,3.69145161 13.0079032,3.69145161 L13.0079032,5.90516129 L11.8727419,5.90516129 C10.755,5.90516129 10.40625,6.59903226 10.40625,7.31068548 L10.40625,9 L12.9022984,9 L12.5031048,11.6016532 L10.40625,11.6016532 L10.40625,17.891129 C14.7088306,17.2154032 18,13.4920161 18,9 Z"></path>
            </g>
        </g>
    </g>
</svg>
