
<svg width="18px" height="18px" viewBox="0 0 18 18" version="1.1" xmlns="http://www.w3.org/2000/svg" xmlns:xlink="http://www.w3.org/1999/xlink">

    <title>Shape</title>

    <g id="Page-1" stroke="none" stroke-width="1" fill="none" fill-rule="evenodd" opacity="0.3">
        <g id="control-panel" transform="translate(-527.000000, -862.000000)" fill="#23232A">
            <g id="social-icons" transform="translate(428.000000, 862.000000)">
                <path d="M108.004,4.4 C105.46,4.4 103.408,6.452 103.408,8.996 C103.408,11.54 105.46,13.592 108.004,13.592 C110.548,13.592 112.6,11.54 112.6,8.996 C112.6,6.452 110.548,4.4 108.004,4.4 Z M108.004,11.984 C106.36,11.984 105.016,10.644 105.016,8.996 C105.016,7.348 106.356,6.008 108.004,6.008 C109.652,6.008 110.992,7.348 110.992,8.996 C110.992,10.644 109.648,11.984 108.004,11.984 L108.004,11.984 Z M113.86,4.212 C113.86,4.808 113.38,5.284 112.788,5.284 C112.192,5.284 111.716,4.804 111.716,4.212 C111.716,3.62 112.196,3.14 112.788,3.14 C113.38,3.14 113.86,3.62 113.86,4.212 Z M116.904,5.3 C116.836,3.864 116.508,2.592 115.456,1.544 C114.408,0.496 113.136,0.168 111.7,0.096 C110.22,0.012 105.784,0.012 104.304,0.096 C102.872,0.164 101.6,0.492 100.548,1.54 C99.496,2.588 99.172,3.86 99.1,5.296 C99.016,6.776 99.016,11.212 99.1,12.692 C99.168,14.128 99.496,15.4 100.548,16.448 C101.6,17.496 102.868,17.824 104.304,17.896 C105.784,17.98 110.22,17.98 111.7,17.896 C113.136,17.828 114.408,17.5 115.456,16.448 C116.504,15.4 116.832,14.128 116.904,12.692 C116.988,11.212 116.988,6.78 116.904,5.3 Z M114.992,14.28 C114.68,15.064 114.076,15.668 113.288,15.984 C112.108,16.452 109.308,16.344 108.004,16.344 C106.7,16.344 103.896,16.448 102.72,15.984 C101.936,15.672 101.332,15.068 101.016,14.28 C100.548,13.1 100.656,10.3 100.656,8.996 C100.656,7.692 100.552,4.888 101.016,3.712 C101.328,2.928 101.932,2.324 102.72,2.008 C103.9,1.54 106.7,1.648 108.004,1.648 C109.308,1.648 112.112,1.544 113.288,2.008 C114.072,2.32 114.676,2.924 114.992,3.712 C115.46,4.892 115.352,7.692 115.352,8.996 C115.352,10.3 115.46,13.104 114.992,14.28 Z"></path>
            </g>
        </g>
    </g>
</svg>