<svg xmlns="http://www.w3.org/2000/svg" width="18" height="16" viewBox="0 0 18 16">
  <path fill="#23232A" opacity="0.302990141" fill-rule="evenodd" d="M26.8795563,14.4391985 C27.6423666,13.9578218 28.2276809,13.1945276 28.5023772,12.2852603 C27.7881669,12.7320938 26.9989435,13.0552403 26.1568938,13.2301851 C25.4849445,12.4724624 24.5245642,12 23.461701,12 C21.4226096,12 19.770206,13.7438765 19.770206,15.8944718 C19.770206,16.1997895 19.8008452,16.4973071 19.8642367,16.7814531 C16.7960909,16.6187656 14.0755415,15.0698913 12.2530375,12.7120365 C11.9350238,13.2892429 11.7533016,13.9578218 11.7533016,14.6709725 C11.7533016,16.0215018 12.405177,17.2138008 13.3961965,17.91358 C12.7908082,17.8935226 12.2213418,17.7163492 11.7226624,17.4266317 L11.7226624,17.4745465 C11.7226624,19.3621675 12.9947174,20.9366707 14.6862124,21.2932461 C14.3755943,21.3846186 14.0501849,21.4303048 13.7120972,21.4303048 C13.4743793,21.4303048 13.241944,21.4069045 13.0179609,21.3612183 C13.4870576,22.9078641 14.8510301,24.0355337 16.4675119,24.0656198 C15.2028526,25.1108314 13.6106709,25.7326097 11.881141,25.7326097 C11.5832013,25.7326097 11.2884311,25.7158953 11,25.6791234 C12.6344427,26.7833928 14.5752773,27.4285714 16.6608558,27.4285714 C23.4543053,27.4285714 27.1669308,21.4938198 27.1669308,16.3468769 C27.1669308,16.1775036 27.1648177,16.0092445 27.1574221,15.8432141 C27.879028,15.2938652 28.5066033,14.6074575 29,13.8263346 C28.3375594,14.1361094 27.6254622,14.3455975 26.8795563,14.4391985 Z" transform="translate(-11 -12)"/>
</svg>
