<svg xmlns="http://www.w3.org/2000/svg" width="18" height="18" viewBox="0 0 18 18">
  <path fill="#BBB" d="M9,0 C4.05,0 0,4.05 0,9 C0,13.95 4.05,18 9,18 C13.95,18 18,13.95 18,9 C18,4.05 13.95,0 9,0 Z M5.32058824,15.0718924 C5.37033162,15.0718924 5.42007501,15.0466987 5.4449467,15.0466987 C7.58391236,14.6435995 7.88237268,13.8877885 7.88237268,13.1319775 L7.88237268,12.6532972 L7.70827083,12.502135 C7.31032373,12.1242295 6.98699171,11.5699681 6.81288985,10.9401256 L6.71340308,10.5622201 L6.36519937,10.5622201 C6.21596921,10.4362516 6.09161074,9.85679644 6.09161074,9.55447203 C6.09161074,9.20176023 6.14135413,9.12617912 6.16622582,9.12617912 C6.16622582,9.12617912 6.16622582,9.12617912 6.19109751,9.12617912 L6.83776155,9.12617912 L6.68853139,8.49633661 C6.36519937,7.18626418 6.46468614,6.30448467 6.71340308,5.97696656 C6.78801816,5.87619176 6.86263324,5.85099806 7.0118634,5.85099806 L7.16109356,5.85099806 L7.28545203,5.75022325 C8.50416502,4.86844374 10.0213383,4.76766893 10.941591,5.49828625 C11.7126135,6.10293506 11.8867154,7.13587678 11.4141532,8.44594921 L11.1654362,9.12617912 L11.8867154,9.12617912 C11.9115871,9.12617912 11.9115871,9.12617912 11.9115871,9.12617912 C11.9115871,9.15137283 11.9862021,9.22695393 11.9862021,9.57966573 C11.9862021,9.85679644 11.836972,10.4362516 11.7126135,10.5622201 L11.3395381,10.5622201 L11.2400513,10.9401256 C11.0659495,11.5699681 10.7426174,12.1242295 10.3446704,12.502135 L10.1705685,12.6532972 L10.1705685,13.1067838 C10.1705685,13.8625948 10.4690288,14.6184058 12.5831228,15.021505 C12.6328662,15.021505 12.6826096,15.0466987 12.7323529,15.0466987 C11.6131267,15.7521224 10.3446704,16.1300279 9.00159889,16.1300279 C7.65852744,16.1300279 6.39007106,15.7269287 5.32058824,15.0718924 Z M14.0993697,14.6779412 C13.7977941,14.542611 13.4688025,14.4343468 13.112395,14.3531487 C11.3303571,14.0283562 11.3303571,13.5952995 11.3303571,13.3517052 L11.3303571,13.3246391 C11.7964286,12.8645164 12.1528361,12.2961296 12.3721639,11.6194785 C13.1672269,11.26762 13.3317227,9.96845002 13.3317227,9.5624594 C13.3317227,9.31886503 13.3317227,8.72341213 12.9204832,8.31742151 C12.8930672,8.29035547 12.8382353,8.23622339 12.7834034,8.20915734 C13.2220588,6.58519488 12.8656513,5.17776074 11.7415966,4.33871346 C10.3982143,3.3102039 8.25976891,3.39140202 6.55997899,4.50110971 C6.1487395,4.55524179 5.8197479,4.74470408 5.5730042,5.04243053 C4.94243697,5.85441176 5.07951681,7.28891195 5.24401261,8.1820913 C5.18918067,8.20915734 5.13434874,8.26328943 5.07951681,8.31742151 C4.66827731,8.72341213 4.66827731,9.31886503 4.66827731,9.58952544 C4.66827731,9.96845002 4.83277311,11.26762 5.62783613,11.6465446 C5.84716387,12.3231956 6.20357143,12.8915825 6.66964286,13.3517052 L6.66964286,13.3517052 C6.66964286,13.5952995 6.66964286,14.0283562 4.88760504,14.3531487 C4.53119748,14.4072808 4.20220588,14.5155449 3.87321429,14.6779412 C2.3105042,13.2975731 1.32352941,11.26762 1.32352941,9.02113858 C1.32352941,4.85296824 4.77794118,1.44264706 9,1.44264706 C13.2220588,1.44264706 16.6764706,4.85296824 16.6764706,9.02113858 C16.6764706,11.26762 15.6894958,13.2975731 14.0993697,14.6779412 Z"/>
</svg>
