<svg xmlns="http://www.w3.org/2000/svg" width="18" height="16" viewBox="0 0 18 16">
  <path fill="#BBB" d="M6.1875,16 L6.1875,12.5044405 C2.784375,12.5044405 0,9.69094139 0,6.25222025 C0,2.81349911 2.784375,0 6.1875,0 L11.8125,0 C15.215625,0 18,2.81349911 18,6.25222025 C18,9.69094139 15.215625,12.5044405 11.8125,12.5044405 L10.321875,12.5044405 L6.1875,16 Z M6.35294118,1.6 C3.73235294,1.6 1.58823529,3.76 1.58823529,6.4 C1.58823529,9.04 3.73235294,11.2 6.35294118,11.2 L7.41176471,11.2 L7.41176471,13.2533333 L9.87352941,11.2 L11.6470588,11.2 C14.2676471,11.2 16.4117647,9.04 16.4117647,6.4 C16.4117647,3.76 14.2676471,1.6 11.6470588,1.6 L6.35294118,1.6 Z"/>
</svg>
