<?xml version="1.0" encoding="UTF-8"?>
<svg width="200px" height="32px" viewBox="0 0 200 32" version="1.1" xmlns="http://www.w3.org/2000/svg" xmlns:xlink="http://www.w3.org/1999/xlink">
    <title>essentials-logo-gradient</title>
    <defs>
        <radialGradient cx="134.660317%" cy="214.84006%" fx="134.660317%" fy="214.84006%" r="888.055129%" gradientTransform="translate(1.346603,2.148401),scale(0.160000,1.000000),rotate(-163.555006),scale(1.000000,0.722917),translate(-1.346603,-2.148401)" id="radialGradient-1">
            <stop stop-color="#F8D05A" offset="0%"></stop>
            <stop stop-color="#FF6434" offset="22.9940878%"></stop>
            <stop stop-color="#EA4196" offset="49.4364252%"></stop>
            <stop stop-color="#E565FF" offset="73.5874666%"></stop>
            <stop stop-color="#5092FF" offset="100%"></stop>
        </radialGradient>
    </defs>
    <g id="Page-1" stroke="none" stroke-width="1" fill="none" fill-rule="evenodd">
        <g id="control-panel" transform="translate(-187.000000, -144.000000)" fill="url(#radialGradient-1)">
            <path d="M208,146 L208,152.1533 L194.792544,152.1533 L194.792544,158.122072 L207.217121,158.122072 L207.217121,163.735983 L194.792544,163.735983 L194.792544,169.8467 L208,169.8467 L208,176 L187,176 L187,146 L208,146 Z M220.985363,152 C227.352628,152 231.319361,154.965001 231.363273,159.696081 L224.417831,159.696081 C224.351963,158.052049 223.027279,157.025426 220.919494,157.025426 C219.053227,157.025426 217.852961,157.822315 217.852961,158.999701 C217.852961,159.904278 218.709248,160.557583 220.465735,160.916542 L225.354624,161.885731 C230.009315,162.854921 232,164.728687 232,168.196231 C232,172.948848 227.601464,176 221.087824,176 C214.2668,176 210.322023,172.948848 210,168.260844 L217.377246,168.260844 C217.589488,169.962309 218.987359,170.974574 221.212242,170.974574 C223.224884,170.974574 224.469062,170.256656 224.469062,169.036195 C224.469062,168.110081 223.759148,167.586001 221.936793,167.205504 L217.516301,166.300927 C212.949434,165.353276 210.548902,162.998504 210.548902,159.487885 C210.56354,154.900389 214.552229,152 220.985363,152 Z M242.985363,152 C249.352628,152 253.319361,154.965001 253.363273,159.696081 L246.417831,159.696081 C246.351963,158.052049 245.027279,157.025426 242.919494,157.025426 C241.053227,157.025426 239.852961,157.822315 239.852961,158.999701 C239.852961,159.904278 240.709248,160.557583 242.465735,160.916542 L247.354624,161.885731 C252.009315,162.854921 254,164.728687 254,168.196231 C254,172.948848 249.601464,176 243.087824,176 C236.2668,176 232.322023,172.948848 232,168.260844 L239.377246,168.260844 C239.589488,169.962309 240.987359,170.974574 243.212242,170.974574 C245.224884,170.974574 246.469062,170.256656 246.469062,169.036195 C246.469062,168.110081 245.759148,167.586001 243.936793,167.205504 L239.516301,166.300927 C234.949434,165.353276 232.548902,162.998504 232.548902,159.487885 C232.56354,154.900389 236.552229,152 242.985363,152 Z M266.554571,152 C273.546979,152 278,156.522884 278,163.529764 L278,165.633264 L262.334388,165.633264 L262.334388,166.092731 C262.334388,168.827999 264.189813,170.723302 266.91838,170.723302 C268.941158,170.723302 270.520089,169.775651 271.05125,168.217768 L277.876305,168.217768 C277.148687,172.948848 272.884847,176 266.809238,176 C259.409364,176 255,171.520191 255,164.118456 C255,156.716722 259.453021,152 266.554571,152 Z M294.209213,153 C299.22009,153 302,156.147294 302,161.515375 L302,176 L294.701855,176 L294.701855,163.085486 C294.701855,160.518143 293.484325,158.983395 291.091491,158.983395 C288.761996,158.983395 287.319258,160.744465 287.319258,163.23401 L287.319258,176 L280,176 L280,153.431427 L287.115163,153.431427 L287.115163,157.682042 L287.262956,157.682042 C288.417147,154.676199 290.767754,153 294.209213,153 Z M314.795898,148 L314.795898,153.118895 L319,153.118895 L319,158.595756 L314.795898,158.595756 L314.795898,168.182051 C314.795898,169.757095 315.652832,170.551777 317.476562,170.551777 C318.077148,170.551777 318.53125,170.530299 318.978027,170.444388 L318.978027,175.727947 C318.245605,175.878292 317.132324,176 315.652832,176 C309.581055,176 307.178711,174.17438 307.178711,169.685502 L307.178711,158.588596 L304,158.588596 L304,153.111736 L307.178711,153.111736 L307.178711,148 L314.795898,148 Z M342.771803,153 C348.92459,153 353,156.032891 353,160.481593 L353,175.673808 L345.707541,175.673808 L345.707541,172.522933 L345.556066,172.522933 C344.308197,174.757695 341.502295,176 338.732459,176 C334.469508,176 331,173.279421 331,169.267954 C331,165.117683 334.318033,162.799638 340.276066,162.459565 L345.664262,162.154194 L345.664262,160.891068 C345.664262,159.121304 344.351475,158.142728 342.389508,158.142728 C340.362623,158.142728 339.071475,159.156005 338.862295,160.523235 L332.118033,160.523235 C332.327213,155.991249 336.344918,153 342.771803,153 Z M363,146 L363,176 L356,176 L356,146 L363,146 Z M375.985363,152 C382.352628,152 386.319361,154.965001 386.363273,159.696081 L379.417831,159.696081 C379.351963,158.052049 378.027279,157.025426 375.919494,157.025426 C374.053227,157.025426 372.852961,157.822315 372.852961,158.999701 C372.852961,159.904278 373.709248,160.557583 375.465735,160.916542 L380.354624,161.885731 C385.009315,162.854921 387,164.728687 387,168.196231 C387,172.948848 382.601464,176 376.087824,176 C369.2668,176 365.322023,172.948848 365,168.260844 L372.377246,168.260844 C372.589488,169.962309 373.987359,170.974574 376.212242,170.974574 C378.224884,170.974574 379.469062,170.256656 379.469062,169.036195 C379.469062,168.110081 378.759148,167.586001 376.936793,167.205504 L372.516301,166.300927 C367.949434,165.353276 365.548902,162.998504 365.548902,159.487885 C365.570858,154.900389 369.559548,152 375.985363,152 Z M328.90969,152.852184 L328.90969,175 L321.105362,175 L321.105362,152.852184 L328.90969,152.852184 Z M345.664262,166.200362 L341.480656,166.464092 C339.518689,166.609837 338.415082,167.477369 338.415082,168.782136 C338.415082,170.184068 339.619672,171.037719 341.394098,171.037719 C343.680656,171.037719 345.664262,169.69825 345.664262,167.727218 L345.664262,166.200362 Z M266.678266,157.305414 C264.357165,157.305414 262.632711,159.00688 262.436254,161.383189 L270.876621,161.383189 C270.74565,158.942267 269.064853,157.305414 266.678266,157.305414 Z M325.011289,144 C327.284102,144 329,145.527436 329,147.520045 C329,149.512654 327.276576,151.060918 325.011289,151.060918 C322.746002,151.060918 321,149.512654 321,147.520045 C321,145.527436 322.738476,144 325.011289,144 Z" id="essentials-logo-gradient"></path>
        </g>
    </g>
</svg>