<?xml version="1.0" encoding="UTF-8"?>
<svg width="18px" height="18px" viewBox="0 0 18 18" version="1.1" xmlns="http://www.w3.org/2000/svg" xmlns:xlink="http://www.w3.org/1999/xlink">
    <title>Shape</title>
    <g id="Page-1" stroke="none" stroke-width="1" fill="none" fill-rule="evenodd">
        <g id="control-panel" transform="translate(-1070.000000, -151.000000)" fill="#50E3C2" fill-rule="nonzero">
            <g id="support-bug" transform="translate(1060.000000, 141.000000)">
                <path d="M10.9,13.6 C10.405,13.6 10,14.005 10,14.5 L10,26.2 C10,27.19 10.81,28 11.8,28 L23.5,28 C23.995,28 24.4,27.595 24.4,27.1 C24.4,26.605 23.995,26.2 23.5,26.2 L12.7,26.2 C12.205,26.2 11.8,25.795 11.8,25.3 L11.8,14.5 C11.8,14.005 11.395,13.6 10.9,13.6 Z M26.2,10 L15.4,10 C14.41,10 13.6,10.81 13.6,11.8 L13.6,22.6 C13.6,23.59 14.41,24.4 15.4,24.4 L26.2,24.4 C27.19,24.4 28,23.59 28,22.6 L28,11.8 C28,10.81 27.19,10 26.2,10 Z M24.4,18.1 L17.2,18.1 C16.705,18.1 16.3,17.695 16.3,17.2 C16.3,16.705 16.705,16.3 17.2,16.3 L24.4,16.3 C24.895,16.3 25.3,16.705 25.3,17.2 C25.3,17.695 24.895,18.1 24.4,18.1 Z M20.8,21.7 L17.2,21.7 C16.705,21.7 16.3,21.295 16.3,20.8 C16.3,20.305 16.705,19.9 17.2,19.9 L20.8,19.9 C21.295,19.9 21.7,20.305 21.7,20.8 C21.7,21.295 21.295,21.7 20.8,21.7 Z M24.4,14.5 L17.2,14.5 C16.705,14.5 16.3,14.095 16.3,13.6 C16.3,13.105 16.705,12.7 17.2,12.7 L24.4,12.7 C24.895,12.7 25.3,13.105 25.3,13.6 C25.3,14.095 24.895,14.5 24.4,14.5 Z"></path>
            </g>
        </g>
    </g>
</svg>