<?xml version="1.0" encoding="UTF-8"?>
<svg width="18px" height="22px" viewBox="0 0 18 22" version="1.1" xmlns="http://www.w3.org/2000/svg" xmlns:xlink="http://www.w3.org/1999/xlink">
    <title>pixfort-logo-mini</title>
    <g id="Page-1" stroke="none" stroke-width="1" fill="none" fill-rule="evenodd">
        <g id="control-panel" transform="translate(-1204.000000, -149.000000)" fill="#5B5C6C">
            <path d="M1206,167 L1210,167 L1210,171 L1206,171 L1206,167 Z M1206,162 L1210,162 L1210,166 L1206,166 L1206,162 Z M1211,162 L1215,162 L1215,166 L1211,166 L1211,162 Z M1206,157 L1210,157 L1210,161 L1206,161 L1206,157 Z M1211,157 L1215,157 L1215,161 L1211,161 L1211,157 Z M1216,157 L1220,157 L1220,161 L1216,161 L1216,157 Z M1204,149 L1207.85714,149 L1207.85714,151.803786 L1211.07143,151.803786 L1211.07143,149 L1214.92857,149 L1214.92857,151.803786 L1218.14286,151.803786 L1218.14286,149 L1222,149 L1222,153.907151 L1220.07143,156 L1205.92857,156 L1204,153.907853 L1204,149 Z" id="pixfort-logo-mini"></path>
        </g>
    </g>
</svg>