<?xml version="1.0" encoding="UTF-8"?>
<svg width="13px" height="13px" viewBox="0 0 13 13" version="1.1" xmlns="http://www.w3.org/2000/svg" xmlns:xlink="http://www.w3.org/1999/xlink">
    <title>Shape</title>
    <g id="Page-1" stroke="none" stroke-width="1" fill="none" fill-rule="evenodd">
        <g id="control-panel" transform="translate(-526.000000, -156.000000)" fill="#50E3C2" fill-rule="nonzero">
            <g id="version" transform="translate(519.000000, 151.000000)">
                <path d="M13.5,5 C9.91132265,5 7,7.91132265 7,11.5 C7,15.0886774 9.91132265,18 13.5,18 C17.0886774,18 20,15.0886774 20,11.5 C20,7.91132265 17.0886774,5 13.5,5 Z M13.046421,14.6862892 L13.046421,12.1022915 L11.3236562,12.1022915 C11.0840236,12.1022915 10.9221096,11.8526299 11.0386876,11.646659 L13.4220614,7.17147455 C13.5710223,6.87812215 14.030858,6.98422834 14.030858,7.31502998 L14.030858,9.93023541 L15.675904,9.93023541 C15.9155367,9.93023541 16.0709741,10.1736555 15.9673492,10.3796263 L13.6616941,14.8236031 C13.5062567,15.123197 13.046421,15.0170908 13.046421,14.6862892 L13.046421,14.6862892 Z"></path>
            </g>
        </g>
    </g>
</svg>