<?xml version="1.0" encoding="UTF-8"?>
<svg width="20px" height="17px" viewBox="0 0 20 17" version="1.1" xmlns="http://www.w3.org/2000/svg" xmlns:xlink="http://www.w3.org/1999/xlink">
    <title>footer-icon</title>
    <g id="Page-1" stroke="none" stroke-width="1" fill="none" fill-rule="evenodd">
        <g id="control-panel" transform="translate(-1352.000000, -47.000000)" fill="#FFFFFF" fill-rule="nonzero">
            <g id="footer-icon" transform="translate(1352.000000, 47.000000)">
                <path d="M18.1818182,0 L1.81818182,0 C0.818181818,0 0,0.818181818 0,1.81818182 L0,14.5454545 C0,15.5454545 0.818181818,16.3636364 1.81818182,16.3636364 L18.1818182,16.3636364 C19.1818182,16.3636364 20,15.5454545 20,14.5454545 L20,1.81818182 C20,0.818181818 19.1818182,0 18.1818182,0 Z M17.2727273,14.5454545 L2.72727273,14.5454545 C2.22727273,14.5454545 1.81818182,14.1363636 1.81818182,13.6363636 L1.81818182,12.7272727 C1.81818182,12.2272727 2.22727273,11.8181818 2.72727273,11.8181818 L17.2727273,11.8181818 C17.7727273,11.8181818 18.1818182,12.2272727 18.1818182,12.7272727 L18.1818182,13.6363636 C18.1818182,14.1363636 17.7727273,14.5454545 17.2727273,14.5454545 Z"></path>
            </g>
        </g>
    </g>
</svg>