<?xml version="1.0" encoding="UTF-8"?>
<svg width="22px" height="18px" viewBox="0 0 22 18" version="1.1" xmlns="http://www.w3.org/2000/svg" xmlns:xlink="http://www.w3.org/1999/xlink">
    <g id="Page-1" stroke="none" stroke-width="1" fill="none" fill-rule="evenodd">
        <g id="call_to_action-24px" transform="translate(11.000000, 9.000000) scale(1, -1) translate(-11.000000, -9.000000) " fill="#A9ADB2" fill-rule="nonzero">
            <path d="M20,0 L2,0 C0.9,0 0,0.9 0,2 L0,16 C0,17.1 0.9,18 2,18 L20,18 C21.1,18 22,17.1 22,16 L22,2 C22,0.9 21.1,0 20,0 Z M19,16 L3,16 C2.45,16 2,15.55 2,15 L2,14 C2,13.45 2.45,13 3,13 L19,13 C19.55,13 20,13.45 20,14 L20,15 C20,15.55 19.55,16 19,16 Z"></path>
        </g>
    </g>
</svg>
