<svg id="Layer_1" data-name="Layer 1" xmlns="http://www.w3.org/2000/svg" xmlns:xlink="http://www.w3.org/1999/xlink" viewBox="0 0 669 627"><defs><style>.cls-1{fill:#aad5d7;opacity:0.83;}.cls-2{fill:#9bc4c4;}.cls-3{fill:#cfe7e9;opacity:0.63;}.cls-4{opacity:0.47;fill:url(#radial-gradient);}.cls-5{opacity:0.74;fill:url(#linear-gradient);}.cls-6,.cls-7,.cls-8,.cls-9{fill:#93c6c2;}.cls-6{opacity:0.25;}.cls-7{opacity:0.65;}.cls-9{opacity:0.22;}.cls-10{fill:#dfefed;opacity:0.43;}.cls-11{fill:#bcddd8;opacity:0.17;}.cls-12{fill:#eaf4f3;}.cls-13{fill:#d3eae8;}.cls-14{fill:#a0d0d5;opacity:0.57;}</style><radialGradient id="radial-gradient" cx="408.3" cy="313.5" r="288.31" gradientUnits="userSpaceOnUse"><stop offset="0" stop-color="#a0d0d5" stop-opacity="0.39"/><stop offset="1" stop-color="#bbb"/></radialGradient><linearGradient id="linear-gradient" x1="182.65" y1="355.5" x2="669" y2="355.5" gradientUnits="userSpaceOnUse"><stop offset="0" stop-color="#d6e9e8"/><stop offset="1" stop-color="#a0d0d5"/></linearGradient></defs><title>right</title><polygon class="cls-1" points="106.19 627 115.75 587 32.92 548 81.77 627 106.19 627"/><polygon class="cls-2" points="40.35 627 32.92 548 81.77 627 40.35 627"/><polygon class="cls-3" points="10.62 627 0 510 86.01 550 83.44 571.79 32.92 548 40.35 627 10.62 627"/><polygon class="cls-4" points="147.6 627 190.08 524 155.04 48 426.89 323 518.21 0 669 36 669 627 147.6 627"/><polygon class="cls-5" points="187.96 627 216.63 569 182.65 128 442.81 382 535.2 84 669 111 669 627 187.96 627"/><polygon class="cls-6" points="424.76 325 353.61 627 669 627 669 485 424.76 325"/><polygon class="cls-7" points="384.41 627 398.21 517 441.75 379 441.75 627 384.41 627"/><polygon class="cls-8" points="396.09 526 384.41 627 430.07 627 396.09 526"/><polygon class="cls-9" points="236.81 627 215.57 569 396.09 524 426.89 627 236.81 627"/><polygon class="cls-10" points="535.2 84 637.14 627 669 627 669 356 535.2 84"/><polygon class="cls-6" points="425 325 254.86 627 669 627 669 463.31 425 325"/><polygon class="cls-11" points="535.2 0 637.14 627 669 627 669 314.08 535.2 0"/><ellipse class="cls-12" cx="1694.55" cy="832.4" rx="4.49" ry="7.51" transform="translate(-1321.45 -294.05) rotate(-5.2)"/><ellipse class="cls-13" cx="1473.5" cy="1021" rx="5.5" ry="8" transform="translate(-1339.44 -313.3) rotate(-5.2)"/><ellipse class="cls-12" cx="1649.55" cy="977.4" rx="4.49" ry="7.51" transform="translate(-1334.77 -297.53) rotate(-5.2)"/><ellipse class="cls-12" cx="1850.55" cy="874.4" rx="4.49" ry="7.51" transform="translate(-1324.61 -279.74) rotate(-5.2)"/><polygon class="cls-14" points="598 423 511.31 626 669 627 669 463.31 598 423"/></svg>