<?xml version="1.0"?>
<svg xmlns="http://www.w3.org/2000/svg" height="512px" viewBox="0 0 480.09186 480" width="512px"><path d="m232.09375 479.847656v.199219h16v-.199219c129.363281-4.253906 232.023438-110.367187 232-239.800781-.167969-129.355469-102.722656-235.359375-232-239.800781v-.199219h-16v.199219c-129.390625 4.226562-232.09375 110.339844-232.09375 239.800781 0 129.457031 102.703125 235.570313 232.09375 239.800781zm-169.824219-103.800781h63.421875c9.390625 29.558594 25.929688 56.347656 48.152344 77.984375-44.359375-13.839844-83.335938-41.082031-111.574219-77.984375zm401.597657-144h-87.871094c-.417969-37.890625-5.886719-75.554687-16.265625-112h69.363281c21.402344 33.550781 33.421875 72.226563 34.796875 112zm-231.773438 144v87.574219c-40.601562-4.0625-70.488281-39.007813-89.136719-87.574219zm-94.738281-16c-10.992188-36.335937-16.769531-74.042969-17.167969-112h111.90625v112zm110.738281 103.597656v-87.597656h89.359375c-2.65625 6.933594-5.457031 13.679687-8.546875 20-14.308594 29.160156-39.71875 63.589844-80.8125 67.597656zm0-103.597656v-112h111.8125c-.28125 37.941406-5.957031 75.65625-16.863281 112zm127.910156-112h87.894532c-1.332032 39.753906-13.289063 78.429687-34.628907 112h-69.53125c10.375-36.445313 15.84375-74.109375 16.265625-112zm-16-16h-111.910156v-112h94.734375c10.992187 36.332031 16.769531 74.042969 17.167969 112zm-111.910156-128v-87.578125c40.597656 4.066406 70.484375 39.007812 89.132812 87.578125zm-16-87.578125v87.578125h-89.136719c18.648438-48.570313 48.535157-83.511719 89.136719-87.578125zm0 103.578125v112h-111.90625c.398438-37.957031 6.175781-75.667969 17.167969-112zm-127.808594 112h-88c1.375-39.773437 13.394532-78.449219 34.796875-112h69.410157c-10.425782 36.429687-15.878907 74.105469-16.207032 112zm-.105468 16c.421874 37.890625 5.894531 75.554687 16.273437 112h-69.359375c-21.40625-33.550781-33.425781-72.226563-34.800781-112zm298.121093 146.480469c-26.359375 27.839844-59.464843 48.394531-96.105469 59.671875 22.324219-21.65625 38.933594-48.507813 48.335938-78.152344h63.511719c-4.910157 6.4375-10.167969 12.605469-15.742188 18.480469zm15.613281-290.480469h-63.351562c-9.386719-29.558594-25.925781-56.34375-48.152344-77.976563 44.332032 13.847657 83.285156 41.089844 111.503906 77.976563zm-243.902343-78.039063c-15.550781 14.445313-28.15625 31.769532-37.121094 51.015626-4.226563 8.792968-7.964844 17.816406-11.199219 27.023437h-63.421875c28.273438-36.953125 67.316407-64.21875 111.742188-78.039063zm0 0" fill="#FFFFFF"/></svg>
