<?xml version="1.0" encoding="utf-8"?>
<svg version="1.1" id="logo-svg" xmlns="http://www.w3.org/2000/svg" xmlns:xlink="http://www.w3.org/1999/xlink" x="0px" y="0px"
	 viewBox="0 0 280 50" style="enable-background:new 0 0 280 50;" xml:space="preserve">
<style type="text/css">
	.st0{fill:#222222;}
</style>
<g id="essentials-logo">
	<path id="E01" class="st0" d="M29.42,46.73H0.45V4.46h28.97v8.67H11.2v8.41h17.14v7.91H11.2v8.61h18.22V46.73z"/>
	<path id="S02" class="st0" d="M47.54,14.07c8.7,0,14.12,4.13,14.18,10.72h-9.49c-0.09-2.29-1.9-3.72-4.78-3.72
		c-2.55,0-4.19,1.11-4.19,2.75c0,1.26,1.17,2.17,3.57,2.67l6.68,1.35c6.36,1.35,9.08,3.96,9.08,8.79c0,6.62-6.01,10.87-14.91,10.87
		c-9.32,0-14.71-4.25-15.15-10.78h10.08c0.29,2.37,2.2,3.78,5.24,3.78c2.75,0,4.45-1,4.45-2.7c0-1.29-0.97-2.02-3.46-2.55
		l-6.04-1.26c-6.24-1.32-9.52-4.6-9.52-9.49C33.3,18.11,38.75,14.07,47.54,14.07z"/>
	<path id="S03" class="st0" d="M79.04,14.07c8.7,0,14.12,4.13,14.18,10.72h-9.49c-0.09-2.29-1.9-3.72-4.78-3.72
		c-2.55,0-4.19,1.11-4.19,2.75c0,1.26,1.17,2.17,3.57,2.67l6.68,1.35c6.36,1.35,9.08,3.96,9.08,8.79c0,6.62-6.01,10.87-14.91,10.87
		c-9.32,0-14.71-4.25-15.15-10.78h10.08c0.29,2.37,2.2,3.78,5.24,3.78c2.75,0,4.45-1,4.45-2.7c0-1.29-0.97-2.02-3.46-2.55
		l-6.04-1.26c-6.24-1.32-9.52-4.6-9.52-9.49C64.8,18.11,70.25,14.07,79.04,14.07z"/>
	<path id="E04" class="st0" d="M127.3,36.65c-1,6.59-6.86,10.84-15.21,10.84c-10.17,0-16.23-6.24-16.23-16.55
		c0-10.31,6.12-16.88,15.88-16.88c9.61,0,15.73,6.3,15.73,16.06v2.93h-21.53v0.64c0,3.81,2.55,6.45,6.3,6.45
		c2.78,0,4.95-1.32,5.68-3.49H127.3z M106.08,27.13h11.6c-0.18-3.4-2.49-5.68-5.77-5.68C108.72,21.45,106.35,23.82,106.08,27.13z"/>
	<path id="N05" class="st0" d="M130.53,14.83h10.11v6.01h0.21c1.64-4.25,4.98-6.62,9.87-6.62c7.12,0,11.07,4.45,11.07,12.04v20.48
		h-10.37V28.48c0-3.63-1.73-5.8-5.13-5.8c-3.31,0-5.36,2.49-5.36,6.01v18.05h-10.4V14.83z"/>
	<path id="T06" class="st0" d="M178.7,7.68v7.15h5.74v7.65h-5.74v13.39c0,2.2,1.17,3.31,3.66,3.31c0.82,0,1.44-0.03,2.05-0.15v7.38
		c-1,0.21-2.52,0.38-4.54,0.38c-8.29,0-11.57-2.55-11.57-8.82v-15.5h-4.34v-7.65h4.34V7.68H178.7z"/>
	<path id="I07" class="st0" d="M187.7,7.15c0-2.87,2.31-5.07,5.33-5.07s5.3,2.2,5.3,5.07s-2.29,5.1-5.3,5.1S187.7,10.02,187.7,7.15z
		 M187.84,14.83h10.37v31.9h-10.37V14.83z"/>
	<path id="A08" class="st0" d="M201.12,37.5c0-5.98,4.6-9.32,12.86-9.81l7.47-0.44v-1.82c0-2.55-1.82-3.96-4.54-3.96
		c-2.81,0-4.6,1.46-4.89,3.43h-9.35c0.29-6.53,5.86-10.84,14.77-10.84c8.53,0,14.18,4.37,14.18,10.78v21.89h-10.11v-4.54h-0.21
		c-1.73,3.22-5.62,5.01-9.46,5.01C205.93,47.2,201.12,43.28,201.12,37.5z M221.45,35.28v-2.2l-5.8,0.38
		c-2.72,0.21-4.25,1.46-4.25,3.34c0,2.02,1.67,3.25,4.13,3.25C218.7,40.05,221.45,38.12,221.45,35.28z"/>
	<path id="L09" class="st0" d="M235.79,4.46h10.4v42.28h-10.4V4.46z"/>
	<path id="S10" class="st0" d="M264.09,14.07c8.7,0,14.12,4.13,14.18,10.72h-9.49c-0.09-2.29-1.9-3.72-4.78-3.72
		c-2.55,0-4.19,1.11-4.19,2.75c0,1.26,1.17,2.17,3.57,2.67l6.68,1.35c6.36,1.35,9.08,3.96,9.08,8.79c0,6.62-6.01,10.87-14.91,10.87
		c-9.32,0-14.71-4.25-15.15-10.78h10.08c0.29,2.37,2.2,3.78,5.24,3.78c2.75,0,4.45-1,4.45-2.7c0-1.29-0.97-2.02-3.46-2.55
		l-6.04-1.26c-6.24-1.32-9.52-4.6-9.52-9.49C249.86,18.11,255.31,14.07,264.09,14.07z"/>
</g>
</svg>
