<?xml version="1.0" encoding="UTF-8"?>
<svg width="18px" height="18px" viewBox="0 0 18 18" version="1.1" xmlns="http://www.w3.org/2000/svg" xmlns:xlink="http://www.w3.org/1999/xlink">
    <g id="Headers" stroke="none" stroke-width="1" fill="none" fill-rule="evenodd">
        <g id="Header-default-stack-right-menu" transform="translate(-1127.000000, -11.000000)" fill="#BBBBBB" fill-rule="nonzero">
            <g id="Group" transform="translate(971.000000, 7.000000)">
                <g id="Call" transform="translate(150.000000, 0.000000)">
                    <path d="M14.8615385,4 C9.98769231,4 6,7.98769231 6,12.8615385 C6,17.7353846 9.98769231,21.7230769 14.8615385,21.7230769 C17.6030769,21.7230769 19.7907692,20.6984615 20.4553846,19.12 C20.8430769,18.2061538 20.6215385,17.2646154 19.8738462,16.5169231 L19.5415385,16.8492308 C19.9015385,16.4892308 20.0676923,16.0738462 20.0953846,15.9076923 C20.1507692,15.4369231 19.8184615,15.2430769 19.5969231,15.0769231 C19.3753846,14.9384615 18.0738462,14.08 17.88,13.9415385 C17.6861538,13.8030769 17.1876923,13.6646154 16.8,14.1630769 C16.4123077,14.6338462 16.1907692,15.16 14.3907692,13.36 C12.5907692,11.56 13.0892308,11.3384615 13.5876923,10.9507692 C14.0584615,10.5630769 13.92,10.0646154 13.8092308,9.87076923 C13.6707692,9.67692308 12.84,8.34769231 12.6738462,8.15384615 C12.5353846,7.93230769 12.3138462,7.57230769 11.8430769,7.65538462 C11.5107692,7.71076923 10.1815385,8.40307692 10.1815385,9.89846154 C10.1815385,11.3938462 11.3446154,13.2215385 12.9784615,14.8276923 C14.5569231,16.4061538 16.3846154,17.5692308 17.88,17.5692308 C18.6,17.5692308 19.1538462,17.2646154 19.5138462,16.9046154 L19.0984615,17.2923077 C19.5138462,17.7076923 19.6246154,18.2061538 19.4307692,18.6769231 C19.0430769,19.5907692 17.4646154,20.6153846 14.8615385,20.6153846 C10.5969231,20.6153846 7.10769231,17.1261538 7.10769231,12.8615385 C7.10769231,8.59692308 10.5969231,5.10769231 14.8615385,5.10769231 C19.1261538,5.10769231 22.6153846,8.59692308 22.6153846,12.8615385 C22.6153846,13.5538462 22.5323077,14.2738462 22.3384615,14.9384615 C22.2553846,15.2430769 22.4215385,15.5476923 22.7261538,15.6307692 C23.0307692,15.7138462 23.3353846,15.5476923 23.4184615,15.2430769 C23.64,14.4676923 23.7507692,13.6923077 23.7507692,12.8892308 C23.7230769,7.98769231 19.7353846,4 14.8615385,4 Z" id="Path"></path>
                </g>
            </g>
        </g>
    </g>
</svg>
